ply
format ascii 1.0
element vertex 702
property float x
property float y
property float z
element face 864
property list uchar int vertex_indices
end_header
-312.169 -154.039 38.1582
-296.722 -118.652 34.9305
-299.644 -136.301 35.9429
-304.264 -154.993 37.2451
-262.708 -78.5494 30.0145
-268.086 -112.496 31.9551
-274.437 -145.684 33.9737
-244.229 -68.2759 27.6692
-243.206 -103.167 29.0682
-243.892 -140.269 30.7374
-231.618 -65.0322 26.2795
-218.622 -96.9078 26.4269
-212.826 -134.87 27.5594
-198.506 -54.1456 22.41
-183.936 -83.9478 22.3527
-173.391 -117.326 22.8574
-149.648 -39.0785 16.9242
-137.079 -63.5257 16.8445
-126.12 -89.5393 16.9961
-91.9456 -23.5295 10.4408
-83.7565 -39.3134 10.396
-76.1638 -55.6832 10.4267
-28.0706 -9.61049 3.43342
-25.3375 -12.764 3.33157
-25.8996 -18.1981 3.5968
-0.274698 -0.209851 0.0361192
-255.368 -216.848 36.6962
-247.087 -195.884 34.4246
-246.699 -205.905 35.0271
-248.991 -219.007 36.1594
-227.087 -158.243 30.2788
-224.351 -185.405 31.9248
-223.437 -213.201 33.7801
-218.036 -141.073 28.345
-204.245 -169.354 29.1666
-192.211 -200.547 30.3691
-209.021 -131.827 27.0056
-182.114 -152.233 26.2334
-159.596 -178.246 26.2327
-180.223 -109.708 23.0052
-152.146 -127.4 21.96
-126.194 -148.082 21.3146
-136.471 -79.7525 17.3246
-113.087 -94.2487 16.4437
-90.3188 -109.842 15.6995
-84.1634 -47.7498 10.6609
-69.2732 -57.3133 10.127
-54.442 -67.2475 9.61837
-25.671 -16.4718 3.51456
-21.548 -17.8485 3.29178
-19.2331 -22.006 3.35537
-0.187489 -0.231333 0.0312469
-146.824 -284.184 35.0372
-152.667 -269.03 33.7725
-146.274 -274.34 33.8845
-143.21 -282.403 34.5202
-155.394 -225.891 30.0189
-139.647 -247.829 31.2314
-125.385 -270.464 32.5973
-156.977 -197.966 27.5684
-130.799 -224.326 28.6034
-107.089 -254.892 30.1984
-145.65 -165.907 24.043
-115.982 -196.372 25.298
-88.0206 -232.653 27.2114
-124.607 -131.864 19.6247
-95.9731 -161.287 20.8669
-68.3245 -194.695 22.55
-94.6439 -94.9495 14.5373
-71.0087 -118.585 15.5256
-47.7671 -144.319 16.7373
-58.5306 -57.8252 8.96947
-43.2986 -72.5655 9.57385
-28.2224 -88.3977 10.28
-16.7791 -20.8071 3.10627
-12.9847 -23.8577 3.20895
-10.2885 -29.9881 3.60626
-0.0865269 -0.198696 0.0236382
-20.1262 -334.939 36.7045
-36.2402 -321.712 35.3193
-25.7519 -323.551 35.3404
-15.7546 -327.054 35.6018
-54.2315 -294.081 32.7173
-31.8396 -291.253 32.1521
-9.4177 -289.788 31.7352
-69.6227 -268.111 30.2617
-37.0396 -259.25 28.8803
-5.19239 -252.379 27.7466
-78.8001 -235.02 27.0672
-39.6263 -222.169 25.1201
-2.1764 -211.782 23.5093
-74.5722 -191.337 22.2624
-36.8574 -179.655 20.487
0.0450821 -169.156 18.8763
-59.7194 -139.316 16.4376
-28.9484 -130.796 15.1284
1.64087 -122.551 13.8592
-37.0687 -84.5219 10.0511
-17.4788 -79.7099 9.30245
2.13281 -74.9046 8.54422
-8.00339 -28.2374 3.41004
-3.11621 -26.5028 3.17206
0.810008 -26.4618 3.08422
-0.0960429 -0.150234 0.0190182
30.582 -305.571 33.6306
14.7294 -301.791 32.8851
24.4359 -299.739 32.7284
34.8391 -301.808 33.1161
-2.38349 -273.782 29.769
19.4691 -282.387 30.9405
41.7439 -294.175 32.4748
-14.2246 -243.104 26.3046
15.133 -258.888 28.3491
45.2035 -280.714 31.064
-21.4817 -207.169 22.4364
11.0212 -224.961 24.7439
44.124 -247.863 27.6194
-23.8275 -167.523 18.0964
7.48304 -183.35 20.1852
39.21 -202.733 22.6718
-21.3267 -122.668 13.3574
4.60816 -134.261 14.9296
30.7693 -147.785 16.7183
-14.0169 -75.3554 8.27827
2.76444 -81.9721 9.20412
19.676 -89.6607 10.2389
-1.78775 -25.5005 2.96241
2.0244 -26.7012 3.15671
6.21099 -30.875 3.60929
0.0202715 -0.171471 0.0179291
121.612 -323.902 37.9028
98.0037 -311.418 35.6396
110.476 -312.942 36.1919
124.803 -316.357 37.0856
70.709 -276.047 31.1301
98.1561 -281.846 32.7332
126.879 -291.053 34.7335
49.7675 -240.665 26.7243
87.8055 -247.433 28.8754
129.026 -257.089 31.4669
32.8821 -202.339 22.2698
74.7146 -207.619 24.4482
119.144 -215.176 26.9812
20.2452 -162.31 17.6642
59.6039 -165.308 19.5311
100.759 -169.868 21.6444
11.0774 -118.469 12.901
42.753 -119.34 14.2567
75.4301 -121.096 15.7511
5.86262 -72.8477 7.97301
25.8425 -72.5822 8.75084
46.4254 -72.9135 9.60711
4.60659 -24.65 2.91493
9.04379 -24.4 3.0831
15.0832 -25.8266 3.4281
0.0766239 -0.0628662 0.00918841
249.104 -241.707 38.1491
197.094 -252.763 35.1379
222.284 -241.738 36.0299
254.037 -228.281 37.3022
152.057 -240.714 31.1558
196.059 -219.818 32.6546
244.397 -198.114 34.4268
133.093 -229.613 28.9166
177.914 -199.466 29.7634
229.7 -171.787 31.3499
110.198 -204.492 25.2619
153.805 -172.614 25.9405
201.939 -142.364 27.1073
86.2153 -169.719 20.5695
124.467 -140.234 21.0963
165.526 -111.654 21.9194
61.2386 -125.855 15.1608
90.6015 -102.286 15.5314
121.412 -79.0239 16.0397
37.4663 -76.6629 9.29766
55.4114 -61.8098 9.51057
74.1343 -47.1256 9.78665
15.2888 -22.6613 3.18396
19.1471 -18.7487 3.18106
25.1008 -16.6033 3.4345
0.120367 -0.113535 0.0189884
303.506 -164.9 37.8589
271.014 -171.976 35.053
284.698 -164.079 35.8603
302.95 -155.551 37.1511
235.576 -166.321 31.5283
260.717 -150.802 33.0545
289.277 -135.78 34.9395
218.154 -160.65 29.5707
240.403 -138.025 30.4592
269.959 -117.64 32.1722
188.185 -145.539 26.0052
209.963 -120.306 26.7346
236.609 -96.6357 28.0203
151.401 -122.992 21.2578
170.989 -98.4063 21.8342
193.527 -74.7853 22.7517
109.096 -92.8808 15.688
124.602 -72.2557 16.0982
141.483 -52.081 16.6677
65.6627 -57.3827 9.59949
75.3929 -43.887 9.83646
85.8631 -30.6455 10.1488
22.2858 -16.5769 3.22555
23.8452 -13.2322 3.21711
28.6616 -11.062 3.52004
0.200096 -0.0695753 0.0223012
326.619 -103.335 37.5402
300.686 -114.132 35.113
310.04 -105.001 35.7058
324.057 -95.0451 36.8362
275.552 -116.462 32.7036
288.888 -97.4829 33.4206
305.863 -78.7903 34.5308
261.064 -114.864 31.1402
268.595 -89.4715 31.0552
283.544 -65.1059 31.7822
228.729 -106.225 27.5918
235.767 -78.2308 27.3873
247.709 -50.9834 27.7255
185.974 -91.4387 22.6253
192.655 -64.3127 22.4286
202.251 -37.6604 22.5584
134.883 -70.1799 16.6855
140.635 -47.5004 16.5491
147.648 -25.0487 16.556
81.0674 -43.761 10.1639
84.94 -28.9562 10.0935
89.4642 -14.2785 10.0865
26.1625 -12.0604 3.3399
26.1888 -8.55302 3.24603
29.8561 -5.59209 3.48436
0.236988 -0.0327358 0.0250421
315.167 -30.0291 34.6926
306.644 -44.75 33.841
307.218 -35.0876 33.7177
313.243 -26.7712 34.2796
286.507 -60.1546 32.0166
294.877 -38.4905 32.6064
306.346 -17.8965 33.5529
273.13 -64.2611 30.6257
279.345 -36.8376 30.9248
294.202 -9.2288 32.1656
241.625 -63.1875 27.2908
248.769 -32.926 27.6828
262.255 -2.60421 28.769
198.485 -56.9324 22.493
205.4 -27.6558 22.898
216.343 1.63679 23.7464
145.403 -45.1869 16.6578
151.035 -20.7717 16.9992
158.575 3.64792 17.5507
87.9603 -28.4992 10.1679
91.5108 -12.5987 10.3876
96.0392 3.28532 10.7039
27.8095 -6.67394 3.31732
27.7753 -2.99115 3.28972
31.9973 0.564172 3.66214
0.281555 -0.00282168 0.0300896
323.308 15.0574 35.4606
315.726 3.02257 34.4602
315.204 10.444 34.3757
319.73 17.291 34.9152
300.478 -5.01279 32.8519
297.817 9.34327 32.6078
297.893 23.3323 32.6645
288.288 -8.04849 31.494
276.847 10.1096 30.3169
270.552 29.107 29.713
255.666 -11.8557 28.0171
244.712 9.97007 26.9135
238.793 32.7145 26.3582
210.228 -14.2665 23.0287
201.645 8.35621 22.1954
196.172 31.5081 21.7023
154.06 -14.0286 17.0011
148.234 5.84808 16.4657
143.751 25.8932 16.0766
93.1646 -10.0903 10.3568
89.9741 3.32341 10.0827
87.3898 16.777 9.86347
29.2485 -1.60401 3.39718
27.6798 1.23529 3.25836
29.6408 4.85601 3.43546
0.260176 0.0677418 0.0274928
328.082 56.0179 36.46
311.498 46.4901 34.3731
315.886 51.8064 34.8856
323.698 56.5881 35.832
268.25 42.1064 29.6853
284.949 48.9505 31.6053
303.248 55.5704 33.6952
239.201 37.7833 26.4327
257.972 45.962 28.6178
280.414 54.2739 31.2042
221.392 32.9581 24.4776
228.97 41.6701 25.5095
243.833 51.3867 27.3367
187.116 24.0593 20.6079
190.58 34.6459 21.2405
198.225 45.5493 22.329
140.049 14.3125 15.4942
141.206 25.165 15.8769
144.172 35.8712 16.4537
86.2809 6.79615 9.59363
86.4015 14.9441 9.79703
87.2854 22.8797 10.0696
27.953 3.26341 3.26973
27.2582 4.6248 3.24842
29.7757 6.98302 3.51629
0.248396 0.108369 0.0271623
321.011 107.551 37.1068
307.854 80.4283 34.7477
309.978 94.7803 35.3696
316.131 111.872 36.5752
280.702 58.1468 31.3402
288.108 83.9834 32.9022
299.342 111.486 34.9192
264.433 49.104 29.3505
264.371 76.1029 30.1812
270.501 105.945 31.7519
232.944 37.2118 25.771
229.925 65.3647 26.3584
231.092 95.1934 27.4399
191.584 25.5915 21.0389
187.148 52.3349 21.4604
185.263 80.0074 22.1823
141.11 15.3853 15.5163
136.595 37.6123 15.8005
133.267 60.2125 16.2224
86.0403 8.33725 9.50117
82.7476 22.8328 9.66132
80.1128 37.4861 9.88475
27.183 5.2002 3.21939
25.8037 8.26183 3.19711
27.3911 12.3289 3.45155
0.177071 0.0751133 0.0203092
315.999 162.235 38.9436
301.4 129.859 35.8446
302.944 146.588 36.7432
305.165 168.956 38.0732
279.857 108.418 32.786
277.161 137.083 33.9245
279.04 170.654 35.7566
251.028 87.1043 28.9074
246.693 122.584 30.2419
245.371 161.214 32.0317
214.909 66.1902 24.4534
208.829 103.244 25.7115
204.951 142.577 27.3048
174.127 47.5033 19.5311
167.144 81.7748 20.5745
161.586 117.524 21.8381
127.513 30.8448 14.2533
120.879 58.3338 14.9984
114.972 86.5898 15.857
77.9367 17.6151 8.7308
73.2021 34.9777 9.15386
68.9627 52.8445 9.64195
25.0988 8.04974 3.05827
23.6546 11.7324 3.12131
24.1843 17.2388 3.40269
0.0897465 0.0829201 0.0120862
273.243 220.989 38.5136
270.399 192.257 36.2273
266.411 205.092 36.6846
263.23 220.927 37.4872
259.461 171.396 33.9665
244.817 187.761 33.8041
232.383 207.18 34.0385
238.245 146.6 30.4403
220.107 169.174 30.4254
203.311 193.918 30.681
207.882 119.174 26.0698
190.36 146.706 26.4594
175.936 178.154 27.3791
170.853 91.6084 21.0024
155.228 119.508 21.5908
141.723 150.075 22.5433
126.285 63.6158 15.3823
113.6 87.0854 15.927
101.979 111.906 16.6556
77.1616 37.5534 9.38808
68.9132 52.7561 9.74513
61.268 68.693 10.1934
23.5215 13.9181 3.16899
21.2356 17.0022 3.20565
21.3037 22.7326 3.55466
0.138439 0.162891 0.0219102
192.336 261.009 35.5175
194.589 243.624 34.0369
189.835 250.682 34.2749
188.542 260.956 35.1023
184.915 205.251 30.2172
178.582 231.259 32.0304
173.701 258.217 34.0303
179.71 185.766 28.2096
166.963 215.75 29.9513
157.053 250.623 32.3267
172.924 174.305 26.8288
151.239 196.293 27.3374
134.074 226.139 28.8326
150.318 146.7 22.8918
127.482 165.523 23.0718
107.192 188.847 23.8184
114.83 108.193 17.2798
95.2034 123.143 17.3398
76.6172 139.976 17.6369
71.0588 65.4456 10.6364
58.149 75.0171 10.6595
45.6413 85.3517 10.7676
20.6373 21.5667 3.45074
17.1252 22.8234 3.35368
15.7524 27.9494 3.67125
0.174204 0.306135 0.0374207
144.304 308.723 37.3408
150.772 284.707 35.1682
143.409 293.513 35.6261
136.076 307.175 36.647
149.604 264.607 33.2291
131.76 274.673 33.3823
114.875 288.474 33.9557
146.041 251.837 31.7907
119.075 254.309 30.7898
92.7424 261.856 30.3347
133.213 220.697 28.2201
103.355 223.943 27.1681
74.4498 231.981 26.6365
113.144 179.081 23.1539
84.625 183.793 22.3135
56.6699 191.383 21.7878
85.8124 129.4 17.0668
62.3189 134.513 16.5023
39.0505 140.827 16.0694
53.2128 77.4164 10.3831
38.0576 81.3118 10.0825
22.9946 85.7711 9.83266
15.3883 24.9731 3.39857
11.739 24.9947 3.25135
8.73832 28.5753 3.41844
0.0499477 0.250978 0.0261481
34.7932 328.076 36.1442
50.2999 310.95 34.389
39.8254 316.364 34.7675
29.3157 326.822 35.7778
64.1515 271.194 30.4905
42.0528 291.578 32.3292
20.3216 316.015 34.6185
70.713 237.441 27.0402
41.7078 262.299 29.2222
12.9942 289.663 31.7036
71.1895 217.65 25.0058
38.8451 230.831 25.9111
6.9672 250.855 27.5724
64.5353 182.245 21.021
33.4212 191.045 21.5041
2.56255 203.72 22.4175
51.1135 135.199 15.7743
25.3729 140.937 16.0311
-0.286409 148.294 16.4671
32.0571 82.8146 9.7428
15.4118 86.0193 9.86715
-1.209 89.9041 10.0555
7.53471 27.351 3.29523
3.59857 27.3061 3.25043
0.0204056 30.4925 3.50114
0.0288634 0.245012 0.0267634
-62.559 326.51 36.4243
-44.3314 310.48 34.2353
-54.6404 314.454 34.7986
-65.3297 321.551 35.7822
-23.1456 267.518 29.3331
-46.1192 280.07 31.0984
-69.5975 294.958 33.1322
-7.8253 229.248 24.9105
-39.1755 245.622 27.2649
-71.5401 264.263 29.8931
2.88581 190.973 20.6828
-32.3062 208.738 23.2691
-68.894 230.631 26.3217
8.78538 152.667 16.4218
-25.1938 168.41 18.7783
-60.1608 187.116 21.4711
10.2517 111.521 12.0599
-17.7528 122.829 13.8344
-46.3017 135.826 15.8003
7.1773 69.0361 7.52553
-10.828 75.3242 8.56858
-29.1363 82.5721 9.70942
-0.500995 24.3024 2.83538
-4.57709 25.6894 3.08316
-9.42826 29.1232 3.49565
-0.043757 0.104225 0.0109818
-139.029 285.418 34.7797
-125.133 282.163 33.6927
-132.185 279.843 33.7295
-139.58 281.507 34.2562
-93.9696 253.113 29.5346
-116.469 258.889 31.1005
-139.181 266.869 32.8986
-70.5928 224.554 25.6861
-101.83 235.328 28.1237
-135.226 251.457 31.1992
-50.3936 192.348 21.686
-85.2382 203.643 24.3549
-121.926 219.452 27.5613
-34.1418 156.858 17.3902
-67.4291 165.684 19.7683
-102 177.676 22.524
-21.1203 116.032 12.814
-48.3134 121.311 14.5844
-76.208 128.365 16.5646
-12.1169 71.8325 7.96176
-29.4838 74.119 8.99603
-47.2497 77.426 10.139
-7.07785 23.7673 2.90161
-10.9544 24.1105 3.13012
-15.9367 26.9503 3.59143
-0.0608187 0.129469 0.015106
-186.517 277.951 36.6705
-166.623 270.958 34.7196
-176.516 269.473 35.1206
-190.589 269.947 36.0464
-142.569 251.366 31.5967
-166.465 244.305 32.4454
-192.282 238.674 33.5567
-131.04 239.272 29.7975
-156.725 220.956 29.7963
-187.477 204.945 30.3519
-111.243 212.707 26.3013
-139.851 192.738 26.3414
-173.096 176.033 26.981
-87.5376 176.406 21.5555
-115.451 158.078 21.6919
-146.32 141.767 22.2085
-61.298 130.974 15.9313
-84.5304 116.293 16.0917
-109.169 102.502 16.4288
-35.8458 80.3848 9.75169
-50.8844 71.0854 9.87266
-66.6689 62.1641 10.0688
-12.5154 25.272 3.26726
-15.355 22.7246 3.23558
-21.395 22.0622 3.51306
-0.202839 0.148827 0.0253432
-262.544 211.67 36.9467
-237.965 208.018 34.4988
-248.815 205.774 35.1998
-263.514 205.142 36.4211
-199.825 187.326 29.9485
-228.017 187.509 32.3337
-258.466 189.286 35.0261
-177.401 175.892 27.2672
-209.513 171.297 29.6623
-245.541 169.124 32.5733
-164.824 167.604 25.6929
-188.212 153.01 26.7054
-218.613 142.937 28.6252
-137.728 145.125 21.8183
-157.465 128.032 22.3631
-181.138 113.482 23.4221
-101.023 110.872 16.4487
-116.554 95.3064 16.741
-133.688 80.8216 17.2483
-60.9637 68.9634 10.1511
-70.8538 58.3613 10.2941
-81.4023 48.2026 10.5157
-20.3897 20.6998 3.36167
-21.7689 17.8219 3.30544
-26.6892 16.8455 3.61317
-0.271261 0.149748 0.0322402
-286.464 176.388 36.8525
-267.593 176.734 34.9975
-274.205 173.076 35.342
-285.399 173.258 36.4085
-252.002 172.034 33.3534
-263.357 166.046 34.054
-279.213 163.36 35.3638
-240.719 167.032 32.0001
-247.213 154.571 31.8882
-260.334 145.813 32.6058
-210.953 151.886 28.471
-217.743 135.803 28.1916
-228.951 122.361 28.4774
-170.763 128.674 23.3936
-178.113 111.526 23.1158
-188.057 96.0633 23.1805
-122.87 97.3256 17.2521
-129.882 81.9767 17.0506
-137.943 67.4785 16.9985
-73.1018 60.1796 10.4819
-78.1478 49.6861 10.3719
-83.7244 39.691 10.3304
-23.4283 17.4308 3.38771
-23.6448 14.7192 3.27427
-27.5486 13.7931 3.53583
-0.24542 0.0960121 0.0272982
-324.9 142.276 38.865
-297.618 149.657 36.3681
-307.491 141.678 36.9318
-320.728 132.363 37.8505
-274.514 146.254 33.9835
-284.781 128.377 34.2185
-299.824 110.857 34.9487
-242.467 137.731 30.381
-257.395 115.211 30.9028
-277.091 93.7435 31.9538
-203.23 123.516 25.9349
-220.212 98.8904 26.5867
-240.775 75.1047 27.6419
-160.748 104.226 20.8237
-177.022 80.2301 21.4411
-195.614 56.8022 22.3237
-114.696 78.9911 15.2106
-127.943 58.7333 15.6884
-142.324 38.7803 16.2982
-68.7067 49.0892 9.27454
-77.1038 35.7463 9.56011
-86.2127 22.6026 9.9176
-23.1945 14.161 3.15208
-24.5265 10.9987 3.16995
-28.9824 8.51614 3.46421
-0.164761 0.0311518 0.016999
-308.275 74.958 34.7579
-299.594 83.293 33.9395
-300.452 76.5334 33.7903
-306.457 72.2331 34.3296
-281.96 89.6195 32.3463
-289.373 75.1269 32.7267
-299.882 62.014 33.4768
-269.36 90.2619 31.0209
-274.328 70.8292 31.0241
-287.537 52.821 31.9424
-237.914 85.3754 27.6651
-244.217 63.0554 27.7498
-256.507 41.8571 28.5038
-194.764 75.0019 22.8006
-201.491 52.5315 22.9401
-211.973 30.8331 23.5039
-142.016 58.6002 16.874
-148.001 39.175 17.0223
-155.71 20.1816 17.3681
-85.514 36.9659 10.2882
-89.5582 23.9688 10.3973
-94.4694 11.2182 10.5956
-27.1035 9.8838 3.34544
-27.1367 6.85933 3.29057
-31.3831 4.4078 3.62968
-0.284439 0.0292311 0.0300651
-344.664 -17.8586 38.0118
-319.253 34.1833 35.258
-327.532 5.07685 36.0434
-341.141 -32.8295 37.4665
-294.384 47.8355 32.6177
-308.186 5.7145 34.0739
-327.846 -41.6902 36.1443
-279.789 49.8318 30.9795
-285.931 4.04315 31.6247
-299.785 -44.8482 33.1126
-246.927 48.6473 27.4138
-250.215 3.38047 27.8045
-258.62 -43.5868 28.7574
-202.632 43.6926 22.4666
-204.201 3.02645 22.7173
-208.85 -38.6394 23.3079
-148.491 34.4043 16.5668
-149.029 2.31439 16.7265
-150.965 -30.31 17.0391
-89.9339 21.0056 10.0904
-89.9743 0.895799 10.1784
-90.7929 -19.4508 10.3405
-28.3086 3.20139 3.30834
-27.4922 -1.4854 3.24944
-30.4565 -6.29568 3.54783
-0.226334 -0.0148861 0.0246882
-335.854 -80.1538 37.8583
-329.584 -53.8068 36.475
-327.279 -67.5506 36.4816
-327.307 -83.0566 36.8403
-316.382 -41.1682 34.8389
-306.479 -59.7276 34.1882
-300.237 -80.4207 33.9752
-288.854 -28.065 31.5398
-278.086 -51.7197 30.9311
-269.601 -76.1085 30.582
-249.708 -16.1185 27.15
-241.792 -42.6883 26.9217
-238.48 -70.0799 27.1851
-202.984 -7.07856 21.9152
-197.594 -33.3241 21.9634
-195.339 -60.0667 22.3466
-148.233 -1.3241 16.038
-144.531 -23.5777 16.1876
-142.372 -46.033 16.5005
-89.6896 0.243502 9.75529
-87.4476 -14.4177 9.88508
-86.0671 -29.1511 10.0943
-27.8944 -2.72627 3.24442
-26.7375 -5.96245 3.21875
-29.1922 -9.71009 3.51282
-0.219067 -0.0439968 0.0229089
3 0 1 2
3 0 2 3
3 1 4 5
3 1 5 2
3 2 5 3
3 3 5 6
3 4 7 8
3 4 8 5
3 5 8 6
3 6 8 9
3 7 10 11
3 7 11 8
3 8 11 9
3 9 11 12
3 10 13 14
3 10 14 11
3 11 14 12
3 12 14 15
3 13 16 17
3 13 17 14
3 14 17 15
3 15 17 18
3 16 19 20
3 16 20 17
3 17 20 18
3 18 20 21
3 19 22 23
3 19 23 20
3 20 23 21
3 21 23 24
3 25 23 22
3 25 24 23
3 26 27 28
3 26 28 29
3 27 30 31
3 27 31 28
3 28 31 29
3 29 31 32
3 30 33 34
3 30 34 31
3 31 34 32
3 32 34 35
3 33 36 37
3 33 37 34
3 34 37 35
3 35 37 38
3 36 39 40
3 36 40 37
3 37 40 38
3 38 40 41
3 39 42 43
3 39 43 40
3 40 43 41
3 41 43 44
3 42 45 46
3 42 46 43
3 43 46 44
3 44 46 47
3 45 48 49
3 45 49 46
3 46 49 47
3 47 49 50
3 51 49 48
3 51 50 49
3 52 53 54
3 52 54 55
3 53 56 57
3 53 57 54
3 54 57 55
3 55 57 58
3 56 59 60
3 56 60 57
3 57 60 58
3 58 60 61
3 59 62 63
3 59 63 60
3 60 63 61
3 61 63 64
3 62 65 66
3 62 66 63
3 63 66 64
3 64 66 67
3 65 68 69
3 65 69 66
3 66 69 67
3 67 69 70
3 68 71 72
3 68 72 69
3 69 72 70
3 70 72 73
3 71 74 75
3 71 75 72
3 72 75 73
3 73 75 76
3 77 75 74
3 77 76 75
3 78 79 80
3 78 80 81
3 79 82 83
3 79 83 80
3 80 83 81
3 81 83 84
3 82 85 86
3 82 86 83
3 83 86 84
3 84 86 87
3 85 88 89
3 85 89 86
3 86 89 87
3 87 89 90
3 88 91 92
3 88 92 89
3 89 92 90
3 90 92 93
3 91 94 95
3 91 95 92
3 92 95 93
3 93 95 96
3 94 97 98
3 94 98 95
3 95 98 96
3 96 98 99
3 97 100 101
3 97 101 98
3 98 101 99
3 99 101 102
3 103 101 100
3 103 102 101
3 104 105 106
3 104 106 107
3 105 108 109
3 105 109 106
3 106 109 107
3 107 109 110
3 108 111 112
3 108 112 109
3 109 112 110
3 110 112 113
3 111 114 115
3 111 115 112
3 112 115 113
3 113 115 116
3 114 117 118
3 114 118 115
3 115 118 116
3 116 118 119
3 117 120 121
3 117 121 118
3 118 121 119
3 119 121 122
3 120 123 124
3 120 124 121
3 121 124 122
3 122 124 125
3 123 126 127
3 123 127 124
3 124 127 125
3 125 127 128
3 129 127 126
3 129 128 127
3 130 131 132
3 130 132 133
3 131 134 135
3 131 135 132
3 132 135 133
3 133 135 136
3 134 137 138
3 134 138 135
3 135 138 136
3 136 138 139
3 137 140 141
3 137 141 138
3 138 141 139
3 139 141 142
3 140 143 144
3 140 144 141
3 141 144 142
3 142 144 145
3 143 146 147
3 143 147 144
3 144 147 145
3 145 147 148
3 146 149 150
3 146 150 147
3 147 150 148
3 148 150 151
3 149 152 153
3 149 153 150
3 150 153 151
3 151 153 154
3 155 153 152
3 155 154 153
3 156 157 158
3 156 158 159
3 157 160 161
3 157 161 158
3 158 161 159
3 159 161 162
3 160 163 164
3 160 164 161
3 161 164 162
3 162 164 165
3 163 166 167
3 163 167 164
3 164 167 165
3 165 167 168
3 166 169 170
3 166 170 167
3 167 170 168
3 168 170 171
3 169 172 173
3 169 173 170
3 170 173 171
3 171 173 174
3 172 175 176
3 172 176 173
3 173 176 174
3 174 176 177
3 175 178 179
3 175 179 176
3 176 179 177
3 177 179 180
3 181 179 178
3 181 180 179
3 182 183 184
3 182 184 185
3 183 186 187
3 183 187 184
3 184 187 185
3 185 187 188
3 186 189 190
3 186 190 187
3 187 190 188
3 188 190 191
3 189 192 193
3 189 193 190
3 190 193 191
3 191 193 194
3 192 195 196
3 192 196 193
3 193 196 194
3 194 196 197
3 195 198 199
3 195 199 196
3 196 199 197
3 197 199 200
3 198 201 202
3 198 202 199
3 199 202 200
3 200 202 203
3 201 204 205
3 201 205 202
3 202 205 203
3 203 205 206
3 207 205 204
3 207 206 205
3 208 209 210
3 208 210 211
3 209 212 213
3 209 213 210
3 210 213 211
3 211 213 214
3 212 215 216
3 212 216 213
3 213 216 214
3 214 216 217
3 215 218 219
3 215 219 216
3 216 219 217
3 217 219 220
3 218 221 222
3 218 222 219
3 219 222 220
3 220 222 223
3 221 224 225
3 221 225 222
3 222 225 223
3 223 225 226
3 224 227 228
3 224 228 225
3 225 228 226
3 226 228 229
3 227 230 231
3 227 231 228
3 228 231 229
3 229 231 232
3 233 231 230
3 233 232 231
3 234 235 236
3 234 236 237
3 235 238 239
3 235 239 236
3 236 239 237
3 237 239 240
3 238 241 242
3 238 242 239
3 239 242 240
3 240 242 243
3 241 244 245
3 241 245 242
3 242 245 243
3 243 245 246
3 244 247 248
3 244 248 245
3 245 248 246
3 246 248 249
3 247 250 251
3 247 251 248
3 248 251 249
3 249 251 252
3 250 253 254
3 250 254 251
3 251 254 252
3 252 254 255
3 253 256 257
3 253 257 254
3 254 257 255
3 255 257 258
3 259 257 256
3 259 258 257
3 260 261 262
3 260 262 263
3 261 264 265
3 261 265 262
3 262 265 263
3 263 265 266
3 264 267 268
3 264 268 265
3 265 268 266
3 266 268 269
3 267 270 271
3 267 271 268
3 268 271 269
3 269 271 272
3 270 273 274
3 270 274 271
3 271 274 272
3 272 274 275
3 273 276 277
3 273 277 274
3 274 277 275
3 275 277 278
3 276 279 280
3 276 280 277
3 277 280 278
3 278 280 281
3 279 282 283
3 279 283 280
3 280 283 281
3 281 283 284
3 285 283 282
3 285 284 283
3 286 287 288
3 286 288 289
3 287 290 291
3 287 291 288
3 288 291 289
3 289 291 292
3 290 293 294
3 290 294 291
3 291 294 292
3 292 294 295
3 293 296 297
3 293 297 294
3 294 297 295
3 295 297 298
3 296 299 300
3 296 300 297
3 297 300 298
3 298 300 301
3 299 302 303
3 299 303 300
3 300 303 301
3 301 303 304
3 302 305 306
3 302 306 303
3 303 306 304
3 304 306 307
3 305 308 309
3 305 309 306
3 306 309 307
3 307 309 310
3 311 309 308
3 311 310 309
3 312 313 314
3 312 314 315
3 313 316 317
3 313 317 314
3 314 317 315
3 315 317 318
3 316 319 320
3 316 320 317
3 317 320 318
3 318 320 321
3 319 322 323
3 319 323 320
3 320 323 321
3 321 323 324
3 322 325 326
3 322 326 323
3 323 326 324
3 324 326 327
3 325 328 329
3 325 329 326
3 326 329 327
3 327 329 330
3 328 331 332
3 328 332 329
3 329 332 330
3 330 332 333
3 331 334 335
3 331 335 332
3 332 335 333
3 333 335 336
3 337 335 334
3 337 336 335
3 338 339 340
3 338 340 341
3 339 342 343
3 339 343 340
3 340 343 341
3 341 343 344
3 342 345 346
3 342 346 343
3 343 346 344
3 344 346 347
3 345 348 349
3 345 349 346
3 346 349 347
3 347 349 350
3 348 351 352
3 348 352 349
3 349 352 350
3 350 352 353
3 351 354 355
3 351 355 352
3 352 355 353
3 353 355 356
3 354 357 358
3 354 358 355
3 355 358 356
3 356 358 359
3 357 360 361
3 357 361 358
3 358 361 359
3 359 361 362
3 363 361 360
3 363 362 361
3 364 365 366
3 364 366 367
3 365 368 369
3 365 369 366
3 366 369 367
3 367 369 370
3 368 371 372
3 368 372 369
3 369 372 370
3 370 372 373
3 371 374 375
3 371 375 372
3 372 375 373
3 373 375 376
3 374 377 378
3 374 378 375
3 375 378 376
3 376 378 379
3 377 380 381
3 377 381 378
3 378 381 379
3 379 381 382
3 380 383 384
3 380 384 381
3 381 384 382
3 382 384 385
3 383 386 387
3 383 387 384
3 384 387 385
3 385 387 388
3 389 387 386
3 389 388 387
3 390 391 392
3 390 392 393
3 391 394 395
3 391 395 392
3 392 395 393
3 393 395 396
3 394 397 398
3 394 398 395
3 395 398 396
3 396 398 399
3 397 400 401
3 397 401 398
3 398 401 399
3 399 401 402
3 400 403 404
3 400 404 401
3 401 404 402
3 402 404 405
3 403 406 407
3 403 407 404
3 404 407 405
3 405 407 408
3 406 409 410
3 406 410 407
3 407 410 408
3 408 410 411
3 409 412 413
3 409 413 410
3 410 413 411
3 411 413 414
3 415 413 412
3 415 414 413
3 416 417 418
3 416 418 419
3 417 420 421
3 417 421 418
3 418 421 419
3 419 421 422
3 420 423 424
3 420 424 421
3 421 424 422
3 422 424 425
3 423 426 427
3 423 427 424
3 424 427 425
3 425 427 428
3 426 429 430
3 426 430 427
3 427 430 428
3 428 430 431
3 429 432 433
3 429 433 430
3 430 433 431
3 431 433 434
3 432 435 436
3 432 436 433
3 433 436 434
3 434 436 437
3 435 438 439
3 435 439 436
3 436 439 437
3 437 439 440
3 441 439 438
3 441 440 439
3 442 443 444
3 442 444 445
3 443 446 447
3 443 447 444
3 444 447 445
3 445 447 448
3 446 449 450
3 446 450 447
3 447 450 448
3 448 450 451
3 449 452 453
3 449 453 450
3 450 453 451
3 451 453 454
3 452 455 456
3 452 456 453
3 453 456 454
3 454 456 457
3 455 458 459
3 455 459 456
3 456 459 457
3 457 459 460
3 458 461 462
3 458 462 459
3 459 462 460
3 460 462 463
3 461 464 465
3 461 465 462
3 462 465 463
3 463 465 466
3 467 465 464
3 467 466 465
3 468 469 470
3 468 470 471
3 469 472 473
3 469 473 470
3 470 473 471
3 471 473 474
3 472 475 476
3 472 476 473
3 473 476 474
3 474 476 477
3 475 478 479
3 475 479 476
3 476 479 477
3 477 479 480
3 478 481 482
3 478 482 479
3 479 482 480
3 480 482 483
3 481 484 485
3 481 485 482
3 482 485 483
3 483 485 486
3 484 487 488
3 484 488 485
3 485 488 486
3 486 488 489
3 487 490 491
3 487 491 488
3 488 491 489
3 489 491 492
3 493 491 490
3 493 492 491
3 494 495 496
3 494 496 497
3 495 498 499
3 495 499 496
3 496 499 497
3 497 499 500
3 498 501 502
3 498 502 499
3 499 502 500
3 500 502 503
3 501 504 505
3 501 505 502
3 502 505 503
3 503 505 506
3 504 507 508
3 504 508 505
3 505 508 506
3 506 508 509
3 507 510 511
3 507 511 508
3 508 511 509
3 509 511 512
3 510 513 514
3 510 514 511
3 511 514 512
3 512 514 515
3 513 516 517
3 513 517 514
3 514 517 515
3 515 517 518
3 519 517 516
3 519 518 517
3 520 521 522
3 520 522 523
3 521 524 525
3 521 525 522
3 522 525 523
3 523 525 526
3 524 527 528
3 524 528 525
3 525 528 526
3 526 528 529
3 527 530 531
3 527 531 528
3 528 531 529
3 529 531 532
3 530 533 534
3 530 534 531
3 531 534 532
3 532 534 535
3 533 536 537
3 533 537 534
3 534 537 535
3 535 537 538
3 536 539 540
3 536 540 537
3 537 540 538
3 538 540 541
3 539 542 543
3 539 543 540
3 540 543 541
3 541 543 544
3 545 543 542
3 545 544 543
3 546 547 548
3 546 548 549
3 547 550 551
3 547 551 548
3 548 551 549
3 549 551 552
3 550 553 554
3 550 554 551
3 551 554 552
3 552 554 555
3 553 556 557
3 553 557 554
3 554 557 555
3 555 557 558
3 556 559 560
3 556 560 557
3 557 560 558
3 558 560 561
3 559 562 563
3 559 563 560
3 560 563 561
3 561 563 564
3 562 565 566
3 562 566 563
3 563 566 564
3 564 566 567
3 565 568 569
3 565 569 566
3 566 569 567
3 567 569 570
3 571 569 568
3 571 570 569
3 572 573 574
3 572 574 575
3 573 576 577
3 573 577 574
3 574 577 575
3 575 577 578
3 576 579 580
3 576 580 577
3 577 580 578
3 578 580 581
3 579 582 583
3 579 583 580
3 580 583 581
3 581 583 584
3 582 585 586
3 582 586 583
3 583 586 584
3 584 586 587
3 585 588 589
3 585 589 586
3 586 589 587
3 587 589 590
3 588 591 592
3 588 592 589
3 589 592 590
3 590 592 593
3 591 594 595
3 591 595 592
3 592 595 593
3 593 595 596
3 597 595 594
3 597 596 595
3 598 599 600
3 598 600 601
3 599 602 603
3 599 603 600
3 600 603 601
3 601 603 604
3 602 605 606
3 602 606 603
3 603 606 604
3 604 606 607
3 605 608 609
3 605 609 606
3 606 609 607
3 607 609 610
3 608 611 612
3 608 612 609
3 609 612 610
3 610 612 613
3 611 614 615
3 611 615 612
3 612 615 613
3 613 615 616
3 614 617 618
3 614 618 615
3 615 618 616
3 616 618 619
3 617 620 621
3 617 621 618
3 618 621 619
3 619 621 622
3 623 621 620
3 623 622 621
3 624 625 626
3 624 626 627
3 625 628 629
3 625 629 626
3 626 629 627
3 627 629 630
3 628 631 632
3 628 632 629
3 629 632 630
3 630 632 633
3 631 634 635
3 631 635 632
3 632 635 633
3 633 635 636
3 634 637 638
3 634 638 635
3 635 638 636
3 636 638 639
3 637 640 641
3 637 641 638
3 638 641 639
3 639 641 642
3 640 643 644
3 640 644 641
3 641 644 642
3 642 644 645
3 643 646 647
3 643 647 644
3 644 647 645
3 645 647 648
3 649 647 646
3 649 648 647
3 650 651 652
3 650 652 653
3 651 654 655
3 651 655 652
3 652 655 653
3 653 655 656
3 654 657 658
3 654 658 655
3 655 658 656
3 656 658 659
3 657 660 661
3 657 661 658
3 658 661 659
3 659 661 662
3 660 663 664
3 660 664 661
3 661 664 662
3 662 664 665
3 663 666 667
3 663 667 664
3 664 667 665
3 665 667 668
3 666 669 670
3 666 670 667
3 667 670 668
3 668 670 671
3 669 672 673
3 669 673 670
3 670 673 671
3 671 673 674
3 675 673 672
3 675 674 673
3 676 677 678
3 676 678 679
3 677 680 681
3 677 681 678
3 678 681 679
3 679 681 682
3 680 683 684
3 680 684 681
3 681 684 682
3 682 684 685
3 683 686 687
3 683 687 684
3 684 687 685
3 685 687 688
3 686 689 690
3 686 690 687
3 687 690 688
3 688 690 691
3 689 692 693
3 689 693 690
3 690 693 691
3 691 693 694
3 692 695 696
3 692 696 693
3 693 696 694
3 694 696 697
3 695 698 699
3 695 699 696
3 696 699 697
3 697 699 700
3 701 699 698
3 701 700 699
