ply
format ascii 1.0
element vertex 310
property float x
property float y
property float z
element face 400
property list uchar int vertex_indices
end_header
77.8405 136.69 96.7903
64.4939 141.285 95.7136
81.8814 130.927 95.7543
101.717 115.972 95.6821
49.8211 139.175 91.0249
79.1562 119.774 90.8167
111.672 96.3187 91.0733
36.9419 134.515 86.1608
74.514 109.383 85.951
112.241 82.7913 86.058
29.707 128.543 81.0431
69.8512 102.085 80.978
108.406 74.8898 80.9899
24.5116 121.077 75.9368
64.5584 94.4106 75.9747
103.08 67.7246 75.9403
20.4231 113.256 70.9727
59.4505 87.0264 70.9896
97.3758 61.6561 71.0465
17.2164 106.006 66.0188
55.0308 80.4918 66.0163
91.8185 56.5194 66.1711
14.3301 97.9154 61.0661
50.2082 72.8901 61.0219
85.5947 49.3659 61.0191
11.9493 90.1078 56.0119
45.9738 65.8314 56.0049
80.5792 40.4136 55.7497
9.49629 81.8297 50.935
41.6197 58.83 51.019
75.1249 33.6128 50.8964
6.79065 74.2968 45.8769
37.4886 53.16 46.0836
68.5554 30.3545 46.006
3.79889 66.7149 41.1222
32.4916 47.2292 41.2194
60.5621 28.0663 41.0809
1.16953 60.1039 37.0031
27.4596 41.4974 36.4284
52.6149 25.153 36.0645
-0.315636 53.0384 32.4903
23.2068 36.1751 31.6231
45.6664 21.5556 31.0833
-1.04538 44.8223 27.6958
19.2096 30.2299 26.7445
38.5511 17.2942 25.999
-1.11591 35.7182 22.6719
15.4736 23.6941 21.7909
31.4755 12.8518 20.9721
-0.628821 25.9868 17.4642
11.9428 16.6655 16.8012
24.4648 7.74633 16.1727
0.13445 17.3223 12.1345
8.94085 10.3792 11.784
18.2604 2.56235 11.6243
1.33364 7.19461 6.63017
4.774 4.09805 6.58693
8.18872 1.06405 6.5426
2.13768 -0.118847 1.07351
0.171579 0.528846 1.11417
-2.01218 1.61268 1.12566
0.0134808 -0.025325 0.00423813
141.261 -49.8783 91.759
144.568 -42.3947 92.3429
138.715 -52.0711 91.1897
137.654 -63.6722 93.1061
141.097 -34.4312 89.3855
133.196 -49.6895 88.4615
128.744 -67.9254 89.6997
137.569 -16.6586 85.9294
125.161 -45.5606 84.9352
114.988 -77.1829 85.7405
131.741 -1.22399 81.2911
117.863 -41.1194 80.596
104.693 -80.0991 81.0746
123.325 9.81222 76.1824
109.25 -35.7088 75.8808
95.4064 -78.6309 76.0916
114.303 16.0912 70.9916
100.612 -30.5823 70.9409
87.0927 -75.0338 70.8798
105.44 20.3547 65.817
92.9607 -26.3629 65.9469
80.2892 -71.0349 65.8401
95.554 24.094 60.7393
84.4302 -22.0486 60.9969
73.0014 -66.4107 60.8244
86.6585 26.6149 55.8947
76.9521 -18.4779 56.1311
66.5427 -61.5753 55.8376
78.2292 28.0936 51.2666
69.632 -15.2318 51.389
60.6112 -56.5286 51.0885
72.0463 28.1258 47.2195
63.3727 -12.7322 46.7356
55.2088 -51.9015 46.525
64.4636 27.3331 42.8905
56.2007 -10.2254 42.1296
48.7132 -46.4384 41.8558
56.4311 25.6659 38.2793
48.87 -8.00037 37.4205
42.098 -40.5857 37.0704
49.0392 23.4195 33.3916
42.2637 -6.31497 32.5537
36.1774 -35.1629 32.1614
41.2882 20.471 28.2849
35.4537 -4.82677 27.5472
30.1482 -29.4537 27.1505
33.2016 16.8459 23.0015
28.4573 -3.50308 22.4103
24.0705 -23.4053 22.0495
24.8036 12.5709 17.5812
21.3058 -2.30149 17.1615
17.9991 -16.9701 16.8698
17.3868 8.41488 12.1223
15.0327 -1.43851 11.8546
12.8054 -11.0967 11.6631
8.47522 3.10087 6.53156
7.67398 -0.353394 6.4429
6.88178 -3.78326 6.36062
0.428698 -1.75624 1.04926
1.29328 0.539015 1.02746
2.29131 3.12315 1.05039
0.00125047 0.00143824 0.000754922
43.4722 -149.505 95.7127
50.2091 -145.466 94.807
40.5944 -147.94 94.7155
31.6963 -150.717 94.9356
56.2698 -135.798 90.5754
37.8613 -139.704 90.1987
17.9856 -146.637 91.224
63.9115 -123.309 85.87
33.8514 -130.381 85.672
1.04084 -139.435 86.23
67.9282 -112.789 80.9703
31.0252 -122.235 80.8223
-7.46408 -131.729 81.0133
69.0332 -102.16 75.9488
28.5611 -112.828 75.8799
-11.9443 -122.896 75.9742
68.1664 -92.6255 70.9475
26.4837 -103.518 70.9007
-14.6641 -114.153 70.9533
66.5155 -84.1195 65.8564
24.7329 -95.3201 65.9054
-16.1721 -106.056 65.89
64.0115 -74.9651 60.7556
22.7034 -86.1956 60.9193
-17.3529 -97.3139 60.8952
60.9293 -67.1221 55.8334
20.7762 -78.1125 55.9708
-18.1286 -89.1672 55.9595
57.3238 -59.66 51.1051
18.6545 -70.0052 51.0671
-18.86 -80.4372 50.926
53.6632 -53.0698 46.5576
16.6068 -62.8601 46.1871
-19.8655 -72.0022 45.7939
48.9165 -45.7706 41.8811
14.1824 -54.7774 41.341
-20.7115 -63.0486 40.8248
43.533 -38.7037 37.076
11.8497 -46.8652 36.501
-20.5178 -54.4172 35.9875
38.2845 -32.7071 32.1418
10.0259 -40.1004 31.6389
-18.2371 -47.4469 31.3782
32.5438 -26.8841 27.1044
8.38057 -33.3876 26.7245
-15.6033 -39.9969 26.5849
26.3014 -21.2234 21.9809
6.79263 -26.6244 21.7242
-12.5438 -32.1363 21.6449
19.5493 -15.7149 16.788
5.22647 -19.7793 16.6368
-8.9975 -23.923 16.5912
13.3614 -11.1063 11.5705
3.86825 -13.8453 11.4894
-5.54833 -16.6172 11.4653
5.67894 -5.85828 6.2823
2.3472 -6.8403 6.26418
-0.978218 -7.82164 6.24921
-1.35718 -1.45872 1.02278
1.06703 -0.770319 1.01806
3.58096 -0.0679731 1.03488
0.000746044 -0.000518247 0.000652389
-145.372 -42.9597 92.9709
-140.928 -58.9139 94.1162
-144.3 -40.3549 92.2376
-148.9 -33.9603 93.6005
-130.799 -66.6983 90.9217
-135.793 -45.0419 89.2834
-143.272 -29.6441 89.8463
-113.761 -79.6989 86.245
-125.214 -45.993 85.3362
-137.495 -18.7776 85.7739
-100.758 -84.7571 81.0504
-116.091 -44.7523 80.6999
-131.294 -7.96459 80.9844
-86.8042 -87.0024 75.6954
-105.668 -41.791 75.8148
-123.209 2.4457 75.9588
-73.7359 -88.1246 70.828
-95.374 -38.4014 70.858
-114.384 9.48165 70.8185
-64.6399 -85.7662 65.9818
-86.6188 -35.1784 65.9153
-106.177 14.0176 65.8532
-56.8438 -81.1655 61.0932
-77.4037 -31.3592 60.994
-97.1096 17.6873 60.9282
-49.9379 -76.2524 56.1188
-69.5059 -27.8478 56.0652
-88.4162 20.1788 55.9066
-43.2092 -70.961 51.2356
-61.7293 -24.362 51.1501
-79.574 21.9291 50.9507
-37.1214 -65.3446 46.1259
-55.0335 -21.3029 46.2558
-71.7287 22.9718 46.1959
-31.0701 -59.1419 41.1181
-47.573 -18.0329 41.4138
-63.999 23.4392 42.0486
-24.9493 -52.7039 36.0551
-40.1958 -15.0166 36.5317
-55.7202 22.7268 37.5616
-18.3244 -46.0897 30.3097
-33.6628 -12.5113 31.5024
-48.0416 21.1415 32.7505
-13.2401 -38.9227 24.952
-27.1799 -10.1609 26.3741
-40.0035 18.6561 27.7031
-9.3862 -31.2205 19.8888
-20.9767 -7.96422 21.2372
-31.6987 15.3334 22.4802
-6.4844 -22.9969 15.0381
-15.0965 -5.91635 16.1242
-23.2073 11.2296 17.1356
-4.69974 -15.5314 10.3203
-10.3815 -4.22235 11.0546
-15.7387 7.0543 11.7498
-2.99771 -6.46475 5.72836
-5.02809 -2.4494 6.00509
-7.02138 1.55012 6.27667
-1.09209 1.26003 0.953633
-0.654065 -1.03855 0.992678
-0.0219658 -3.48832 1.04029
0.00286685 0.000324117 -0.000345366
-89.5964 124.606 94.4266
-98.3429 117.085 94.3547
-86.1208 124.85 93.6863
-78.7522 132.738 94.9007
-104.149 103.75 90.7974
-83.9959 116.979 89.9985
-69.1235 130.199 90.8487
-109.503 85.2876 85.9495
-79.5465 107.73 85.7048
-52.371 129.326 86.2915
-110.328 72.4526 81.1862
-74.8754 100.242 80.9466
-41.295 125.562 81.1506
-106.849 62.3822 76.1465
-69.0803 92.2173 76.0349
-32.7158 119.306 76.0548
-100.951 55.8345 71.0791
-63.0519 84.7966 71.0584
-25.9654 112.219 71.0617
-94.9301 51.1924 66.1436
-57.5903 78.6004 66.0717
-20.6496 105.427 65.9969
-87.8507 46.2016 61.1877
-51.4823 71.7821 61.0898
-15.0194 97.7106 60.9278
-81.2422 41.6988 56.1317
-46.134 65.6619 56.1193
-10.4334 90.3523 55.9578
-74.5414 36.9087 51.2911
-40.9953 59.3309 51.1788
-6.68143 82.3398 50.9701
-68.5987 31.8788 46.443
-36.7264 53.6009 46.2633
-4.18548 74.9167 46.0151
-61.8725 26.1477 41.3893
-32.1636 46.9773 41.381
-2.25764 67.0608 41.2762
-54.5656 21.0365 36.3532
-27.8243 40.4444 36.5228
-1.47654 59.7511 36.8527
-47.6723 17.06 31.3291
-24.0631 34.7631 31.6314
-0.960474 52.5469 32.1405
-40.3119 13.5349 26.306
-20.239 29.0041 26.6762
-0.600349 44.5774 27.2218
-32.4798 10.4202 21.2769
-16.3294 23.1343 21.6482
-0.482568 35.9291 22.1419
-24.1745 7.68025 16.237
-12.3474 17.1489 16.5531
-0.682619 26.6765 16.9403
-16.6894 5.61867 11.1954
-8.85492 11.9398 11.418
-1.13054 18.2737 11.6782
-7.53727 3.49522 6.12958
-4.79932 5.74916 6.22188
-2.06941 7.99853 6.31523
0.752397 1.79418 1.00331
-1.30366 0.360808 1.01619
-3.47118 -1.10515 1.04861
-0.0010987 0.00040182 0.000464507
3 0 1 2
3 0 2 3
3 1 4 5
3 1 5 2
3 2 5 3
3 3 5 6
3 4 7 8
3 4 8 5
3 5 8 6
3 6 8 9
3 7 10 11
3 7 11 8
3 8 11 9
3 9 11 12
3 10 13 14
3 10 14 11
3 11 14 12
3 12 14 15
3 13 16 17
3 13 17 14
3 14 17 15
3 15 17 18
3 16 19 20
3 16 20 17
3 17 20 18
3 18 20 21
3 19 22 23
3 19 23 20
3 20 23 21
3 21 23 24
3 22 25 26
3 22 26 23
3 23 26 24
3 24 26 27
3 25 28 29
3 25 29 26
3 26 29 27
3 27 29 30
3 28 31 32
3 28 32 29
3 29 32 30
3 30 32 33
3 31 34 35
3 31 35 32
3 32 35 33
3 33 35 36
3 34 37 38
3 34 38 35
3 35 38 36
3 36 38 39
3 37 40 41
3 37 41 38
3 38 41 39
3 39 41 42
3 40 43 44
3 40 44 41
3 41 44 42
3 42 44 45
3 43 46 47
3 43 47 44
3 44 47 45
3 45 47 48
3 46 49 50
3 46 50 47
3 47 50 48
3 48 50 51
3 49 52 53
3 49 53 50
3 50 53 51
3 51 53 54
3 52 55 56
3 52 56 53
3 53 56 54
3 54 56 57
3 55 58 59
3 55 59 56
3 56 59 57
3 57 59 60
3 61 59 58
3 61 60 59
3 62 63 64
3 62 64 65
3 63 66 67
3 63 67 64
3 64 67 65
3 65 67 68
3 66 69 70
3 66 70 67
3 67 70 68
3 68 70 71
3 69 72 73
3 69 73 70
3 70 73 71
3 71 73 74
3 72 75 76
3 72 76 73
3 73 76 74
3 74 76 77
3 75 78 79
3 75 79 76
3 76 79 77
3 77 79 80
3 78 81 82
3 78 82 79
3 79 82 80
3 80 82 83
3 81 84 85
3 81 85 82
3 82 85 83
3 83 85 86
3 84 87 88
3 84 88 85
3 85 88 86
3 86 88 89
3 87 90 91
3 87 91 88
3 88 91 89
3 89 91 92
3 90 93 94
3 90 94 91
3 91 94 92
3 92 94 95
3 93 96 97
3 93 97 94
3 94 97 95
3 95 97 98
3 96 99 100
3 96 100 97
3 97 100 98
3 98 100 101
3 99 102 103
3 99 103 100
3 100 103 101
3 101 103 104
3 102 105 106
3 102 106 103
3 103 106 104
3 104 106 107
3 105 108 109
3 105 109 106
3 106 109 107
3 107 109 110
3 108 111 112
3 108 112 109
3 109 112 110
3 110 112 113
3 111 114 115
3 111 115 112
3 112 115 113
3 113 115 116
3 114 117 118
3 114 118 115
3 115 118 116
3 116 118 119
3 117 120 121
3 117 121 118
3 118 121 119
3 119 121 122
3 123 121 120
3 123 122 121
3 124 125 126
3 124 126 127
3 125 128 129
3 125 129 126
3 126 129 127
3 127 129 130
3 128 131 132
3 128 132 129
3 129 132 130
3 130 132 133
3 131 134 135
3 131 135 132
3 132 135 133
3 133 135 136
3 134 137 138
3 134 138 135
3 135 138 136
3 136 138 139
3 137 140 141
3 137 141 138
3 138 141 139
3 139 141 142
3 140 143 144
3 140 144 141
3 141 144 142
3 142 144 145
3 143 146 147
3 143 147 144
3 144 147 145
3 145 147 148
3 146 149 150
3 146 150 147
3 147 150 148
3 148 150 151
3 149 152 153
3 149 153 150
3 150 153 151
3 151 153 154
3 152 155 156
3 152 156 153
3 153 156 154
3 154 156 157
3 155 158 159
3 155 159 156
3 156 159 157
3 157 159 160
3 158 161 162
3 158 162 159
3 159 162 160
3 160 162 163
3 161 164 165
3 161 165 162
3 162 165 163
3 163 165 166
3 164 167 168
3 164 168 165
3 165 168 166
3 166 168 169
3 167 170 171
3 167 171 168
3 168 171 169
3 169 171 172
3 170 173 174
3 170 174 171
3 171 174 172
3 172 174 175
3 173 176 177
3 173 177 174
3 174 177 175
3 175 177 178
3 176 179 180
3 176 180 177
3 177 180 178
3 178 180 181
3 179 182 183
3 179 183 180
3 180 183 181
3 181 183 184
3 185 183 182
3 185 184 183
3 186 187 188
3 186 188 189
3 187 190 191
3 187 191 188
3 188 191 189
3 189 191 192
3 190 193 194
3 190 194 191
3 191 194 192
3 192 194 195
3 193 196 197
3 193 197 194
3 194 197 195
3 195 197 198
3 196 199 200
3 196 200 197
3 197 200 198
3 198 200 201
3 199 202 203
3 199 203 200
3 200 203 201
3 201 203 204
3 202 205 206
3 202 206 203
3 203 206 204
3 204 206 207
3 205 208 209
3 205 209 206
3 206 209 207
3 207 209 210
3 208 211 212
3 208 212 209
3 209 212 210
3 210 212 213
3 211 214 215
3 211 215 212
3 212 215 213
3 213 215 216
3 214 217 218
3 214 218 215
3 215 218 216
3 216 218 219
3 217 220 221
3 217 221 218
3 218 221 219
3 219 221 222
3 220 223 224
3 220 224 221
3 221 224 222
3 222 224 225
3 223 226 227
3 223 227 224
3 224 227 225
3 225 227 228
3 226 229 230
3 226 230 227
3 227 230 228
3 228 230 231
3 229 232 233
3 229 233 230
3 230 233 231
3 231 233 234
3 232 235 236
3 232 236 233
3 233 236 234
3 234 236 237
3 235 238 239
3 235 239 236
3 236 239 237
3 237 239 240
3 238 241 242
3 238 242 239
3 239 242 240
3 240 242 243
3 241 244 245
3 241 245 242
3 242 245 243
3 243 245 246
3 247 245 244
3 247 246 245
3 248 249 250
3 248 250 251
3 249 252 253
3 249 253 250
3 250 253 251
3 251 253 254
3 252 255 256
3 252 256 253
3 253 256 254
3 254 256 257
3 255 258 259
3 255 259 256
3 256 259 257
3 257 259 260
3 258 261 262
3 258 262 259
3 259 262 260
3 260 262 263
3 261 264 265
3 261 265 262
3 262 265 263
3 263 265 266
3 264 267 268
3 264 268 265
3 265 268 266
3 266 268 269
3 267 270 271
3 267 271 268
3 268 271 269
3 269 271 272
3 270 273 274
3 270 274 271
3 271 274 272
3 272 274 275
3 273 276 277
3 273 277 274
3 274 277 275
3 275 277 278
3 276 279 280
3 276 280 277
3 277 280 278
3 278 280 281
3 279 282 283
3 279 283 280
3 280 283 281
3 281 283 284
3 282 285 286
3 282 286 283
3 283 286 284
3 284 286 287
3 285 288 289
3 285 289 286
3 286 289 287
3 287 289 290
3 288 291 292
3 288 292 289
3 289 292 290
3 290 292 293
3 291 294 295
3 291 295 292
3 292 295 293
3 293 295 296
3 294 297 298
3 294 298 295
3 295 298 296
3 296 298 299
3 297 300 301
3 297 301 298
3 298 301 299
3 299 301 302
3 300 303 304
3 300 304 301
3 301 304 302
3 302 304 305
3 303 306 307
3 303 307 304
3 304 307 305
3 305 307 308
3 309 307 306
3 309 308 307
