ply
format ascii 1.0
element vertex 325
property float x
property float y
property float z
element face 420
property list uchar int vertex_indices
end_header
116.249 259.992 101.642
87.2665 267.023 100.303
109.355 259.158 100.567
126.12 253.613 101.046
65.4609 261.082 96.1374
99.8355 248.169 96.4711
132.279 238.275 97.3641
51.0831 256.207 93.191
94.3047 236.838 92.555
138.468 220.717 93.0271
39.491 249.89 90.248
89.6981 224.393 88.5195
142.512 202.751 88.4452
28.4098 238.476 85.6942
84.934 210.786 84.1268
143.139 185.848 83.7031
17.9628 224.489 80.3699
79.8486 196.163 79.3744
142.515 169.205 78.9465
8.34954 208.912 74.6203
74.655 180.92 74.4165
141.532 152.679 74.3041
-0.269619 192.687 68.7693
69.4613 165.455 69.3841
139.809 136.387 69.7184
-7.76056 176.749 63.1346
64.2721 150.151 64.3751
137.167 120.196 65.1043
-14.0057 162.074 58.0429
59.0489 135.353 59.456
133.244 104.418 60.3775
-18.8954 149.721 53.8484
53.7332 121.319 54.6493
127.592 90.0147 55.5078
-22.4583 138.186 50.043
48.2831 107.989 49.8891
120.298 76.866 50.5108
-25.3066 124.939 45.4123
43.0711 95.9388 45.0225
112.074 65.7393 45.395
-26.666 110.333 40.4917
37.3675 83.1704 39.9918
101.724 54.844 40.1515
-26.3762 95.3231 35.3246
31.6742 70.6409 34.791
89.9147 44.9396 34.8022
-24.6578 81.0274 29.9613
26.4307 59.2344 29.4545
77.6559 36.6095 29.3792
-21.3003 65.2197 24.3822
20.8574 47.1651 23.9521
63.1175 28.5061 23.8296
-16.4394 48.9554 18.6512
15.3641 35.2843 18.3251
47.2378 21.2257 18.1943
-10.5965 33.4349 12.851
10.3327 24.4076 12.64
31.3049 15.1735 12.5324
-3.49882 17.4914 6.95547
5.3768 13.6392 6.87732
14.2588 9.75977 6.81226
5.31758 -0.452968 1.09902
0.168248 2.02711 1.03845
-4.86626 4.20838 1.12795
0.000107706 -0.00131726 0.000669479
281.871 -30.76 101.057
276.74 -3.37973 98.8527
278.327 -25.0858 99.8064
279.336 -40.8547 100.687
259.397 25.3306 93.3054
261.939 -17.3398 95.1262
266.585 -55.0983 97.2984
242.218 51.1513 88.5
245.969 -12.0177 90.6015
250.741 -70.1644 92.9835
224.431 70.734 84.009
229.246 -8.33461 86.0835
233.635 -82.043 88.3815
207.189 82.041 79.49
212.361 -6.3628 81.5585
216.444 -91.1717 83.823
190.819 87.7627 74.9313
195.655 -5.82488 77.0178
198.695 -98.7323 79.1979
175.2 90.7558 70.4237
179.302 -6.03618 72.468
180.94 -104.367 74.5542
159.933 92.1634 65.9045
163.448 -6.35046 67.9208
163.589 -106.824 69.7103
145.465 92.5718 61.5556
148.253 -6.46934 63.4096
147.967 -105.957 64.9337
134.761 92.1382 58.2307
133.764 -6.5152 58.9707
131.731 -105.391 60.2099
123.392 90.1992 54.4041
119.707 -6.65309 54.5148
115.937 -103.261 55.4437
111.523 86.7507 50.1657
105.76 -6.95499 49.9195
98.14 -102.34 50.594
100.17 82.1626 45.5329
93.01 -7.22456 45.1201
83.52 -98.768 45.5705
87.664 75.7983 40.6101
79.7302 -7.21504 40.1307
69.5494 -92.2602 40.384
74.9984 67.958 35.4387
66.9658 -6.8572 34.9489
56.9669 -83.3915 35.0594
63.1611 59.3389 30.0681
55.6059 -6.20308 29.6139
46.4379 -73.0875 29.6329
50.3719 48.6767 24.4768
43.842 -5.19187 24.0984
36.1311 -59.984 24.0561
37.6026 36.5648 18.7291
32.5104 -3.94166 18.4465
26.6553 -45.0133 18.3766
25.7868 23.9971 12.9091
22.3556 -2.60679 12.7289
18.5122 -29.4978 12.661
14.0176 10.1808 6.98981
12.4738 -1.16248 6.92679
10.8746 -12.5546 6.87818
1.07721 -5.01106 1.1033
1.85412 0.373837 1.0421
1.99171 5.51406 1.13946
-0.00244331 -0.00212786 0.000738859
31.1376 -289.389 103.82
54.5444 -279.761 101.733
35.5157 -284.963 102.583
17.4783 -287.464 102.756
72.4287 -258.905 96.0999
36.3402 -267.6 97.4089
2.99868 -277.388 99.1508
86.3923 -236.54 89.9027
36.6396 -251.774 92.5127
-9.06886 -267.267 95.4525
94.4604 -216.143 84.1534
35.662 -235.624 87.5469
-20.2187 -254.028 90.9267
97.6562 -199.992 79.3923
33.4509 -219.64 82.5864
-30.2049 -238.641 85.8403
98.3863 -185.364 74.8769
30.6031 -203.963 77.6611
-38.7842 -221.962 80.4226
98.1434 -171.086 70.3923
27.7411 -188.499 72.7589
-45.8632 -204.097 74.6563
97.4839 -156.378 65.785
25.3123 -173.368 67.935
-49.8438 -188.666 69.6285
96.5482 -140.392 60.8454
23.4496 -158.656 63.2251
-51.7683 -174.462 64.9371
95.672 -125.436 56.3393
22.0262 -144.425 58.6475
-53.6846 -160.107 60.2639
95.105 -113.842 52.9555
20.9505 -130.852 54.2251
-54.2144 -145.779 55.496
94.1694 -104.356 50.1308
20.093 -117.88 49.8775
-53.4555 -131.424 50.6049
91.0551 -94.7646 46.381
19.2397 -106.055 45.3788
-51.6064 -118.041 45.5821
85.4209 -83.7469 42.02
18.025 -93.2415 40.6601
-48.396 -103.544 40.4221
77.6626 -72.3006 37.1298
16.4529 -80.256 35.6566
-43.9183 -88.9314 35.1334
68.6066 -61.3612 31.795
14.661 -68.021 30.3927
-38.6363 -75.2327 29.7398
56.9514 -49.3399 26.048
12.3873 -54.6553 24.8558
-31.7405 -60.3303 24.1884
43.4487 -37.2192 20.006
9.80324 -41.1385 19.0989
-23.5812 -45.265 18.5185
29.2987 -25.9299 13.81
7.15093 -28.4786 13.2189
-14.8705 -31.1218 12.7958
13.6463 -14.6568 7.44164
4.28295 -15.7357 7.20421
-5.06242 -16.8301 6.98856
-4.62759 -2.53077 1.1603
1.0046 -1.93992 1.05998
6.70461 -1.3346 1.15485
0.00111771 -0.00099957 0.00122547
-240.744 -144.748 100.162
-225.853 -157.423 98.2649
-235.68 -145.89 98.9717
-244.911 -137.504 100.176
-201.45 -164.956 93.0972
-222.098 -140.806 94.7513
-243.294 -121.258 97.1543
-179.665 -170.512 88.4474
-209.313 -134.687 90.43
-240.067 -101.53 93.0961
-159.659 -172.977 84.014
-196.169 -127.396 85.9635
-233.1 -82.4792 88.2624
-141.172 -172.111 79.4417
-182.818 -119.634 81.4088
-223.981 -66.809 83.4055
-124.328 -169.22 74.9481
-169.546 -111.793 76.8478
-214.271 -53.9499 78.8399
-108.712 -164.66 70.4361
-156.474 -103.972 72.2993
-203.635 -43.0789 74.2743
-93.7125 -158.732 65.8202
-143.608 -96.1307 67.7456
-192.376 -32.6108 69.6372
-79.8756 -152.092 61.3463
-131.017 -88.3254 63.1975
-180.617 -22.9043 64.9695
-67.7864 -145.076 57.1637
-118.797 -80.7106 58.6724
-167.968 -15.3531 60.179
-58.2393 -138.161 53.469
-107.023 -73.2817 54.1636
-155.153 -8.20507 55.4469
-49.3281 -129.708 49.3519
-95.5847 -65.8792 49.5908
-141.566 -1.67773 50.6054
-41.6863 -120.523 44.8262
-85.1277 -58.9779 44.8509
-128.356 3.11812 45.7439
-34.1497 -109.229 40.0122
-73.9863 -51.5526 39.9405
-113.634 6.68303 40.6588
-27.3884 -96.536 34.9449
-62.9601 -44.1543 34.8308
-98.3568 8.72759 35.3829
-21.8377 -83.5188 29.6675
-52.8281 -37.32 29.5487
-83.6547 9.29297 29.9587
-16.6404 -68.1949 24.1714
-42.0191 -29.9845 24.0726
-67.2581 8.53045 24.3483
-12.2855 -51.5443 18.5149
-31.321 -22.6612 18.4447
-50.2558 6.41904 18.6102
-9.01351 -34.9046 12.7772
-21.4923 -15.8668 12.7378
-33.9104 3.27742 12.8214
-6.48037 -17.1366 6.93716
-11.7534 -9.05758 6.93705
-17.0218 -0.963946 6.95334
-4.08733 3.29622 1.09604
-1.30463 -1.63575 1.04645
1.64089 -6.40653 1.15505
0.000216246 0.000634909 0.000842094
-216.19 193.13 103.5
-226.165 160.762 99.1017
-216.329 184.835 101.778
-200.201 205.743 102.533
-223.607 134.34 93.1717
-200.632 171.757 95.681
-174.949 210.393 97.7924
-219.882 114.344 88.4263
-188.145 161.395 90.7147
-154.554 209.755 92.9739
-214.721 96.981 84.0677
-176.385 151.244 86.0474
-137.11 205.561 88.1486
-207.306 82.5431 79.618
-164.922 141.331 81.4806
-122.153 199.861 83.5752
-198.048 71.0343 75.0768
-153.501 131.772 76.9285
-108.419 193.567 79.1729
-188.19 60.4973 70.5564
-142.075 122.344 72.3346
-95.2451 185.92 74.5495
-177.613 49.2294 65.8015
-130.693 112.762 67.6667
-82.9489 177.279 69.8472
-166.146 38.1486 60.8578
-119.393 103.017 62.9294
-71.3484 167.266 64.8906
-153.966 28.2929 55.8745
-108.243 93.357 58.1816
-60.6806 157.408 60.1951
-141.58 19.8202 51.0305
-97.3594 83.9773 53.4847
-50.1752 147.232 55.5107
-130.547 13.2199 46.9118
-86.9331 74.9036 48.8729
-40.5846 135.743 50.6395
-121.917 8.98493 43.5426
-77.7741 66.7468 44.302
-32.6698 124.434 45.837
-110.769 5.14602 39.57
-68.2213 58.145 39.6794
-25.4321 111.344 40.807
-98.0153 2.19906 35.0583
-58.7139 49.6139 34.8332
-19.4098 97.285 35.5745
-84.826 0.304026 30.0724
-49.8381 41.7156 29.7271
-14.8705 83.3465 30.1736
-69.2732 -0.790413 24.6955
-40.1704 33.2208 24.3511
-11.0541 67.3816 24.5665
-52.4835 -0.829642 19.0238
-30.4039 24.7495 18.7427
-8.29329 50.4167 18.8098
-35.8442 0.108191 13.1749
-21.2641 16.9134 12.9904
-6.64848 33.7594 12.9832
-18.242 2.00444 7.15467
-12.0494 9.11484 7.09412
-5.85583 16.2326 7.0581
1.92335 4.98532 1.1234
-1.96243 0.767254 1.06199
-5.60295 -3.45671 1.17521
-0.000293255 0.000430346 0.00135219
3 0 1 2
3 0 2 3
3 1 4 5
3 1 5 2
3 2 5 3
3 3 5 6
3 4 7 8
3 4 8 5
3 5 8 6
3 6 8 9
3 7 10 11
3 7 11 8
3 8 11 9
3 9 11 12
3 10 13 14
3 10 14 11
3 11 14 12
3 12 14 15
3 13 16 17
3 13 17 14
3 14 17 15
3 15 17 18
3 16 19 20
3 16 20 17
3 17 20 18
3 18 20 21
3 19 22 23
3 19 23 20
3 20 23 21
3 21 23 24
3 22 25 26
3 22 26 23
3 23 26 24
3 24 26 27
3 25 28 29
3 25 29 26
3 26 29 27
3 27 29 30
3 28 31 32
3 28 32 29
3 29 32 30
3 30 32 33
3 31 34 35
3 31 35 32
3 32 35 33
3 33 35 36
3 34 37 38
3 34 38 35
3 35 38 36
3 36 38 39
3 37 40 41
3 37 41 38
3 38 41 39
3 39 41 42
3 40 43 44
3 40 44 41
3 41 44 42
3 42 44 45
3 43 46 47
3 43 47 44
3 44 47 45
3 45 47 48
3 46 49 50
3 46 50 47
3 47 50 48
3 48 50 51
3 49 52 53
3 49 53 50
3 50 53 51
3 51 53 54
3 52 55 56
3 52 56 53
3 53 56 54
3 54 56 57
3 55 58 59
3 55 59 56
3 56 59 57
3 57 59 60
3 58 61 62
3 58 62 59
3 59 62 60
3 60 62 63
3 64 62 61
3 64 63 62
3 65 66 67
3 65 67 68
3 66 69 70
3 66 70 67
3 67 70 68
3 68 70 71
3 69 72 73
3 69 73 70
3 70 73 71
3 71 73 74
3 72 75 76
3 72 76 73
3 73 76 74
3 74 76 77
3 75 78 79
3 75 79 76
3 76 79 77
3 77 79 80
3 78 81 82
3 78 82 79
3 79 82 80
3 80 82 83
3 81 84 85
3 81 85 82
3 82 85 83
3 83 85 86
3 84 87 88
3 84 88 85
3 85 88 86
3 86 88 89
3 87 90 91
3 87 91 88
3 88 91 89
3 89 91 92
3 90 93 94
3 90 94 91
3 91 94 92
3 92 94 95
3 93 96 97
3 93 97 94
3 94 97 95
3 95 97 98
3 96 99 100
3 96 100 97
3 97 100 98
3 98 100 101
3 99 102 103
3 99 103 100
3 100 103 101
3 101 103 104
3 102 105 106
3 102 106 103
3 103 106 104
3 104 106 107
3 105 108 109
3 105 109 106
3 106 109 107
3 107 109 110
3 108 111 112
3 108 112 109
3 109 112 110
3 110 112 113
3 111 114 115
3 111 115 112
3 112 115 113
3 113 115 116
3 114 117 118
3 114 118 115
3 115 118 116
3 116 118 119
3 117 120 121
3 117 121 118
3 118 121 119
3 119 121 122
3 120 123 124
3 120 124 121
3 121 124 122
3 122 124 125
3 123 126 127
3 123 127 124
3 124 127 125
3 125 127 128
3 129 127 126
3 129 128 127
3 130 131 132
3 130 132 133
3 131 134 135
3 131 135 132
3 132 135 133
3 133 135 136
3 134 137 138
3 134 138 135
3 135 138 136
3 136 138 139
3 137 140 141
3 137 141 138
3 138 141 139
3 139 141 142
3 140 143 144
3 140 144 141
3 141 144 142
3 142 144 145
3 143 146 147
3 143 147 144
3 144 147 145
3 145 147 148
3 146 149 150
3 146 150 147
3 147 150 148
3 148 150 151
3 149 152 153
3 149 153 150
3 150 153 151
3 151 153 154
3 152 155 156
3 152 156 153
3 153 156 154
3 154 156 157
3 155 158 159
3 155 159 156
3 156 159 157
3 157 159 160
3 158 161 162
3 158 162 159
3 159 162 160
3 160 162 163
3 161 164 165
3 161 165 162
3 162 165 163
3 163 165 166
3 164 167 168
3 164 168 165
3 165 168 166
3 166 168 169
3 167 170 171
3 167 171 168
3 168 171 169
3 169 171 172
3 170 173 174
3 170 174 171
3 171 174 172
3 172 174 175
3 173 176 177
3 173 177 174
3 174 177 175
3 175 177 178
3 176 179 180
3 176 180 177
3 177 180 178
3 178 180 181
3 179 182 183
3 179 183 180
3 180 183 181
3 181 183 184
3 182 185 186
3 182 186 183
3 183 186 184
3 184 186 187
3 185 188 189
3 185 189 186
3 186 189 187
3 187 189 190
3 188 191 192
3 188 192 189
3 189 192 190
3 190 192 193
3 194 192 191
3 194 193 192
3 195 196 197
3 195 197 198
3 196 199 200
3 196 200 197
3 197 200 198
3 198 200 201
3 199 202 203
3 199 203 200
3 200 203 201
3 201 203 204
3 202 205 206
3 202 206 203
3 203 206 204
3 204 206 207
3 205 208 209
3 205 209 206
3 206 209 207
3 207 209 210
3 208 211 212
3 208 212 209
3 209 212 210
3 210 212 213
3 211 214 215
3 211 215 212
3 212 215 213
3 213 215 216
3 214 217 218
3 214 218 215
3 215 218 216
3 216 218 219
3 217 220 221
3 217 221 218
3 218 221 219
3 219 221 222
3 220 223 224
3 220 224 221
3 221 224 222
3 222 224 225
3 223 226 227
3 223 227 224
3 224 227 225
3 225 227 228
3 226 229 230
3 226 230 227
3 227 230 228
3 228 230 231
3 229 232 233
3 229 233 230
3 230 233 231
3 231 233 234
3 232 235 236
3 232 236 233
3 233 236 234
3 234 236 237
3 235 238 239
3 235 239 236
3 236 239 237
3 237 239 240
3 238 241 242
3 238 242 239
3 239 242 240
3 240 242 243
3 241 244 245
3 241 245 242
3 242 245 243
3 243 245 246
3 244 247 248
3 244 248 245
3 245 248 246
3 246 248 249
3 247 250 251
3 247 251 248
3 248 251 249
3 249 251 252
3 250 253 254
3 250 254 251
3 251 254 252
3 252 254 255
3 253 256 257
3 253 257 254
3 254 257 255
3 255 257 258
3 259 257 256
3 259 258 257
3 260 261 262
3 260 262 263
3 261 264 265
3 261 265 262
3 262 265 263
3 263 265 266
3 264 267 268
3 264 268 265
3 265 268 266
3 266 268 269
3 267 270 271
3 267 271 268
3 268 271 269
3 269 271 272
3 270 273 274
3 270 274 271
3 271 274 272
3 272 274 275
3 273 276 277
3 273 277 274
3 274 277 275
3 275 277 278
3 276 279 280
3 276 280 277
3 277 280 278
3 278 280 281
3 279 282 283
3 279 283 280
3 280 283 281
3 281 283 284
3 282 285 286
3 282 286 283
3 283 286 284
3 284 286 287
3 285 288 289
3 285 289 286
3 286 289 287
3 287 289 290
3 288 291 292
3 288 292 289
3 289 292 290
3 290 292 293
3 291 294 295
3 291 295 292
3 292 295 293
3 293 295 296
3 294 297 298
3 294 298 295
3 295 298 296
3 296 298 299
3 297 300 301
3 297 301 298
3 298 301 299
3 299 301 302
3 300 303 304
3 300 304 301
3 301 304 302
3 302 304 305
3 303 306 307
3 303 307 304
3 304 307 305
3 305 307 308
3 306 309 310
3 306 310 307
3 307 310 308
3 308 310 311
3 309 312 313
3 309 313 310
3 310 313 311
3 311 313 314
3 312 315 316
3 312 316 313
3 313 316 314
3 314 316 317
3 315 318 319
3 315 319 316
3 316 319 317
3 317 319 320
3 318 321 322
3 318 322 319
3 319 322 320
3 320 322 323
3 324 322 321
3 324 323 322
