ply
format ascii 1.0
element vertex 665
property float x
property float y
property float z
element face 860
property list uchar int vertex_indices
end_header
74.4831 138.326 96.2238
63.5968 143.172 96.4871
81.2121 132.471 96.0924
105.313 115.36 96.5533
47.6059 142.837 91.8088
77.2886 119.578 90.0673
116.96 94.1984 91.6809
32.8158 138.546 86.9594
72.3531 109.109 85.2638
117.814 79.6318 86.6328
25.4435 132.789 81.7927
68.1577 102.178 80.2965
113.905 72.2379 81.5464
20.3392 125.437 76.6373
62.8529 94.2832 75.3217
108.559 65.0994 76.4609
16.2509 117.279 71.6943
57.7317 86.7763 70.3418
102.576 58.9268 71.5853
13.2778 110.345 66.7477
53.4692 80.3011 65.3431
97.17 54.555 66.7735
10.5652 102.008 61.8134
48.5832 72.2801 60.3432
90.3918 47.5368 61.6056
8.53975 94.1287 56.7294
44.3912 65.6519 55.372
85.5582 37.8477 56.2001
6.34084 85.2348 51.6392
39.8474 58.8658 50.3917
79.9903 30.4988 51.4194
3.82961 77.6076 46.5354
35.885 53.4562 45.46
73.2933 27.8049 46.5203
1.04359 69.814 41.678
30.9586 47.1547 40.6185
64.8147 26.2761 41.6042
-1.55634 63.3244 37.7995
26.0945 41.0746 35.8253
56.2205 23.7234 36.5502
-2.77187 56.2043 33.3347
22.0792 35.6753 30.9763
49.0691 20.4187 31.5803
-3.15273 47.74 28.5587
18.1984 29.6383 26.0958
41.4991 16.3123 26.4554
-2.79631 38.5246 23.5253
14.573 23.0113 21.1532
34.0933 12.3126 21.3941
-1.86395 27.965 18.2983
11.1402 15.8115 16.1703
26.2322 7.39017 16.5849
-0.661997 19.5013 12.8812
8.24479 9.93971 11.1312
20.4339 1.83638 12.1389
1.46133 8.65062 7.88766
4.03962 3.31163 5.8877
10.19 0.796463 7.63377
3.07478 -0.837393 1.00601
-0.32551 -0.218823 0.269368
-4.0276 2.22179 0.713331
0.127071 -0.208897 -0.288821
140.156 -47.7771 90.6229
146.696 -41.4058 93.3445
138.567 -51.5871 90.9438
138.734 -66.4951 94.3247
143.112 -35.1551 90.1219
132.055 -48.7872 87.735
130.124 -69.368 90.3065
140.367 -14.3848 86.8872
124.039 -43.486 84.241
114.255 -81.9926 86.448
134.831 2.79296 82.1937
117.239 -39.1336 79.8286
103.943 -85.7504 81.7154
126.407 14.9165 76.9867
108.492 -33.8186 75.1466
94.6256 -84.6939 76.7133
117.029 21.3071 71.7355
99.8273 -28.7796 70.2631
85.952 -81.0084 71.3991
108.344 25.4075 66.512
92.4106 -24.7014 65.3025
79.7071 -77.1777 66.3606
97.943 29.2515 61.3698
83.6127 -20.2821 60.3825
72.2417 -72.405 61.3318
88.9839 31.6993 56.5201
76.3647 -16.8796 55.5541
65.9774 -67.4494 56.28
79.8337 33.1936 51.8015
68.9742 -13.739 50.847
59.9752 -61.9458 51.5259
74.2218 32.9109 47.969
62.876 -11.4216 46.1496
55.0533 -57.266 47.0252
66.7022 31.7514 43.7039
55.4093 -8.93618 41.4935
48.6498 -51.4396 42.3617
58.334 29.6453 39.1358
47.9832 -6.82803 36.7603
41.8857 -44.9495 37.5848
50.9337 27.0113 34.262
41.5159 -5.31116 31.8741
36.1577 -39.1444 32.6794
43.0714 23.5606 29.1535
34.6596 -3.9541 26.8589
30.2069 -32.8984 27.6752
35.0145 19.4058 23.8645
27.6254 -2.7681 21.7158
24.3654 -26.3472 22.5879
26.0269 14.3647 18.4203
20.3869 -1.72443 16.4587
18.0459 -18.9895 17.4196
18.8899 9.81471 12.9001
14.3475 -1.04779 11.1705
13.3999 -12.7966 12.1704
10.2032 3.8458 7.7826
6.6694 -0.0590802 5.71691
7.68184 -5.06845 7.40811
-0.0558817 -2.85576 0.985596
0.211386 0.419545 0.179806
2.34308 4.99923 0.637444
-0.362693 -0.298834 -0.270049
44.163 -148.508 95.1524
51.3384 -146.369 95.5578
40.8028 -148.454 95.0154
31.2637 -152.193 95.7119
58.0616 -137.475 91.427
38.0547 -138.146 89.3876
17.0903 -148.951 92.0255
67.7346 -123.719 86.6614
34.6762 -128.405 84.9309
-3.48266 -141.458 86.8924
72.5645 -113.091 81.7496
32.2119 -120.81 80.1175
-12.3382 -134.031 81.5726
74.2365 -102.233 76.6869
29.6091 -111.305 75.2002
-16.9073 -125.228 76.536
73.411 -92.3846 71.6982
27.4553 -101.959 70.2272
-19.7863 -116.222 71.5199
71.8815 -84.2111 66.5844
25.7182 -94.0289 65.2441
-21.1201 -108.534 66.4258
69.343 -74.7152 61.4308
23.545 -84.6278 60.2795
-22.2485 -99.5036 61.4181
66.1962 -67.0385 56.5001
21.59 -76.7236 55.3389
-22.8237 -91.631 56.5013
62.2933 -59.3458 51.773
19.3623 -68.5283 50.4406
-23.3602 -82.4851 51.4672
58.6054 -53.0295 47.3072
17.3702 -61.7347 45.5695
-24.2495 -74.1012 46.2645
53.5724 -45.8442 42.6531
14.8978 -53.5249 40.7225
-24.9953 -65.0504 41.2857
47.6353 -38.605 37.8645
12.6124 -45.6459 35.8881
-24.8068 -55.9097 36.415
42.0677 -32.7481 32.9379
10.7147 -39.0361 30.9928
-21.8111 -49.1932 31.9021
35.8627 -27.0275 27.898
8.89892 -32.2972 26.0559
-18.6706 -41.6292 27.1282
29.1723 -21.6087 22.7679
7.17155 -25.5474 21.0469
-15.0709 -33.7865 22.2024
21.5321 -15.9253 17.5693
5.42102 -18.6943 15.9517
-10.7974 -24.9425 17.163
15.0944 -11.7523 12.2863
4.00981 -13.0496 10.8212
-6.88138 -17.9674 11.9778
6.90563 -6.95061 7.48593
2.26568 -5.80186 5.56337
-1.86139 -9.24702 7.27499
-2.5064 -1.66507 0.968479
0.648544 0.112402 0.202829
5.26422 0.971011 0.629058
-0.423988 0.129085 -0.268283
-143.788 -42.2322 91.8303
-141.597 -62.6939 95.2629
-144.551 -39.0229 92.0206
-151.245 -32.7105 94.7454
-133.147 -67.8933 91.9662
-134.262 -45.0896 88.5409
-145.284 -29.0228 90.3756
-113.511 -84.7018 87.1603
-123.057 -46.3105 84.6008
-139.882 -15.9634 86.4518
-100.66 -90.0855 81.9034
-114.452 -45.1308 79.9542
-134.399 -4.1 81.592
-86.2574 -92.7047 76.3498
-103.765 -42.5984 75.1225
-126.609 7.7293 76.5451
-71.9452 -94.8067 71.5339
-93.5631 -39.3167 70.2179
-117.462 15.3114 71.3356
-63.0692 -92.6281 66.703
-85.2484 -36.1133 65.275
-109.748 19.7932 66.3776
-55.4255 -87.7025 61.8382
-75.7143 -32.2189 60.3434
-100.408 23.6181 61.4763
-48.7333 -82.6308 56.8115
-67.9773 -28.8154 55.4259
-91.8025 25.9464 56.4193
-41.867 -77.0552 51.9845
-60.1598 -25.2617 50.522
-82.4311 27.5898 51.4546
-35.8851 -71.1663 46.8009
-53.8442 -22.28 45.6537
-74.5789 28.3512 46.6052
-30.1495 -64.6052 41.7874
-46.1668 -18.9286 40.7607
-67.0656 28.5892 42.6914
-24.288 -57.71 36.879
-38.6675 -15.7959 35.8013
-58.3651 27.4425 38.2709
-17.2195 -50.6459 30.8947
-32.3775 -13.2401 30.7567
-50.6384 25.4004 33.4837
-12.2342 -42.9017 25.5001
-26.0447 -10.7576 25.6597
-42.3616 22.3386 28.4465
-8.69952 -34.6525 20.4371
-19.9337 -8.41244 20.5338
-33.9135 18.378 23.2148
-5.90725 -25.3611 15.6316
-14.1062 -6.15695 15.4284
-24.6419 13.4131 17.8394
-4.57878 -17.6071 10.8665
-9.69758 -4.39597 10.3857
-17.3154 8.67791 12.364
-3.59159 -7.7917 6.84234
-4.21489 -2.34338 5.32708
-8.227 2.48781 7.28716
-1.40712 2.46405 0.930001
-0.0925199 -0.576755 0.223535
0.940549 -5.21906 0.630804
0.114268 0.417672 -0.265206
-89.8971 122.618 93.4866
-100.288 117.364 95.2081
-86.0758 124.997 93.6691
-78.0372 135.557 96.0357
-106.878 104.78 91.7765
-83.4749 115.576 89.2396
-69.4695 132.245 91.4725
-114.016 83.4344 86.6878
-79.3809 105.644 84.9735
-49.1604 132.903 86.9907
-115.652 70.0913 81.9924
-75.1405 98.6711 80.2414
-37.6801 129.683 81.7286
-112.557 59.5054 76.9038
-69.2672 90.5966 75.357
-28.7728 123.59 76.5922
-106.258 52.9364 71.7913
-63.2446 83.1967 70.3943
-21.6971 116.217 71.6202
-100.426 48.8764 66.8711
-57.9752 77.1529 65.4169
-16.7604 109.747 66.5403
-92.9509 43.9911 61.9412
-51.7281 70.0709 60.4441
-10.8696 101.641 61.4364
-86.2521 39.8333 56.8139
-46.576 64.0459 55.4818
-6.40867 94.4158 56.478
-79.0464 35.1022 52.0016
-41.4206 57.6564 50.5524
-2.57221 85.8277 51.4844
-73.0928 30.2459 47.1981
-37.306 52.2221 45.6354
-0.42777 78.425 46.4994
-66.2393 24.5534 42.0946
-32.562 45.5674 40.7647
1.28024 70.312 41.7291
-58.3906 19.4287 37.0526
-28.028 39.0008 35.8726
1.57103 62.8436 37.4546
-51.2334 15.6776 32.0262
-24.2422 33.4714 30.951
1.67491 55.5805 32.766
-43.4597 12.4046 27.0006
-20.2949 27.7525 25.9863
1.6169 47.3317 27.8589
-35.3004 9.68643 21.9757
-16.2714 21.9473 20.9558
1.24095 38.5013 22.7787
-26.1063 7.11484 16.9535
-12.1204 16.0238 15.8588
0.605864 28.3666 17.5686
-18.5513 5.56729 11.8549
-8.68314 11.1131 10.7444
-0.401504 20.1051 12.2361
-9.10855 4.11375 7.3115
-4.33502 4.78132 5.52423
-1.76431 9.6797 7.34357
1.75904 2.38391 0.959333
-0.571096 -0.346032 0.21016
-4.69191 -2.67857 0.638882
0.456675 0.0254684 -0.269028
32.7085 289.123 112
16.931 286.427 111
30.7865 285.735 111
47.2102 282.427 111
-0.57684 273.718 106
32.3826 269.805 106
66.5051 264.966 106
-16.3232 260.274 101
32.0071 254.711 101
79.6697 248.163 101
-27.6098 245.811 96
30.8663 238.856 96
88.5083 231.297 96
-35.689 232.024 91
29.4758 224.396 90.9999
93.93 216.69 91
-41.5444 218.258 86
27.8458 210.062 85.9999
96.5013 201.939 86
-46.6402 204.823 81
26.0006 195.751 80.9998
96.5 187.044 81
-50.2379 191.001 76
24.1536 181.401 75.9997
96.1889 172.23 76
-53.0478 176.783 71
22.5097 166.983 70.9997
95.8436 157.543 71
-54.7352 163.235 66
21.2097 153.598 65.9996
95.1916 143.183 66
-55.185 148.989 61
20.0283 139.169 60.9996
94.4167 127.725 61
-54.8763 135.033 56
18.9276 124.989 55.9995
92.9236 112.518 56
-53.7284 121.335 50.9999
17.7094 111.222 50.9993
88.5748 98.8352 51
-51.8896 108.928 45.9997
16.4791 98.9584 45.9991
84.0376 86.9444 45.9997
-48.9974 95.7233 40.9994
15.1321 86.1393 40.9988
78.4278 74.7886 40.9993
-45.4488 83.7275 35.999
13.9124 74.7079 35.9983
72.5067 64.1799 35.9987
-40.6038 70.9141 30.9983
12.6141 62.7142 30.9976
65.1794 53.2819 30.9979
-35.1823 59.2357 25.9974
11.4415 51.9886 25.9968
57.5233 43.7436 25.997
-28.831 47.6913 20.9963
10.2847 41.5717 20.9958
48.9793 34.6904 20.9959
-20.8578 35.2935 15.9948
9.01508 30.5714 15.9945
38.6105 25.3549 15.9946
-12.4867 23.9286 10.9933
7.83131 20.6809 10.9931
27.9932 17.1589 10.9932
-3.12881 12.6155 5.99169
6.60869 10.9943 5.99164
16.3259 9.33685 5.9916
7.24058 1.11732 0.990162
5.29253 1.41224 0.990064
3.07302 1.43257 0.990121
-0.000630493 -0.00111135 8.6694e-007
283.254 28.6129 109.461
280.062 44.2743 109.604
280.126 30.0538 108.702
282.984 16.3908 109.332
267.035 55.5484 105.691
268.282 25.7638 105.058
272.906 -3.36747 105.636
251.418 68.971 101.029
254.083 20.7772 100.67
258.869 -28.3313 101.036
233.887 81.1351 96.0491
237.249 15.2 95.91
241.175 -55.1864 96.0583
217.069 90.3197 91.0178
220.938 10.9144 90.9755
224.119 -74.0061 91.0209
200.247 96.6185 86.0018
204.502 8.27064 85.9917
207.436 -83.322 86.0021
183.75 101.998 80.9987
188.224 7.10649 80.9957
191.739 -87.8376 80.9985
166.913 105.889 75.9992
172.144 6.70649 75.9974
175.912 -90.7985 75.9991
150.068 107.704 70.9998
156.277 6.49431 70.9984
159.889 -92.0476 70.9998
135.13 107.242 66
141.953 6.21271 65.9989
145.159 -92.2292 66
120.083 105.425 61
127.044 5.66934 60.9991
130.066 -91.9249 61
105.989 102.302 55.9997
112.84 4.94605 55.999
115.842 -90.6015 55.9996
92.7645 97.8866 50.9994
99.3683 4.09597 50.9987
102.359 -88.1747 50.9991
81.3411 92.6231 45.9989
87.5988 3.22759 45.9983
90.5749 -84.8894 45.9985
69.7495 85.6869 40.9983
75.5304 2.22277 40.9977
78.4356 -80.1938 40.9978
59.7274 78.1247 35.9976
64.9934 1.26556 35.997
67.7639 -74.7342 35.9971
49.5316 68.7355 30.9968
54.1501 0.22637 30.9963
56.6977 -67.6076 30.9962
40.702 58.9405 25.996
44.667 -0.721107 25.9955
46.9272 -59.854 25.9954
32.4041 48.0831 20.995
35.6506 -1.64232 20.9946
37.5672 -50.9755 20.9945
23.9272 35.1761 15.9938
26.3048 -2.57584 15.9935
27.8053 -40.0806 15.9935
16.5473 22.1856 10.9926
18.0891 -3.37564 10.9924
19.1375 -28.8033 10.9924
9.54188 8.19733 5.99131
10.1809 -4.08896 5.99125
10.7628 -16.3593 5.99119
2.36868 -6.41563 0.990115
2.39393 -4.65893 0.990037
1.90933 -2.95575 0.990088
-0.00179727 0.000557676 3.79291e-007
120.928 -259.597 110.307
132.004 -252.701 110.069
120.537 -256.44 109.468
102.337 -264.304 109.888
134.694 -238.345 105.794
107.193 -248.034 105.372
73.7854 -261.825 105.758
139.505 -220.518 101.02
97.5831 -236.782 100.78
51.2803 -255.097 101.024
143.324 -201.431 96.0327
89.7997 -223.035 95.9399
34.7975 -245.037 96.0388
144.282 -185.177 91.0119
83.9012 -209.647 90.9836
23.2555 -234.064 91.014
143.86 -170.136 86.0012
78.6073 -196.02 85.9944
13.1927 -222.178 86.0014
142.191 -155.326 80.9991
73.6807 -182.198 80.9971
5.17014 -209.907 80.9989
139.966 -139.209 75.9995
69.057 -168.113 75.9982
-1.0148 -197.064 75.9994
137.107 -122.925 70.9999
64.5959 -153.831 70.9989
-6.23513 -183.85 70.9999
134.034 -107.902 66
60.4592 -140.614 65.9992
-11.0135 -171.258 66
129.878 -92.2751 61
55.7762 -126.532 60.9994
-16.1305 -157.815 61
124.405 -78.2241 55.9999
50.8591 -112.856 55.9994
-20.9525 -144.001 56
117.652 -65.6157 50.9997
45.7392 -99.7185 50.9992
-24.9133 -130.106 50.9999
110.284 -55.2447 45.9994
40.8987 -88.1657 45.9989
-27.4991 -117.566 45.9996
101.1 -45.3027 40.9989
35.5882 -76.3123 40.9984
-29.1381 -104.199 40.999
91.5419 -37.2327 35.9982
30.6646 -65.9539 35.9978
-29.5717 -91.9819 35.9983
80.0463 -29.6025 30.9974
25.3355 -55.3021 30.997
-28.8663 -78.7954 30.9973
68.4008 -23.5285 25.9965
20.4353 -45.9696 25.9961
-27.1263 -66.6288 25.9963
55.7728 -18.355 20.9954
15.5645 -37.0789 20.9951
-24.3416 -54.4519 20.9953
41.0226 -13.6473 15.9941
10.3474 -27.8343 15.9939
-20.1347 -41.1502 15.994
26.4329 -10.083 10.9928
5.58966 -19.6537 10.9927
-15.148 -28.7444 10.9927
10.9269 -7.20704 5.99138
0.907045 -11.7253 5.99137
-9.09776 -16.1777 5.99137
-5.3586 -4.51465 0.99011
-3.66212 -3.8748 0.990028
-1.90346 -2.84161 0.990103
0.000453561 0.00200188 3.08847e-007
-217.006 -193.205 112
-197.476 -207.533 111
-212.226 -193.058 111
-222 -180.537 111
-173.491 -211.495 106
-200.003 -183.058 106
-224.328 -155.738 106
-154.5 -210.293 101
-189.783 -171.789 101
-224.013 -133.502 101
-137.799 -206.021 96
-179.185 -159.482 96
-220.961 -111.897 96
-122.514 -200.288 91
-169.085 -148.41 90.9999
-215.529 -95.7228 91
-109.06 -193.591 86
-158.655 -137.857 85.9998
-207.352 -81.8352 86
-97.0363 -185.627 81
-148.078 -127.684 80.9998
-198.271 -69.6204 81
-85.8291 -177.731 76
-137.462 -117.783 75.9997
-188.693 -59.1537 76
-74.6785 -168.73 71
-126.779 -107.949 70.9997
-177.941 -48.0103 71
-64.2695 -159.297 66
-116.875 -98.8135 65.9997
-167.472 -37.8617 66
-54.0574 -148.913 61
-106.31 -89.0399 60.9997
-156.428 -27.8687 61
-44.9998 -138.083 56
-96.0089 -79.5844 55.9996
-144.477 -20.3207 56
-36.9622 -126.985 51
-86.0358 -70.4628 50.9995
-132.877 -13.1512 50.9999
-30.3458 -116.418 45.9998
-77.1597 -62.3002 45.9993
-122.016 -7.43792 45.9996
-24.0512 -104.566 40.9994
-67.8577 -53.7413 40.9989
-109.984 -2.25669 40.9991
-19.0637 -93.1897 35.9989
-59.5377 -46.0926 35.9983
-98.5677 1.57229 35.9984
-14.546 -80.3393 30.9981
-50.7586 -38.0682 30.9975
-85.7778 4.66524 30.9975
-11.2023 -67.9541 25.9971
-42.8695 -30.8945 25.9966
-73.5534 6.53409 25.9965
-8.64968 -55.0468 20.996
-35.1628 -23.9373 20.9955
-60.9059 7.44672 20.9954
-6.76573 -40.4099 15.9946
-26.9573 -16.6228 15.9942
-46.6393 7.33812 15.9942
-5.83539 -26.274 10.9931
-19.5302 -10.0724 10.9929
-32.9371 6.22329 10.9929
-5.66727 -11.5089 5.99156
-12.1929 -3.69816 5.9915
-18.6866 4.12665 5.99145
-6.02153 4.06402 0.990136
-4.83631 2.53406 0.990044
-3.28384 1.01424 0.990111
0.00104242 0.000413272 5.09322e-007
-245.637 139.701 109.461
-251.305 129.402 109.604
-243.873 137.436 108.702
-238.202 150.299 109.332
-246.219 117.385 105.691
-232.606 136.295 105.058
-220.667 159.669 105.637
-240.865 100.109 101.029
-220.33 132.09 100.67
-200.993 166.28 101.036
-233.644 82.176 96.0491
-206.429 125.924 95.91
-180.875 169.781 96.0583
-225.021 67.3467 91.0178
-193.069 119.637 90.9755
-162.196 171.838 91.0209
-215.217 54.9289 86.0018
-179.369 113.159 85.9917
-142.95 171.703 86.0021
-204.964 44.1458 80.9987
-165.663 106.438 80.9957
-125.883 168.96 80.9984
-194.115 34.5411 75.9992
-152.155 99.4324 75.9974
-109.934 164.337 75.9991
-182.667 25.0804 70.9998
-138.816 92.1883 70.9985
-94.534 158.694 70.9998
-171.074 17.1691 66
-126.636 85.3689 65.999
-80.4567 152.071 66
-158.299 9.97794 61
-113.769 78.0307 60.9994
-66.9634 144.155 61
-145.825 3.96173 56
-101.394 70.8522 55.9995
-54.8843 135.84 56
-133.025 -0.993792 51
-89.5423 63.8819 50.9994
-44.1238 126.977 50.9998
-121.013 -4.58654 45.9998
-79.0626 57.6428 45.9992
-35.3631 118.278 45.9995
-107.778 -7.40383 40.9994
-68.1872 51.086 40.9988
-27.0703 108.206 40.9991
-95.3337 -9.01223 35.9988
-58.5705 45.195 35.9982
-20.488 98.239 35.9985
-81.5903 -9.67692 30.9981
-48.5669 38.9536 30.9975
-14.4512 86.6375 30.9976
-68.6441 -9.30019 25.9972
-39.7105 33.3073 25.9966
-9.87967 75.1508 25.9967
-55.4427 -7.97074 20.9961
-31.1963 27.7534 20.9956
-6.2532 62.8973 20.9956
-40.8248 -5.46621 15.9947
-22.3026 21.791 15.9943
-3.32213 48.6729 15.9943
-27.0183 -2.1851 10.9932
-14.4059 16.3357 10.993
-1.53615 34.6488 10.9929
-12.8943 2.01819 5.99163
-6.76411 10.8894 5.99155
-0.602643 19.7321 5.99148
1.73496 7.03117 0.990154
0.717085 5.37797 0.990059
0.0200794 3.48033 0.990112
0.000977853 -0.000875781 7.26061e-007
3 0 1 2
3 0 2 3
3 1 4 5
3 1 5 2
3 2 5 3
3 3 5 6
3 4 7 8
3 4 8 5
3 5 8 6
3 6 8 9
3 7 10 11
3 7 11 8
3 8 11 9
3 9 11 12
3 10 13 14
3 10 14 11
3 11 14 12
3 12 14 15
3 13 16 17
3 13 17 14
3 14 17 15
3 15 17 18
3 16 19 20
3 16 20 17
3 17 20 18
3 18 20 21
3 19 22 23
3 19 23 20
3 20 23 21
3 21 23 24
3 22 25 26
3 22 26 23
3 23 26 24
3 24 26 27
3 25 28 29
3 25 29 26
3 26 29 27
3 27 29 30
3 28 31 32
3 28 32 29
3 29 32 30
3 30 32 33
3 31 34 35
3 31 35 32
3 32 35 33
3 33 35 36
3 34 37 38
3 34 38 35
3 35 38 36
3 36 38 39
3 37 40 41
3 37 41 38
3 38 41 39
3 39 41 42
3 40 43 44
3 40 44 41
3 41 44 42
3 42 44 45
3 43 46 47
3 43 47 44
3 44 47 45
3 45 47 48
3 46 49 50
3 46 50 47
3 47 50 48
3 48 50 51
3 49 52 53
3 49 53 50
3 50 53 51
3 51 53 54
3 52 55 56
3 52 56 53
3 53 56 54
3 54 56 57
3 55 58 59
3 55 59 56
3 56 59 57
3 57 59 60
3 61 59 58
3 61 60 59
3 62 63 64
3 62 64 65
3 63 66 67
3 63 67 64
3 64 67 65
3 65 67 68
3 66 69 70
3 66 70 67
3 67 70 68
3 68 70 71
3 69 72 73
3 69 73 70
3 70 73 71
3 71 73 74
3 72 75 76
3 72 76 73
3 73 76 74
3 74 76 77
3 75 78 79
3 75 79 76
3 76 79 77
3 77 79 80
3 78 81 82
3 78 82 79
3 79 82 80
3 80 82 83
3 81 84 85
3 81 85 82
3 82 85 83
3 83 85 86
3 84 87 88
3 84 88 85
3 85 88 86
3 86 88 89
3 87 90 91
3 87 91 88
3 88 91 89
3 89 91 92
3 90 93 94
3 90 94 91
3 91 94 92
3 92 94 95
3 93 96 97
3 93 97 94
3 94 97 95
3 95 97 98
3 96 99 100
3 96 100 97
3 97 100 98
3 98 100 101
3 99 102 103
3 99 103 100
3 100 103 101
3 101 103 104
3 102 105 106
3 102 106 103
3 103 106 104
3 104 106 107
3 105 108 109
3 105 109 106
3 106 109 107
3 107 109 110
3 108 111 112
3 108 112 109
3 109 112 110
3 110 112 113
3 111 114 115
3 111 115 112
3 112 115 113
3 113 115 116
3 114 117 118
3 114 118 115
3 115 118 116
3 116 118 119
3 117 120 121
3 117 121 118
3 118 121 119
3 119 121 122
3 123 121 120
3 123 122 121
3 124 125 126
3 124 126 127
3 125 128 129
3 125 129 126
3 126 129 127
3 127 129 130
3 128 131 132
3 128 132 129
3 129 132 130
3 130 132 133
3 131 134 135
3 131 135 132
3 132 135 133
3 133 135 136
3 134 137 138
3 134 138 135
3 135 138 136
3 136 138 139
3 137 140 141
3 137 141 138
3 138 141 139
3 139 141 142
3 140 143 144
3 140 144 141
3 141 144 142
3 142 144 145
3 143 146 147
3 143 147 144
3 144 147 145
3 145 147 148
3 146 149 150
3 146 150 147
3 147 150 148
3 148 150 151
3 149 152 153
3 149 153 150
3 150 153 151
3 151 153 154
3 152 155 156
3 152 156 153
3 153 156 154
3 154 156 157
3 155 158 159
3 155 159 156
3 156 159 157
3 157 159 160
3 158 161 162
3 158 162 159
3 159 162 160
3 160 162 163
3 161 164 165
3 161 165 162
3 162 165 163
3 163 165 166
3 164 167 168
3 164 168 165
3 165 168 166
3 166 168 169
3 167 170 171
3 167 171 168
3 168 171 169
3 169 171 172
3 170 173 174
3 170 174 171
3 171 174 172
3 172 174 175
3 173 176 177
3 173 177 174
3 174 177 175
3 175 177 178
3 176 179 180
3 176 180 177
3 177 180 178
3 178 180 181
3 179 182 183
3 179 183 180
3 180 183 181
3 181 183 184
3 185 183 182
3 185 184 183
3 186 187 188
3 186 188 189
3 187 190 191
3 187 191 188
3 188 191 189
3 189 191 192
3 190 193 194
3 190 194 191
3 191 194 192
3 192 194 195
3 193 196 197
3 193 197 194
3 194 197 195
3 195 197 198
3 196 199 200
3 196 200 197
3 197 200 198
3 198 200 201
3 199 202 203
3 199 203 200
3 200 203 201
3 201 203 204
3 202 205 206
3 202 206 203
3 203 206 204
3 204 206 207
3 205 208 209
3 205 209 206
3 206 209 207
3 207 209 210
3 208 211 212
3 208 212 209
3 209 212 210
3 210 212 213
3 211 214 215
3 211 215 212
3 212 215 213
3 213 215 216
3 214 217 218
3 214 218 215
3 215 218 216
3 216 218 219
3 217 220 221
3 217 221 218
3 218 221 219
3 219 221 222
3 220 223 224
3 220 224 221
3 221 224 222
3 222 224 225
3 223 226 227
3 223 227 224
3 224 227 225
3 225 227 228
3 226 229 230
3 226 230 227
3 227 230 228
3 228 230 231
3 229 232 233
3 229 233 230
3 230 233 231
3 231 233 234
3 232 235 236
3 232 236 233
3 233 236 234
3 234 236 237
3 235 238 239
3 235 239 236
3 236 239 237
3 237 239 240
3 238 241 242
3 238 242 239
3 239 242 240
3 240 242 243
3 241 244 245
3 241 245 242
3 242 245 243
3 243 245 246
3 247 245 244
3 247 246 245
3 248 249 250
3 248 250 251
3 249 252 253
3 249 253 250
3 250 253 251
3 251 253 254
3 252 255 256
3 252 256 253
3 253 256 254
3 254 256 257
3 255 258 259
3 255 259 256
3 256 259 257
3 257 259 260
3 258 261 262
3 258 262 259
3 259 262 260
3 260 262 263
3 261 264 265
3 261 265 262
3 262 265 263
3 263 265 266
3 264 267 268
3 264 268 265
3 265 268 266
3 266 268 269
3 267 270 271
3 267 271 268
3 268 271 269
3 269 271 272
3 270 273 274
3 270 274 271
3 271 274 272
3 272 274 275
3 273 276 277
3 273 277 274
3 274 277 275
3 275 277 278
3 276 279 280
3 276 280 277
3 277 280 278
3 278 280 281
3 279 282 283
3 279 283 280
3 280 283 281
3 281 283 284
3 282 285 286
3 282 286 283
3 283 286 284
3 284 286 287
3 285 288 289
3 285 289 286
3 286 289 287
3 287 289 290
3 288 291 292
3 288 292 289
3 289 292 290
3 290 292 293
3 291 294 295
3 291 295 292
3 292 295 293
3 293 295 296
3 294 297 298
3 294 298 295
3 295 298 296
3 296 298 299
3 297 300 301
3 297 301 298
3 298 301 299
3 299 301 302
3 300 303 304
3 300 304 301
3 301 304 302
3 302 304 305
3 303 306 307
3 303 307 304
3 304 307 305
3 305 307 308
3 309 307 306
3 309 308 307
3 312 310 311
3 313 310 312
3 315 311 314
3 312 311 315
3 313 312 315
3 316 313 315
3 318 314 317
3 315 314 318
3 316 315 318
3 319 316 318
3 321 317 320
3 318 317 321
3 319 318 321
3 322 319 321
3 324 320 323
3 321 320 324
3 322 321 324
3 325 322 324
3 327 323 326
3 324 323 327
3 325 324 327
3 328 325 327
3 330 326 329
3 327 326 330
3 328 327 330
3 331 328 330
3 333 329 332
3 330 329 333
3 331 330 333
3 334 331 333
3 336 332 335
3 333 332 336
3 334 333 336
3 337 334 336
3 339 335 338
3 336 335 339
3 337 336 339
3 340 337 339
3 342 338 341
3 339 338 342
3 340 339 342
3 343 340 342
3 345 341 344
3 342 341 345
3 343 342 345
3 346 343 345
3 348 344 347
3 345 344 348
3 346 345 348
3 349 346 348
3 351 347 350
3 348 347 351
3 349 348 351
3 352 349 351
3 354 350 353
3 351 350 354
3 352 351 354
3 355 352 354
3 357 353 356
3 354 353 357
3 355 354 357
3 358 355 357
3 360 356 359
3 357 356 360
3 358 357 360
3 361 358 360
3 363 359 362
3 360 359 363
3 361 360 363
3 364 361 363
3 366 362 365
3 363 362 366
3 364 363 366
3 367 364 366
3 369 365 368
3 366 365 369
3 367 366 369
3 370 367 369
3 372 368 371
3 369 368 372
3 370 369 372
3 373 370 372
3 375 371 374
3 372 371 375
3 373 372 375
3 376 373 375
3 378 374 377
3 375 374 378
3 376 375 378
3 379 376 378
3 377 380 378
3 378 380 379
3 383 381 382
3 384 381 383
3 386 382 385
3 383 382 386
3 384 383 386
3 387 384 386
3 389 385 388
3 386 385 389
3 387 386 389
3 390 387 389
3 392 388 391
3 389 388 392
3 390 389 392
3 393 390 392
3 395 391 394
3 392 391 395
3 393 392 395
3 396 393 395
3 398 394 397
3 395 394 398
3 396 395 398
3 399 396 398
3 401 397 400
3 398 397 401
3 399 398 401
3 402 399 401
3 404 400 403
3 401 400 404
3 402 401 404
3 405 402 404
3 407 403 406
3 404 403 407
3 405 404 407
3 408 405 407
3 410 406 409
3 407 406 410
3 408 407 410
3 411 408 410
3 413 409 412
3 410 409 413
3 411 410 413
3 414 411 413
3 416 412 415
3 413 412 416
3 414 413 416
3 417 414 416
3 419 415 418
3 416 415 419
3 417 416 419
3 420 417 419
3 422 418 421
3 419 418 422
3 420 419 422
3 423 420 422
3 425 421 424
3 422 421 425
3 423 422 425
3 426 423 425
3 428 424 427
3 425 424 428
3 426 425 428
3 429 426 428
3 431 427 430
3 428 427 431
3 429 428 431
3 432 429 431
3 434 430 433
3 431 430 434
3 432 431 434
3 435 432 434
3 437 433 436
3 434 433 437
3 435 434 437
3 438 435 437
3 440 436 439
3 437 436 440
3 438 437 440
3 441 438 440
3 443 439 442
3 440 439 443
3 441 440 443
3 444 441 443
3 446 442 445
3 443 442 446
3 444 443 446
3 447 444 446
3 449 445 448
3 446 445 449
3 447 446 449
3 450 447 449
3 448 451 449
3 449 451 450
3 454 452 453
3 455 452 454
3 457 453 456
3 454 453 457
3 455 454 457
3 458 455 457
3 460 456 459
3 457 456 460
3 458 457 460
3 461 458 460
3 463 459 462
3 460 459 463
3 461 460 463
3 464 461 463
3 466 462 465
3 463 462 466
3 464 463 466
3 467 464 466
3 469 465 468
3 466 465 469
3 467 466 469
3 470 467 469
3 472 468 471
3 469 468 472
3 470 469 472
3 473 470 472
3 475 471 474
3 472 471 475
3 473 472 475
3 476 473 475
3 478 474 477
3 475 474 478
3 476 475 478
3 479 476 478
3 481 477 480
3 478 477 481
3 479 478 481
3 482 479 481
3 484 480 483
3 481 480 484
3 482 481 484
3 485 482 484
3 487 483 486
3 484 483 487
3 485 484 487
3 488 485 487
3 490 486 489
3 487 486 490
3 488 487 490
3 491 488 490
3 493 489 492
3 490 489 493
3 491 490 493
3 494 491 493
3 496 492 495
3 493 492 496
3 494 493 496
3 497 494 496
3 499 495 498
3 496 495 499
3 497 496 499
3 500 497 499
3 502 498 501
3 499 498 502
3 500 499 502
3 503 500 502
3 505 501 504
3 502 501 505
3 503 502 505
3 506 503 505
3 508 504 507
3 505 504 508
3 506 505 508
3 509 506 508
3 511 507 510
3 508 507 511
3 509 508 511
3 512 509 511
3 514 510 513
3 511 510 514
3 512 511 514
3 515 512 514
3 517 513 516
3 514 513 517
3 515 514 517
3 518 515 517
3 520 516 519
3 517 516 520
3 518 517 520
3 521 518 520
3 519 522 520
3 520 522 521
3 525 523 524
3 526 523 525
3 528 524 527
3 525 524 528
3 526 525 528
3 529 526 528
3 531 527 530
3 528 527 531
3 529 528 531
3 532 529 531
3 534 530 533
3 531 530 534
3 532 531 534
3 535 532 534
3 537 533 536
3 534 533 537
3 535 534 537
3 538 535 537
3 540 536 539
3 537 536 540
3 538 537 540
3 541 538 540
3 543 539 542
3 540 539 543
3 541 540 543
3 544 541 543
3 546 542 545
3 543 542 546
3 544 543 546
3 547 544 546
3 549 545 548
3 546 545 549
3 547 546 549
3 550 547 549
3 552 548 551
3 549 548 552
3 550 549 552
3 553 550 552
3 555 551 554
3 552 551 555
3 553 552 555
3 556 553 555
3 558 554 557
3 555 554 558
3 556 555 558
3 559 556 558
3 561 557 560
3 558 557 561
3 559 558 561
3 562 559 561
3 564 560 563
3 561 560 564
3 562 561 564
3 565 562 564
3 567 563 566
3 564 563 567
3 565 564 567
3 568 565 567
3 570 566 569
3 567 566 570
3 568 567 570
3 571 568 570
3 573 569 572
3 570 569 573
3 571 570 573
3 574 571 573
3 576 572 575
3 573 572 576
3 574 573 576
3 577 574 576
3 579 575 578
3 576 575 579
3 577 576 579
3 580 577 579
3 582 578 581
3 579 578 582
3 580 579 582
3 583 580 582
3 585 581 584
3 582 581 585
3 583 582 585
3 586 583 585
3 588 584 587
3 585 584 588
3 586 585 588
3 589 586 588
3 591 587 590
3 588 587 591
3 589 588 591
3 592 589 591
3 590 593 591
3 591 593 592
3 596 594 595
3 597 594 596
3 599 595 598
3 596 595 599
3 597 596 599
3 600 597 599
3 602 598 601
3 599 598 602
3 600 599 602
3 603 600 602
3 605 601 604
3 602 601 605
3 603 602 605
3 606 603 605
3 608 604 607
3 605 604 608
3 606 605 608
3 609 606 608
3 611 607 610
3 608 607 611
3 609 608 611
3 612 609 611
3 614 610 613
3 611 610 614
3 612 611 614
3 615 612 614
3 617 613 616
3 614 613 617
3 615 614 617
3 618 615 617
3 620 616 619
3 617 616 620
3 618 617 620
3 621 618 620
3 623 619 622
3 620 619 623
3 621 620 623
3 624 621 623
3 626 622 625
3 623 622 626
3 624 623 626
3 627 624 626
3 629 625 628
3 626 625 629
3 627 626 629
3 630 627 629
3 632 628 631
3 629 628 632
3 630 629 632
3 633 630 632
3 635 631 634
3 632 631 635
3 633 632 635
3 636 633 635
3 638 634 637
3 635 634 638
3 636 635 638
3 639 636 638
3 641 637 640
3 638 637 641
3 639 638 641
3 642 639 641
3 644 640 643
3 641 640 644
3 642 641 644
3 645 642 644
3 647 643 646
3 644 643 647
3 645 644 647
3 648 645 647
3 650 646 649
3 647 646 650
3 648 647 650
3 651 648 650
3 653 649 652
3 650 649 653
3 651 650 653
3 654 651 653
3 656 652 655
3 653 652 656
3 654 653 656
3 657 654 656
3 659 655 658
3 656 655 659
3 657 656 659
3 660 657 659
3 662 658 661
3 659 658 662
3 660 659 662
3 663 660 662
3 661 664 662
3 662 664 663
