ply
format ascii 1.0
element vertex 726
property float x
property float y
property float z
element face 912
property list uchar int vertex_indices
end_header
305.854 -155.809 26.5831
285.609 -119.593 23.6663
289.878 -147.745 24.8531
290.963 -171.746 25.8386
246.115 -84.8301 19.942
242.803 -128.501 21.2672
239.838 -171.661 22.6318
217.301 -69.8275 17.4922
198.806 -111.254 17.7793
184.903 -155.728 18.5044
163.897 -48.8061 13.1318
144.825 -84.8771 13.1955
127.644 -122.038 13.4211
93.4056 -26.6945 7.5494
81.2835 -49.397 7.58216
69.2076 -71.9506 7.59692
12.4934 -7.28074 1.2657
11.845 -7.42063 1.23292
11.4976 -7.71525 1.22051
0.422832 -0.297766 0.0419347
180.317 -260.699 24.5235
181.073 -235.954 22.7036
174.64 -250.692 23.2708
170.669 -265.42 24.0954
167.72 -176.841 18.6881
151.573 -216.561 20.4451
136.08 -255.619 22.2315
150.594 -139.504 15.7189
124.946 -183.468 17.3528
101.776 -231.251 19.3714
116.477 -99.0161 11.6923
91.0416 -137.49 13.0131
66.3838 -176.573 14.4115
67.7779 -55.66 6.78423
51.0003 -78.9566 7.53481
33.9537 -101.402 8.20724
7.72777 -11.4697 1.22822
7.4145 -12.1664 1.26007
7.30642 -13.0392 1.30687
0.317076 -0.456511 0.0461013
39.0778 -290.876 22.6678
49.9895 -277.755 21.5045
36.3979 -279.414 21.3701
23.6386 -283.441 21.563
62.677 -245.057 19.3763
28.8086 -243.534 18.9086
-4.50814 -244.233 18.6598
65.1359 -214.772 17.206
21.7264 -203.793 15.9935
-20.7512 -198.806 15.276
54.6278 -159.465 12.9415
14.5197 -150.869 11.9533
-25.1409 -144.848 11.1635
32.9067 -89.8274 7.42796
7.50526 -86.0498 6.9306
-17.8354 -82.384 6.42514
1.76193 -14.4921 1.2823
1.22648 -13.7393 1.2258
0.737578 -13.1848 1.17925
0.073676 -0.472666 0.0402713
-122.235 -320.494 26.539
-97.2758 -310.789 24.8732
-117.116 -307.715 25.1162
-134.898 -305.84 25.5416
-64.5367 -283.52 22.2817
-101.598 -271.2 22.3785
-138.636 -261.708 22.7127
-43.187 -250.793 19.496
-85.3301 -228.907 19.0382
-128.572 -212.837 19.0558
-26.2897 -194.009 14.9986
-63.9162 -171.828 14.4039
-102.108 -153.361 14.0992
-13.0671 -111.833 8.69744
-36.895 -98.7768 8.40163
-60.6086 -85.9668 8.10934
-5.26824 -15.2098 1.40221
-5.57249 -14.1566 1.33439
-5.95503 -13.6095 1.29981
-0.162535 -0.72408 0.0597147
-208.3 -235.565 24.3263
-187.614 -230.474 22.6798
-200.733 -228.088 23.1351
-214.249 -228.48 23.9155
-140.619 -209.292 19.3252
-175.588 -199.738 20.529
-210.717 -191.217 21.8383
-112.584 -187.976 16.7815
-149.047 -166.227 17.3864
-188.901 -148.157 18.3994
-79.0718 -144.245 12.5902
-111.768 -122.121 12.997
-145.48 -101.351 13.5337
-43.6133 -83.3603 7.27246
-64.2958 -68.9409 7.51236
-84.6288 -54.3009 7.7087
-9.64561 -10.6601 1.26295
-9.9029 -10.1927 1.25182
-10.3114 -9.98824 1.25776
-0.351197 -0.42582 0.0449044
-287.996 -149.467 25.1005
-260.487 -150.466 22.9601
-276.02 -144.047 23.7155
-290.67 -139.212 24.6089
-203.626 -140.77 18.9633
-239.261 -125.877 20.8299
-274.493 -111.69 22.7281
-168.381 -125.879 16.0997
-204.495 -104.101 17.7906
-245.902 -83.9879 19.9134
-122.817 -98.2104 12.0416
-154.242 -75.8408 13.4063
-186.961 -53.7465 14.8651
-69.7034 -57.7487 7.00334
-88.8518 -42.4003 7.78042
-107.26 -26.6203 8.47921
-12.9683 -6.11304 1.25223
-13.4087 -6.03009 1.28253
-14.1194 -6.13311 1.33138
-0.566849 -0.282661 0.0500561
-338.771 -56.6714 26.5861
-303.171 -72.6396 23.8189
-321.213 -54.8043 24.8684
-334.875 -39.0744 25.7677
-261.417 -81.3207 20.969
-277.846 -45.8733 21.7609
-295.321 -11.2786 22.6773
-235.451 -79.4518 19.0382
-236.924 -35.2033 18.6446
-246.103 8.19174 18.8639
-178.111 -64.4796 14.5283
-178.156 -23.8803 14.0846
-181.353 16.1962 13.8832
-101.499 -38.0712 8.3967
-102.262 -12.466 8.17758
-103.107 12.9764 7.95267
-15.5855 -2.03995 1.3622
-14.8531 -1.45971 1.30403
-14.569 -0.995837 1.27545
-0.674847 -0.082798 0.054404
-277.291 61.5566 21.9896
-270.608 53.4876 21.0358
-269.291 59.3683 20.9676
-273.839 65.3113 21.4716
-243.535 28.6273 18.7859
-248.735 47.8781 19.4481
-257.132 67.0346 20.3728
-215.726 14.2478 16.5518
-215.893 38.7055 16.9242
-221.997 64.4896 17.7751
-164.217 3.2676 12.5456
-163.333 28.5118 12.8663
-164.255 54.518 13.3317
-95.0062 -1.0594 7.30587
-94.2983 16.466 7.5295
-92.8875 34.279 7.69355
-14.7331 2.99949 1.30496
-14.6089 2.97687 1.29726
-14.7892 2.90708 1.3047
-0.688868 -0.00846529 0.0524436
-261.561 203.766 25.6678
-251.576 169.563 23.1797
-250.541 193.484 24.1485
-249.575 213.594 25.0958
-213.794 117.28 18.6817
-212.036 161.978 20.6259
-210.194 204.798 22.5155
-182.468 91.8396 15.6408
-173.106 137.393 17.2305
-164.882 184.7 18.9893
-138.204 65.0771 11.7097
-129.783 108.201 13.2796
-123.588 153.83 15.1078
-80.5201 37.2934 6.89316
-75.296 65.3668 7.94434
-69.3145 92.6161 8.89665
-11.2556 9.92012 1.31177
-11.7015 10.9161 1.39109
-12.4019 12.0552 1.48695
-0.606653 0.597229 0.0681485
-132.046 287.574 24.4816
-136.558 262.83 22.6186
-127.707 275.671 23.1395
-120.894 287.357 23.7966
-137.704 199.829 18.6223
-110.77 225.396 19.4287
-84.1033 248.176 20.0966
-133.892 167.198 16.3961
-93.8026 185.062 16.2253
-55.3726 204.174 16.2327
-120.785 145.186 14.4512
-75.0673 145.406 12.9028
-33.7862 152.573 11.9935
-74.8482 88.4816 8.93775
-46.0531 88.7241 7.98715
-17.7242 89.5762 7.08486
-9.26687 17.5278 1.69151
-7.69833 15.846 1.52097
-6.44308 14.4539 1.37579
-0.655728 0.953258 0.0910244
-27.4464 339.162 26.2612
-40.8394 322.037 24.7583
-25.4493 325.937 24.8458
-10.9491 330.013 25.0975
-56.6511 274.101 21.4533
-18.8453 275.449 21.3252
18.418 278.713 21.3953
-60.9318 220.02 17.5026
-13.239 219.123 17.1784
33.4532 220.478 17.0697
-51.6444 155.871 12.5844
-8.21069 155.401 12.3277
34.619 156.006 12.1595
-31.0578 85.4281 7.04051
-3.8655 85.6569 6.92412
23.1185 86.0167 6.80304
-1.16494 12.6234 1.14241
-0.512484 12.334 1.12026
0.0772896 12.2683 1.11062
-0.0521242 0.235136 0.0225701
99.1848 289.992 23.7152
84.3981 282.841 22.5161
96.1428 281.375 22.6407
108.601 284.375 23.2553
55.5719 256.172 20.0905
91.5132 251.32 20.6745
129.128 249.848 21.5852
34.1801 217.53 16.8785
79.0259 207.182 17.2958
124.48 199.839 17.9663
18.4616 161.002 12.4224
59.407 150.463 12.7245
100.379 141.062 13.1083
8.46284 91.1031 7.09019
34.3031 84.3841 7.27773
59.8464 77.4136 7.42565
4.62345 12.8443 1.20999
5.13088 12.5304 1.20305
5.7001 12.4699 1.2105
0.148921 0.413934 0.0365537
232.051 241.037 25.898
200.462 236.814 23.6958
221.93 230.938 24.434
241.338 226.032 25.2676
162.009 217.77 20.7869
195.96 200.842 21.6702
231.721 186.525 22.8228
123.21 184.24 16.9652
163.551 162.543 17.9619
205.964 142.646 19.1941
84.2258 137.236 12.3246
120.385 116.235 13.1462
156.983 95.821 14.0228
45.738 78.022 6.99999
68.2323 64.2405 7.47639
90.3058 50.253 7.90469
9.46477 9.23989 1.17627
9.93375 9.00138 1.19224
10.586 9.00406 1.22561
0.304233 0.287202 0.034835
291.027 119.722 24.3427
269.866 124.795 22.6913
280.525 116.828 23.1338
292.419 111.652 23.8888
220.252 128.165 19.5257
245.046 104.82 20.5602
269.878 82.9819 21.6732
188.72 121.622 17.2034
209.638 85.2289 17.6408
234.785 50.112 18.4403
141.123 96.4134 13.1296
163.437 60.7186 13.7393
189.733 25.677 14.667
81.5844 56.3983 7.72639
97.5097 33.3467 8.24705
112.631 10.3541 8.69527
15.0922 5.20452 1.39657
15.6706 4.55915 1.42683
16.5688 4.09474 1.47976
0.89294 0.197446 0.0745623
314.219 -43.898 24.5574
295.388 -23.415 22.6377
302.578 -40.3761 23.2647
310.879 -54.4001 24.0989
239.726 9.3074 18.3998
260.121 -30.3129 20.2591
279.259 -68.2685 22.0548
203.354 19.9599 15.6386
220.381 -26.5041 17.3284
239.331 -73.3879 19.1982
176.067 19.893 13.5641
174.143 -21.5897 13.7954
178.664 -63.2583 14.5267
108.335 12.5751 8.42654
105.73 -13.495 8.48261
102.999 -39.3314 8.51717
18.9227 -2.25891 1.62962
17.7408 -2.75942 1.54359
17.0128 -3.19307 1.4861
1.20115 -0.0626776 0.0947773
-167.077 366.975 137.087
-174.584 353.188 133.624
-166.135 362.955 135.202
-158.772 368.759 136.176
-171.264 332.773 126.942
-159.925 345.124 129.072
-148.908 357.662 131.411
-168.251 313.685 120.891
-152.214 328.853 123.305
-136.27 344.659 125.873
-165.614 295.873 115.015
-144.655 313.413 117.464
-123.648 331.449 120.006
-162.96 277.009 109.159
-136.6 296.784 111.579
-110.054 317.072 113.996
-160.41 258.471 103.255
-129.041 280.818 105.687
-97.2237 303.411 108.148
-157.679 239.946 97.3874
-121.654 264.688 99.7944
-84.663 289.224 102.219
-153.852 221.13 91.5108
-114.233 247.669 93.903
-74.1032 273.607 96.2822
-147.347 205.457 85.7426
-107.523 231.865 88.0128
-68.0089 257.513 90.3279
-137.596 190.617 79.8556
-100.354 215.55 82.1225
-63.3983 240.311 84.4204
-127.572 176.931 73.9631
-93.3744 200.386 76.2134
-59.2312 223.924 78.5458
-116.996 162.468 68.0198
-85.8527 184.38 70.2817
-54.6794 206.432 72.5483
-107.055 148.71 62.1223
-78.7015 169.245 64.3338
-50.2821 189.82 66.5791
-96.5816 134.154 56.1727
-71.1178 153.21 58.3808
-45.6966 172.496 60.6336
-86.5475 120.259 50.2189
-63.9224 138.016 52.4088
-41.3185 155.88 54.6646
-75.8631 105.399 44.1447
-56.2596 121.87 46.41
-36.6269 138.365 48.6482
-65.7988 91.3883 38.1552
-49.0057 106.62 40.4136
-32.1778 121.946 42.7401
-55.0384 76.4363 32.0417
-41.3269 90.4608 34.4015
-27.6187 104.802 36.8584
-44.919 62.2189 25.9665
-34.0646 75.0611 28.3361
-23.1771 87.992 30.8062
-34.1082 47.1178 19.7287
-26.3813 58.6685 22.1881
-18.5035 70.1581 24.615
-23.4826 33.3951 13.9291
-18.8481 42.4203 16.0737
-14.194 51.616 18.2344
-13.2715 23.042 9.01504
-11.8237 26.9708 10.0083
-10.3906 30.8379 11.0122
-0.574834 11.2165 3.77792
-4.42589 10.1871 3.98304
-8.21632 9.18489 4.20668
0.0017972 0.00461864 -0.000192165
153.919 -366.531 135.14
155.99 -359.696 132.97
152.682 -363.598 133.542
148.464 -369.181 134.962
149.358 -343.2 126.953
144.115 -351.281 128.788
137.86 -362.025 131.424
147.266 -324.388 121
135.458 -336.512 123.361
122.423 -350.362 126.064
146.581 -305.954 115.088
128.212 -320.995 117.524
109.187 -336.457 119.995
145.483 -286.838 109.244
121.222 -303.949 111.607
97.2716 -321.021 113.921
143.265 -268.809 103.386
114.638 -287.812 105.713
87.0756 -306.151 108.029
138.6 -251.82 97.4821
107.564 -271.962 99.842
77.292 -291.373 102.243
130.827 -235.663 91.5549
99.5098 -255.63 93.9726
67.5174 -275.856 96.4696
122.548 -220.892 85.6705
91.8859 -240.32 88.069
59.3751 -260.27 90.5411
113.806 -205.379 79.7623
84.4769 -223.932 82.1358
53.9938 -242.799 84.4862
105.554 -190.615 73.8843
78.115 -208.298 76.1965
50.1979 -226.008 78.5074
96.891 -175.036 67.9706
71.7146 -191.701 70.2693
46.4552 -208.464 72.557
88.6954 -160.229 62.0898
65.7577 -176.016 64.346
42.8438 -192.004 66.7009
80.0142 -144.543 56.1418
59.4299 -159.349 58.402
38.9356 -174.488 60.7468
71.6731 -129.476 50.1599
53.403 -143.484 52.4139
35.1483 -157.624 54.7435
62.9176 -113.674 44.166
46.9732 -126.593 46.3865
31.0296 -139.585 48.6008
54.5238 -98.481 38.1404
40.8834 -110.604 40.3521
27.117 -122.667 42.5713
45.6343 -82.3577 32.0307
34.4719 -93.7166 34.3216
23.2862 -105.391 36.7028
37.1798 -66.9953 25.9286
28.4511 -77.6581 28.2565
19.6699 -88.6656 30.751
28.3722 -50.9921 19.7957
22.1062 -60.3964 22.0679
15.7368 -70.1098 24.4229
19.616 -35.8661 13.9407
15.8738 -42.8072 15.7726
12.0814 -49.6393 17.5415
11.2521 -23.728 8.87795
10.1233 -26.415 9.62725
9.00305 -29.2558 10.4445
0.0345469 -11.23 3.73523
4.06342 -9.98004 3.87987
7.89325 -8.92335 4.06844
-0.00385761 0.00592709 -0.00333118
-381.266 91.5357 133.292
-378.376 91.3183 132.03
-378.549 91.0293 131.838
-381.853 92.531 133.264
-360.631 97.68 126.738
-366.894 88.5027 128.029
-376.028 80.5385 130.456
-341.479 101.639 121.004
-351.888 84.3089 123.097
-364.19 66.9359 125.772
-323.2 103.943 115.164
-335.941 80.0359 117.492
-349.514 55.7081 120.059
-303.827 105.427 109.233
-318.168 75.7161 111.645
-332.665 46.2252 114.067
-285.661 105.686 103.379
-301.159 71.5939 105.741
-316.128 38.2869 108.078
-268.321 103.513 97.5345
-284.344 67.0664 99.8522
-299.732 31.1714 102.208
-251.399 98.0973 91.6638
-266.923 61.8115 93.968
-282.482 24.6268 96.316
-235.678 91.8957 85.7902
-250.632 56.9118 88.0618
-265.708 20.548 90.385
-218.95 85.1843 79.8082
-233.374 52.2521 82.1398
-248.018 18.4164 84.4777
-203.125 78.9713 73.9006
-217.02 48.2959 76.2063
-231.017 17.2831 78.5584
-186.351 72.4882 67.9333
-199.657 44.3212 70.2647
-213.023 16.0072 72.5729
-170.616 66.3647 62.0663
-183.249 40.6177 64.3223
-195.92 14.7927 66.6175
-154.016 59.938 56.1609
-165.876 36.6935 58.3794
-177.947 13.4558 60.6368
-137.994 53.6609 50.1843
-149.417 32.9527 52.418
-160.956 12.1676 54.7173
-120.984 47.0428 44.1265
-131.932 28.9667 46.4322
-143.166 10.8942 48.8009
-104.834 40.7447 38.1094
-115.316 25.174 40.4149
-125.885 9.49404 42.7828
-87.7948 34.1631 32.0473
-97.6534 21.1575 34.3622
-107.692 8.15707 36.7291
-71.5846 27.8636 25.9961
-80.8988 17.3436 28.2811
-90.2575 6.71582 30.6435
-54.418 21.2168 19.8193
-63.1397 13.3204 22.1437
-71.9715 5.42935 24.4933
-37.3425 14.4144 13.6655
-45.3586 9.25661 15.9847
-53.4654 4.02413 18.2756
-22.8229 7.95847 8.20736
-28.5679 5.47649 9.93927
-34.319 3.13185 11.6863
-8.44792 7.28213 3.59933
-10.7265 2.32563 3.9716
-13.0714 -2.54652 4.3647
-0.000955582 -0.00759077 -0.000469685
-337.042 -215.467 135.985
-332.61 -209.089 133.274
-334.076 -213.5 134.264
-335.042 -217.189 135.445
-322.754 -189.28 126.919
-319.765 -204.867 128.87
-317.65 -221.021 131.279
-311.566 -172.485 120.947
-304.637 -196.036 123.316
-298.185 -220.519 125.955
-300.291 -157.588 115.037
-289.941 -187.145 117.513
-279.857 -216.877 120.097
-287.935 -142.861 109.175
-274.145 -177.482 111.618
-260.846 -211.344 114.021
-275.069 -130.652 103.353
-258.945 -168.724 105.724
-243.01 -205.767 108.08
-260.476 -122.014 97.5476
-243.53 -160.617 99.8553
-225.727 -199.771 102.24
-244.451 -114.419 91.6802
-227.423 -152.184 93.9775
-209.184 -191.687 96.3726
-228.929 -107.311 85.7475
-212.71 -143.677 88.0527
-195.6 -181.07 90.3974
-212.521 -99.7167 79.7454
-197.621 -134.077 82.1033
-182.284 -168.803 84.3889
-197.078 -92.478 73.819
-183.632 -124.784 76.1688
-169.923 -157.234 78.5066
-181.113 -84.981 67.9693
-168.957 -114.897 70.2598
-156.885 -144.967 72.5678
-165.937 -77.8681 62.1443
-155.099 -105.546 64.3475
-144.328 -133.385 66.6334
-149.587 -70.1718 56.1475
-140.361 -95.6239 58.4143
-131.416 -121.342 60.777
-133.863 -62.8168 50.1195
-126.323 -86.1892 52.4359
-118.788 -109.734 54.8194
-117.655 -55.2006 44.1783
-111.379 -76.1403 46.4202
-105.314 -97.3301 48.7404
-102.058 -47.8869 38.1978
-97.1696 -66.5684 40.3674
-92.3433 -85.3422 42.6123
-85.2728 -39.9558 32.0344
-82.0311 -56.3934 34.2659
-78.6933 -72.862 36.4726
-69.2691 -32.4901 25.892
-67.7599 -46.8032 28.1736
-66.062 -61.0534 30.4558
-52.6897 -24.704 19.7463
-52.8083 -36.7705 22.0996
-52.998 -49.0142 24.4976
-36.2867 -17.1688 13.7047
-37.8732 -26.7115 16.013
-39.7213 -36.479 18.3824
-21.4739 -11.0737 8.20622
-23.3812 -16.9528 9.87578
-25.4763 -22.767 11.5879
-11.0604 -1.02994 3.58399
-8.98186 -6.08541 3.92937
-7.07866 -11.1952 4.32714
0.00934792 -0.00527525 -0.00179362
386.93 98.5265 135.737
382.096 91.2821 133.29
383.73 97.1575 134.059
385.84 100.16 135.217
367.02 73.4772 126.972
368.625 90.7195 128.83
371.709 106.924 131.199
351.012 61.2744 121.003
351.878 86.0123 123.303
353.625 110.657 125.84
335.457 51.8703 115.132
335.258 82.0745 117.521
335.436 112.811 120.051
318.82 42.2444 109.234
317.273 77.7766 111.641
315.737 114.297 114.052
302.757 32.6285 103.362
300.204 73.2721 105.733
297.067 114.736 108.088
286.616 23.7816 97.5476
283.345 68.3197 99.839
279.437 112.71 102.191
269.106 17.6029 91.604
265.846 63.0372 93.9398
262.399 107.241 96.2821
252.11 15.6764 85.6635
249.495 58.5698 88.0265
246.701 100.862 90.393
234.359 14.929 79.7715
232.268 54.4006 82.1199
230.216 93.9656 84.4635
217.582 13.948 73.9315
216.015 50.6505 76.2139
214.524 87.4853 78.564
199.84 12.9504 68.0372
198.768 46.7056 70.2975
197.956 80.7221 72.6269
182.711 11.7491 62.0732
182.385 42.9532 64.3478
182.135 74.268 66.691
164.595 10.6491 56.0493
164.959 38.9582 58.3691
165.305 67.4145 60.6596
147.462 9.47162 50.0846
148.491 35.1784 52.3897
149.475 60.9482 54.7199
129.622 8.39325 44.1553
131.076 31.1812 46.4141
132.785 54.1591 48.7415
112.485 7.22246 38.1921
114.546 27.3785 40.412
116.71 47.58 42.7127
94.2297 6.10427 32.1216
96.9468 23.3465 34.3651
99.7827 40.6991 36.6488
76.5714 4.88799 25.9659
80.2529 19.5333 28.2906
83.9365 34.2212 30.6899
58.0194 3.78137 19.7297
62.5776 15.515 22.1671
67.1921 27.3766 24.6212
39.9693 2.71161 13.6788
44.9173 11.4663 16.0359
50.0239 20.2934 18.3994
24.1888 2.67867 8.27039
28.0876 7.63492 9.95998
32.0582 12.4785 11.6685
10.9055 -2.65499 3.60941
10.5742 2.85362 3.9675
10.3852 8.21407 4.35533
-0.00219536 0.00492167 -0.000602722
158.468 361.065 134.044
148.639 361.42 132.542
156.788 358.627 132.543
163.943 358.95 133.839
134.257 348.897 126.814
149.433 347.252 128.272
164.317 348.082 130.571
119.693 335.493 120.987
142.71 332.498 123.137
165.769 331.113 125.771
107.188 321.87 115.08
136.551 316.981 117.47
165.407 312.715 120.011
96.4349 306.928 109.266
130.352 299.805 111.627
163.515 293.094 113.992
89.491 291.497 103.489
125.035 283.255 105.751
160.764 274.603 108.003
84.3402 275.378 97.6759
119.925 266.743 99.8855
156.918 257.154 102.173
79.2818 258.284 91.779
114.065 249.67 94.0083
150.533 240.073 96.2461
74.3922 242.041 85.8774
107.804 234.026 88.1115
142.271 225.438 90.4094
68.9763 224.981 79.8916
100.554 217.832 82.2024
132.753 210.447 84.5183
63.5421 209.248 73.9949
93.371 202.71 76.2789
123.476 195.971 78.5462
57.5858 192.874 68.1795
85.5992 186.8 70.3672
113.656 180.556 72.4801
51.9091 177.575 62.4098
78.2251 171.861 64.4798
104.429 165.996 66.4926
45.9592 161.443 56.694
70.4798 156.118 58.6352
94.9056 150.866 60.5616
40.4904 146.196 50.9884
63.2438 141.258 52.8023
85.8434 136.438 54.6422
34.9563 129.938 45.308
55.6924 125.459 46.9762
76.3297 121.297 48.7108
30.0274 114.42 39.6069
48.6586 110.395 41.1151
67.121 106.631 42.6985
25.2052 97.7232 33.901
41.3455 94.2465 35.216
57.2508 90.9009 36.5351
21.0493 81.6634 28.1484
34.6312 78.8624 29.2955
48.0728 76.1968 30.5009
17.1265 64.2612 22.3573
27.7269 62.4399 23.3441
38.4645 60.895 24.4351
13.7066 46.3935 16.4968
20.7882 45.7064 17.2805
28.1866 45.3516 18.1903
10.8999 29.0329 10.5457
13.6581 29.1988 10.9603
16.2213 29.1749 11.3031
8.51088 8.66233 4.09371
4.91136 10.4791 4.16005
1.38701 12.3767 4.26291
0.0132332 0.0130444 0.00502729
3 0 1 2
3 0 2 3
3 1 4 5
3 1 5 2
3 2 5 3
3 3 5 6
3 4 7 8
3 4 8 5
3 5 8 6
3 6 8 9
3 7 10 11
3 7 11 8
3 8 11 9
3 9 11 12
3 10 13 14
3 10 14 11
3 11 14 12
3 12 14 15
3 13 16 17
3 13 17 14
3 14 17 15
3 15 17 18
3 19 17 16
3 19 18 17
3 20 21 22
3 20 22 23
3 21 24 25
3 21 25 22
3 22 25 23
3 23 25 26
3 24 27 28
3 24 28 25
3 25 28 26
3 26 28 29
3 27 30 31
3 27 31 28
3 28 31 29
3 29 31 32
3 30 33 34
3 30 34 31
3 31 34 32
3 32 34 35
3 33 36 37
3 33 37 34
3 34 37 35
3 35 37 38
3 39 37 36
3 39 38 37
3 40 41 42
3 40 42 43
3 41 44 45
3 41 45 42
3 42 45 43
3 43 45 46
3 44 47 48
3 44 48 45
3 45 48 46
3 46 48 49
3 47 50 51
3 47 51 48
3 48 51 49
3 49 51 52
3 50 53 54
3 50 54 51
3 51 54 52
3 52 54 55
3 53 56 57
3 53 57 54
3 54 57 55
3 55 57 58
3 59 57 56
3 59 58 57
3 60 61 62
3 60 62 63
3 61 64 65
3 61 65 62
3 62 65 63
3 63 65 66
3 64 67 68
3 64 68 65
3 65 68 66
3 66 68 69
3 67 70 71
3 67 71 68
3 68 71 69
3 69 71 72
3 70 73 74
3 70 74 71
3 71 74 72
3 72 74 75
3 73 76 77
3 73 77 74
3 74 77 75
3 75 77 78
3 79 77 76
3 79 78 77
3 80 81 82
3 80 82 83
3 81 84 85
3 81 85 82
3 82 85 83
3 83 85 86
3 84 87 88
3 84 88 85
3 85 88 86
3 86 88 89
3 87 90 91
3 87 91 88
3 88 91 89
3 89 91 92
3 90 93 94
3 90 94 91
3 91 94 92
3 92 94 95
3 93 96 97
3 93 97 94
3 94 97 95
3 95 97 98
3 99 97 96
3 99 98 97
3 100 101 102
3 100 102 103
3 101 104 105
3 101 105 102
3 102 105 103
3 103 105 106
3 104 107 108
3 104 108 105
3 105 108 106
3 106 108 109
3 107 110 111
3 107 111 108
3 108 111 109
3 109 111 112
3 110 113 114
3 110 114 111
3 111 114 112
3 112 114 115
3 113 116 117
3 113 117 114
3 114 117 115
3 115 117 118
3 119 117 116
3 119 118 117
3 120 121 122
3 120 122 123
3 121 124 125
3 121 125 122
3 122 125 123
3 123 125 126
3 124 127 128
3 124 128 125
3 125 128 126
3 126 128 129
3 127 130 131
3 127 131 128
3 128 131 129
3 129 131 132
3 130 133 134
3 130 134 131
3 131 134 132
3 132 134 135
3 133 136 137
3 133 137 134
3 134 137 135
3 135 137 138
3 139 137 136
3 139 138 137
3 140 141 142
3 140 142 143
3 141 144 145
3 141 145 142
3 142 145 143
3 143 145 146
3 144 147 148
3 144 148 145
3 145 148 146
3 146 148 149
3 147 150 151
3 147 151 148
3 148 151 149
3 149 151 152
3 150 153 154
3 150 154 151
3 151 154 152
3 152 154 155
3 153 156 157
3 153 157 154
3 154 157 155
3 155 157 158
3 159 157 156
3 159 158 157
3 160 161 162
3 160 162 163
3 161 164 165
3 161 165 162
3 162 165 163
3 163 165 166
3 164 167 168
3 164 168 165
3 165 168 166
3 166 168 169
3 167 170 171
3 167 171 168
3 168 171 169
3 169 171 172
3 170 173 174
3 170 174 171
3 171 174 172
3 172 174 175
3 173 176 177
3 173 177 174
3 174 177 175
3 175 177 178
3 179 177 176
3 179 178 177
3 180 181 182
3 180 182 183
3 181 184 185
3 181 185 182
3 182 185 183
3 183 185 186
3 184 187 188
3 184 188 185
3 185 188 186
3 186 188 189
3 187 190 191
3 187 191 188
3 188 191 189
3 189 191 192
3 190 193 194
3 190 194 191
3 191 194 192
3 192 194 195
3 193 196 197
3 193 197 194
3 194 197 195
3 195 197 198
3 199 197 196
3 199 198 197
3 200 201 202
3 200 202 203
3 201 204 205
3 201 205 202
3 202 205 203
3 203 205 206
3 204 207 208
3 204 208 205
3 205 208 206
3 206 208 209
3 207 210 211
3 207 211 208
3 208 211 209
3 209 211 212
3 210 213 214
3 210 214 211
3 211 214 212
3 212 214 215
3 213 216 217
3 213 217 214
3 214 217 215
3 215 217 218
3 219 217 216
3 219 218 217
3 220 221 222
3 220 222 223
3 221 224 225
3 221 225 222
3 222 225 223
3 223 225 226
3 224 227 228
3 224 228 225
3 225 228 226
3 226 228 229
3 227 230 231
3 227 231 228
3 228 231 229
3 229 231 232
3 230 233 234
3 230 234 231
3 231 234 232
3 232 234 235
3 233 236 237
3 233 237 234
3 234 237 235
3 235 237 238
3 239 237 236
3 239 238 237
3 240 241 242
3 240 242 243
3 241 244 245
3 241 245 242
3 242 245 243
3 243 245 246
3 244 247 248
3 244 248 245
3 245 248 246
3 246 248 249
3 247 250 251
3 247 251 248
3 248 251 249
3 249 251 252
3 250 253 254
3 250 254 251
3 251 254 252
3 252 254 255
3 253 256 257
3 253 257 254
3 254 257 255
3 255 257 258
3 259 257 256
3 259 258 257
3 260 261 262
3 260 262 263
3 261 264 265
3 261 265 262
3 262 265 263
3 263 265 266
3 264 267 268
3 264 268 265
3 265 268 266
3 266 268 269
3 267 270 271
3 267 271 268
3 268 271 269
3 269 271 272
3 270 273 274
3 270 274 271
3 271 274 272
3 272 274 275
3 273 276 277
3 273 277 274
3 274 277 275
3 275 277 278
3 279 277 276
3 279 278 277
3 280 281 282
3 280 282 283
3 281 284 285
3 281 285 282
3 282 285 283
3 283 285 286
3 284 287 288
3 284 288 285
3 285 288 286
3 286 288 289
3 287 290 291
3 287 291 288
3 288 291 289
3 289 291 292
3 290 293 294
3 290 294 291
3 291 294 292
3 292 294 295
3 293 296 297
3 293 297 294
3 294 297 295
3 295 297 298
3 299 297 296
3 299 298 297
3 302 300 301
3 303 300 302
3 305 301 304
3 302 301 305
3 303 302 305
3 306 303 305
3 308 304 307
3 305 304 308
3 306 305 308
3 309 306 308
3 311 307 310
3 308 307 311
3 309 308 311
3 312 309 311
3 314 310 313
3 311 310 314
3 312 311 314
3 315 312 314
3 317 313 316
3 314 313 317
3 315 314 317
3 318 315 317
3 320 316 319
3 317 316 320
3 318 317 320
3 321 318 320
3 323 319 322
3 320 319 323
3 321 320 323
3 324 321 323
3 326 322 325
3 323 322 326
3 324 323 326
3 327 324 326
3 329 325 328
3 326 325 329
3 327 326 329
3 330 327 329
3 332 328 331
3 329 328 332
3 330 329 332
3 333 330 332
3 335 331 334
3 332 331 335
3 333 332 335
3 336 333 335
3 338 334 337
3 335 334 338
3 336 335 338
3 339 336 338
3 341 337 340
3 338 337 341
3 339 338 341
3 342 339 341
3 344 340 343
3 341 340 344
3 342 341 344
3 345 342 344
3 347 343 346
3 344 343 347
3 345 344 347
3 348 345 347
3 350 346 349
3 347 346 350
3 348 347 350
3 351 348 350
3 353 349 352
3 350 349 353
3 351 350 353
3 354 351 353
3 356 352 355
3 353 352 356
3 354 353 356
3 357 354 356
3 359 355 358
3 356 355 359
3 357 356 359
3 360 357 359
3 362 358 361
3 359 358 362
3 360 359 362
3 363 360 362
3 365 361 364
3 362 361 365
3 363 362 365
3 366 363 365
3 368 364 367
3 365 364 368
3 366 365 368
3 369 366 368
3 367 370 368
3 368 370 369
3 373 371 372
3 374 371 373
3 376 372 375
3 373 372 376
3 374 373 376
3 377 374 376
3 379 375 378
3 376 375 379
3 377 376 379
3 380 377 379
3 382 378 381
3 379 378 382
3 380 379 382
3 383 380 382
3 385 381 384
3 382 381 385
3 383 382 385
3 386 383 385
3 388 384 387
3 385 384 388
3 386 385 388
3 389 386 388
3 391 387 390
3 388 387 391
3 389 388 391
3 392 389 391
3 394 390 393
3 391 390 394
3 392 391 394
3 395 392 394
3 397 393 396
3 394 393 397
3 395 394 397
3 398 395 397
3 400 396 399
3 397 396 400
3 398 397 400
3 401 398 400
3 403 399 402
3 400 399 403
3 401 400 403
3 404 401 403
3 406 402 405
3 403 402 406
3 404 403 406
3 407 404 406
3 409 405 408
3 406 405 409
3 407 406 409
3 410 407 409
3 412 408 411
3 409 408 412
3 410 409 412
3 413 410 412
3 415 411 414
3 412 411 415
3 413 412 415
3 416 413 415
3 418 414 417
3 415 414 418
3 416 415 418
3 419 416 418
3 421 417 420
3 418 417 421
3 419 418 421
3 422 419 421
3 424 420 423
3 421 420 424
3 422 421 424
3 425 422 424
3 427 423 426
3 424 423 427
3 425 424 427
3 428 425 427
3 430 426 429
3 427 426 430
3 428 427 430
3 431 428 430
3 433 429 432
3 430 429 433
3 431 430 433
3 434 431 433
3 436 432 435
3 433 432 436
3 434 433 436
3 437 434 436
3 439 435 438
3 436 435 439
3 437 436 439
3 440 437 439
3 438 441 439
3 439 441 440
3 444 442 443
3 445 442 444
3 447 443 446
3 444 443 447
3 445 444 447
3 448 445 447
3 450 446 449
3 447 446 450
3 448 447 450
3 451 448 450
3 453 449 452
3 450 449 453
3 451 450 453
3 454 451 453
3 456 452 455
3 453 452 456
3 454 453 456
3 457 454 456
3 459 455 458
3 456 455 459
3 457 456 459
3 460 457 459
3 462 458 461
3 459 458 462
3 460 459 462
3 463 460 462
3 465 461 464
3 462 461 465
3 463 462 465
3 466 463 465
3 468 464 467
3 465 464 468
3 466 465 468
3 469 466 468
3 471 467 470
3 468 467 471
3 469 468 471
3 472 469 471
3 474 470 473
3 471 470 474
3 472 471 474
3 475 472 474
3 477 473 476
3 474 473 477
3 475 474 477
3 478 475 477
3 480 476 479
3 477 476 480
3 478 477 480
3 481 478 480
3 483 479 482
3 480 479 483
3 481 480 483
3 484 481 483
3 486 482 485
3 483 482 486
3 484 483 486
3 487 484 486
3 489 485 488
3 486 485 489
3 487 486 489
3 490 487 489
3 492 488 491
3 489 488 492
3 490 489 492
3 493 490 492
3 495 491 494
3 492 491 495
3 493 492 495
3 496 493 495
3 498 494 497
3 495 494 498
3 496 495 498
3 499 496 498
3 501 497 500
3 498 497 501
3 499 498 501
3 502 499 501
3 504 500 503
3 501 500 504
3 502 501 504
3 505 502 504
3 507 503 506
3 504 503 507
3 505 504 507
3 508 505 507
3 510 506 509
3 507 506 510
3 508 507 510
3 511 508 510
3 509 512 510
3 510 512 511
3 515 513 514
3 516 513 515
3 518 514 517
3 515 514 518
3 516 515 518
3 519 516 518
3 521 517 520
3 518 517 521
3 519 518 521
3 522 519 521
3 524 520 523
3 521 520 524
3 522 521 524
3 525 522 524
3 527 523 526
3 524 523 527
3 525 524 527
3 528 525 527
3 530 526 529
3 527 526 530
3 528 527 530
3 531 528 530
3 533 529 532
3 530 529 533
3 531 530 533
3 534 531 533
3 536 532 535
3 533 532 536
3 534 533 536
3 537 534 536
3 539 535 538
3 536 535 539
3 537 536 539
3 540 537 539
3 542 538 541
3 539 538 542
3 540 539 542
3 543 540 542
3 545 541 544
3 542 541 545
3 543 542 545
3 546 543 545
3 548 544 547
3 545 544 548
3 546 545 548
3 549 546 548
3 551 547 550
3 548 547 551
3 549 548 551
3 552 549 551
3 554 550 553
3 551 550 554
3 552 551 554
3 555 552 554
3 557 553 556
3 554 553 557
3 555 554 557
3 558 555 557
3 560 556 559
3 557 556 560
3 558 557 560
3 561 558 560
3 563 559 562
3 560 559 563
3 561 560 563
3 564 561 563
3 566 562 565
3 563 562 566
3 564 563 566
3 567 564 566
3 569 565 568
3 566 565 569
3 567 566 569
3 570 567 569
3 572 568 571
3 569 568 572
3 570 569 572
3 573 570 572
3 575 571 574
3 572 571 575
3 573 572 575
3 576 573 575
3 578 574 577
3 575 574 578
3 576 575 578
3 579 576 578
3 581 577 580
3 578 577 581
3 579 578 581
3 582 579 581
3 580 583 581
3 581 583 582
3 586 584 585
3 587 584 586
3 589 585 588
3 586 585 589
3 587 586 589
3 590 587 589
3 592 588 591
3 589 588 592
3 590 589 592
3 593 590 592
3 595 591 594
3 592 591 595
3 593 592 595
3 596 593 595
3 598 594 597
3 595 594 598
3 596 595 598
3 599 596 598
3 601 597 600
3 598 597 601
3 599 598 601
3 602 599 601
3 604 600 603
3 601 600 604
3 602 601 604
3 605 602 604
3 607 603 606
3 604 603 607
3 605 604 607
3 608 605 607
3 610 606 609
3 607 606 610
3 608 607 610
3 611 608 610
3 613 609 612
3 610 609 613
3 611 610 613
3 614 611 613
3 616 612 615
3 613 612 616
3 614 613 616
3 617 614 616
3 619 615 618
3 616 615 619
3 617 616 619
3 620 617 619
3 622 618 621
3 619 618 622
3 620 619 622
3 623 620 622
3 625 621 624
3 622 621 625
3 623 622 625
3 626 623 625
3 628 624 627
3 625 624 628
3 626 625 628
3 629 626 628
3 631 627 630
3 628 627 631
3 629 628 631
3 632 629 631
3 634 630 633
3 631 630 634
3 632 631 634
3 635 632 634
3 637 633 636
3 634 633 637
3 635 634 637
3 638 635 637
3 640 636 639
3 637 636 640
3 638 637 640
3 641 638 640
3 643 639 642
3 640 639 643
3 641 640 643
3 644 641 643
3 646 642 645
3 643 642 646
3 644 643 646
3 647 644 646
3 649 645 648
3 646 645 649
3 647 646 649
3 650 647 649
3 652 648 651
3 649 648 652
3 650 649 652
3 653 650 652
3 651 654 652
3 652 654 653
3 657 655 656
3 658 655 657
3 660 656 659
3 657 656 660
3 658 657 660
3 661 658 660
3 663 659 662
3 660 659 663
3 661 660 663
3 664 661 663
3 666 662 665
3 663 662 666
3 664 663 666
3 667 664 666
3 669 665 668
3 666 665 669
3 667 666 669
3 670 667 669
3 672 668 671
3 669 668 672
3 670 669 672
3 673 670 672
3 675 671 674
3 672 671 675
3 673 672 675
3 676 673 675
3 678 674 677
3 675 674 678
3 676 675 678
3 679 676 678
3 681 677 680
3 678 677 681
3 679 678 681
3 682 679 681
3 684 680 683
3 681 680 684
3 682 681 684
3 685 682 684
3 687 683 686
3 684 683 687
3 685 684 687
3 688 685 687
3 690 686 689
3 687 686 690
3 688 687 690
3 691 688 690
3 693 689 692
3 690 689 693
3 691 690 693
3 694 691 693
3 696 692 695
3 693 692 696
3 694 693 696
3 697 694 696
3 699 695 698
3 696 695 699
3 697 696 699
3 700 697 699
3 702 698 701
3 699 698 702
3 700 699 702
3 703 700 702
3 705 701 704
3 702 701 705
3 703 702 705
3 706 703 705
3 708 704 707
3 705 704 708
3 706 705 708
3 709 706 708
3 711 707 710
3 708 707 711
3 709 708 711
3 712 709 711
3 714 710 713
3 711 710 714
3 712 711 714
3 715 712 714
3 717 713 716
3 714 713 717
3 715 714 717
3 718 715 717
3 720 716 719
3 717 716 720
3 718 717 720
3 721 718 720
3 723 719 722
3 720 719 723
3 721 720 723
3 724 721 723
3 722 725 723
3 723 725 724
