ply
format ascii 1.0
element vertex 426
property float x
property float y
property float z
element face 552
property list uchar int vertex_indices
end_header
-167.077 366.975 137.087
-174.584 353.188 133.624
-166.135 362.955 135.202
-158.772 368.759 136.176
-171.264 332.773 126.942
-159.925 345.124 129.072
-148.908 357.662 131.411
-168.251 313.685 120.891
-152.214 328.853 123.305
-136.27 344.659 125.873
-165.614 295.873 115.015
-144.655 313.413 117.464
-123.648 331.449 120.006
-162.96 277.009 109.159
-136.6 296.784 111.579
-110.054 317.072 113.996
-160.41 258.471 103.255
-129.041 280.818 105.687
-97.2237 303.411 108.148
-157.679 239.946 97.3874
-121.654 264.688 99.7944
-84.663 289.224 102.219
-153.852 221.13 91.5108
-114.233 247.669 93.903
-74.1032 273.607 96.2822
-147.347 205.457 85.7426
-107.523 231.865 88.0128
-68.0089 257.513 90.3279
-137.596 190.617 79.8556
-100.354 215.55 82.1225
-63.3983 240.311 84.4204
-127.572 176.931 73.9631
-93.3744 200.386 76.2134
-59.2312 223.924 78.5458
-116.996 162.468 68.0198
-85.8527 184.38 70.2817
-54.6794 206.432 72.5483
-107.055 148.71 62.1223
-78.7015 169.245 64.3338
-50.2821 189.82 66.5791
-96.5816 134.154 56.1727
-71.1178 153.21 58.3808
-45.6966 172.496 60.6336
-86.5475 120.259 50.2189
-63.9224 138.016 52.4088
-41.3185 155.88 54.6646
-75.8631 105.399 44.1447
-56.2596 121.87 46.41
-36.6269 138.365 48.6482
-65.7988 91.3883 38.1552
-49.0057 106.62 40.4136
-32.1778 121.946 42.7401
-55.0384 76.4363 32.0417
-41.3269 90.4608 34.4015
-27.6187 104.802 36.8584
-44.919 62.2189 25.9665
-34.0646 75.0611 28.3361
-23.1771 87.992 30.8062
-34.1082 47.1178 19.7287
-26.3813 58.6685 22.1881
-18.5035 70.1581 24.615
-23.4826 33.3951 13.9291
-18.8481 42.4203 16.0737
-14.194 51.616 18.2344
-13.2715 23.042 9.01504
-11.8237 26.9708 10.0083
-10.3906 30.8379 11.0122
-0.574834 11.2165 3.77792
-4.42589 10.1871 3.98304
-8.21632 9.18489 4.20668
0.0017972 0.00461864 -0.000192165
153.919 -366.531 135.14
155.99 -359.696 132.97
152.682 -363.598 133.542
148.464 -369.181 134.962
149.358 -343.2 126.953
144.115 -351.281 128.788
137.86 -362.025 131.424
147.266 -324.388 121
135.458 -336.512 123.361
122.423 -350.362 126.064
146.581 -305.954 115.088
128.212 -320.995 117.524
109.187 -336.457 119.995
145.483 -286.838 109.244
121.222 -303.949 111.607
97.2716 -321.021 113.921
143.265 -268.809 103.386
114.638 -287.812 105.713
87.0756 -306.151 108.029
138.6 -251.82 97.4821
107.564 -271.962 99.842
77.292 -291.373 102.243
130.827 -235.663 91.5549
99.5098 -255.63 93.9726
67.5174 -275.856 96.4696
122.548 -220.892 85.6705
91.8859 -240.32 88.069
59.3751 -260.27 90.5411
113.806 -205.379 79.7623
84.4769 -223.932 82.1358
53.9938 -242.799 84.4862
105.554 -190.615 73.8843
78.115 -208.298 76.1965
50.1979 -226.008 78.5074
96.891 -175.036 67.9706
71.7146 -191.701 70.2693
46.4552 -208.464 72.557
88.6954 -160.229 62.0898
65.7577 -176.016 64.346
42.8438 -192.004 66.7009
80.0142 -144.543 56.1418
59.4299 -159.349 58.402
38.9356 -174.488 60.7468
71.6731 -129.476 50.1599
53.403 -143.484 52.4139
35.1483 -157.624 54.7435
62.9176 -113.674 44.166
46.9732 -126.593 46.3865
31.0296 -139.585 48.6008
54.5238 -98.481 38.1404
40.8834 -110.604 40.3521
27.117 -122.667 42.5713
45.6343 -82.3577 32.0307
34.4719 -93.7166 34.3216
23.2862 -105.391 36.7028
37.1798 -66.9953 25.9286
28.4511 -77.6581 28.2565
19.6699 -88.6656 30.751
28.3722 -50.9921 19.7957
22.1062 -60.3964 22.0679
15.7368 -70.1098 24.4229
19.616 -35.8661 13.9407
15.8738 -42.8072 15.7726
12.0814 -49.6393 17.5415
11.2521 -23.728 8.87795
10.1233 -26.415 9.62725
9.00305 -29.2558 10.4445
0.0345469 -11.23 3.73523
4.06342 -9.98004 3.87987
7.89325 -8.92335 4.06844
-0.00385761 0.00592709 -0.00333118
-381.266 91.5357 133.292
-378.376 91.3183 132.03
-378.549 91.0293 131.838
-381.853 92.531 133.264
-360.631 97.68 126.738
-366.894 88.5027 128.029
-376.028 80.5385 130.456
-341.479 101.639 121.004
-351.888 84.3089 123.097
-364.19 66.9359 125.772
-323.2 103.943 115.164
-335.941 80.0359 117.492
-349.514 55.7081 120.059
-303.827 105.427 109.233
-318.168 75.7161 111.645
-332.665 46.2252 114.067
-285.661 105.686 103.379
-301.159 71.5939 105.741
-316.128 38.2869 108.078
-268.321 103.513 97.5345
-284.344 67.0664 99.8522
-299.732 31.1714 102.208
-251.399 98.0973 91.6638
-266.923 61.8115 93.968
-282.482 24.6268 96.316
-235.678 91.8957 85.7902
-250.632 56.9118 88.0618
-265.708 20.548 90.385
-218.95 85.1843 79.8082
-233.374 52.2521 82.1398
-248.018 18.4164 84.4777
-203.125 78.9713 73.9006
-217.02 48.2959 76.2063
-231.017 17.2831 78.5584
-186.351 72.4882 67.9333
-199.657 44.3212 70.2647
-213.023 16.0072 72.5729
-170.616 66.3647 62.0663
-183.249 40.6177 64.3223
-195.92 14.7927 66.6175
-154.016 59.938 56.1609
-165.876 36.6935 58.3794
-177.947 13.4558 60.6368
-137.994 53.6609 50.1843
-149.417 32.9527 52.418
-160.956 12.1676 54.7173
-120.984 47.0428 44.1265
-131.932 28.9667 46.4322
-143.166 10.8942 48.8009
-104.834 40.7447 38.1094
-115.316 25.174 40.4149
-125.885 9.49404 42.7828
-87.7948 34.1631 32.0473
-97.6534 21.1575 34.3622
-107.692 8.15707 36.7291
-71.5846 27.8636 25.9961
-80.8988 17.3436 28.2811
-90.2575 6.71582 30.6435
-54.418 21.2168 19.8193
-63.1397 13.3204 22.1437
-71.9715 5.42935 24.4933
-37.3425 14.4144 13.6655
-45.3586 9.25661 15.9847
-53.4654 4.02413 18.2756
-22.8229 7.95847 8.20736
-28.5679 5.47649 9.93927
-34.319 3.13185 11.6863
-8.44792 7.28213 3.59933
-10.7265 2.32563 3.9716
-13.0714 -2.54652 4.3647
-0.000955582 -0.00759077 -0.000469685
-337.042 -215.467 135.985
-332.61 -209.089 133.274
-334.076 -213.5 134.264
-335.042 -217.189 135.445
-322.754 -189.28 126.919
-319.765 -204.867 128.87
-317.65 -221.021 131.279
-311.566 -172.485 120.947
-304.637 -196.036 123.316
-298.185 -220.519 125.955
-300.291 -157.588 115.037
-289.941 -187.145 117.513
-279.857 -216.877 120.097
-287.935 -142.861 109.175
-274.145 -177.482 111.618
-260.846 -211.344 114.021
-275.069 -130.652 103.353
-258.945 -168.724 105.724
-243.01 -205.767 108.08
-260.476 -122.014 97.5476
-243.53 -160.617 99.8553
-225.727 -199.771 102.24
-244.451 -114.419 91.6802
-227.423 -152.184 93.9775
-209.184 -191.687 96.3726
-228.929 -107.311 85.7475
-212.71 -143.677 88.0527
-195.6 -181.07 90.3974
-212.521 -99.7167 79.7454
-197.621 -134.077 82.1033
-182.284 -168.803 84.3889
-197.078 -92.478 73.819
-183.632 -124.784 76.1688
-169.923 -157.234 78.5066
-181.113 -84.981 67.9693
-168.957 -114.897 70.2598
-156.885 -144.967 72.5678
-165.937 -77.8681 62.1443
-155.099 -105.546 64.3475
-144.328 -133.385 66.6334
-149.587 -70.1718 56.1475
-140.361 -95.6239 58.4143
-131.416 -121.342 60.777
-133.863 -62.8168 50.1195
-126.323 -86.1892 52.4359
-118.788 -109.734 54.8194
-117.655 -55.2006 44.1783
-111.379 -76.1403 46.4202
-105.314 -97.3301 48.7404
-102.058 -47.8869 38.1978
-97.1696 -66.5684 40.3674
-92.3433 -85.3422 42.6123
-85.2728 -39.9558 32.0344
-82.0311 -56.3934 34.2659
-78.6933 -72.862 36.4726
-69.2691 -32.4901 25.892
-67.7599 -46.8032 28.1736
-66.062 -61.0534 30.4558
-52.6897 -24.704 19.7463
-52.8083 -36.7705 22.0996
-52.998 -49.0142 24.4976
-36.2867 -17.1688 13.7047
-37.8732 -26.7115 16.013
-39.7213 -36.479 18.3824
-21.4739 -11.0737 8.20622
-23.3812 -16.9528 9.87578
-25.4763 -22.767 11.5879
-11.0604 -1.02994 3.58399
-8.98186 -6.08541 3.92937
-7.07866 -11.1952 4.32714
0.00934792 -0.00527525 -0.00179362
386.93 98.5265 135.737
382.096 91.2821 133.29
383.73 97.1575 134.059
385.84 100.16 135.217
367.02 73.4772 126.972
368.625 90.7195 128.83
371.709 106.924 131.199
351.012 61.2744 121.003
351.878 86.0123 123.303
353.625 110.657 125.84
335.457 51.8703 115.132
335.258 82.0745 117.521
335.436 112.811 120.051
318.82 42.2444 109.234
317.273 77.7766 111.641
315.737 114.297 114.052
302.757 32.6285 103.362
300.204 73.2721 105.733
297.067 114.736 108.088
286.616 23.7816 97.5476
283.345 68.3197 99.839
279.437 112.71 102.191
269.106 17.6029 91.604
265.846 63.0372 93.9398
262.399 107.241 96.2821
252.11 15.6764 85.6635
249.495 58.5698 88.0265
246.701 100.862 90.393
234.359 14.929 79.7715
232.268 54.4006 82.1199
230.216 93.9656 84.4635
217.582 13.948 73.9315
216.015 50.6505 76.2139
214.524 87.4853 78.564
199.84 12.9504 68.0372
198.768 46.7056 70.2975
197.956 80.7221 72.6269
182.711 11.7491 62.0732
182.385 42.9532 64.3478
182.135 74.268 66.691
164.595 10.6491 56.0493
164.959 38.9582 58.3691
165.305 67.4145 60.6596
147.462 9.47162 50.0846
148.491 35.1784 52.3897
149.475 60.9482 54.7199
129.622 8.39325 44.1553
131.076 31.1812 46.4141
132.785 54.1591 48.7415
112.485 7.22246 38.1921
114.546 27.3785 40.412
116.71 47.58 42.7127
94.2297 6.10427 32.1216
96.9468 23.3465 34.3651
99.7827 40.6991 36.6488
76.5714 4.88799 25.9659
80.2529 19.5333 28.2906
83.9365 34.2212 30.6899
58.0194 3.78137 19.7297
62.5776 15.515 22.1671
67.1921 27.3766 24.6212
39.9693 2.71161 13.6788
44.9173 11.4663 16.0359
50.0239 20.2934 18.3994
24.1888 2.67867 8.27039
28.0876 7.63492 9.95998
32.0582 12.4785 11.6685
10.9055 -2.65499 3.60941
10.5742 2.85362 3.9675
10.3852 8.21407 4.35533
-0.00219536 0.00492167 -0.000602722
158.468 361.065 134.044
148.639 361.42 132.542
156.788 358.627 132.543
163.943 358.95 133.839
134.257 348.897 126.814
149.433 347.252 128.272
164.317 348.082 130.571
119.693 335.493 120.987
142.71 332.498 123.137
165.769 331.113 125.771
107.188 321.87 115.08
136.551 316.981 117.47
165.407 312.715 120.011
96.4349 306.928 109.266
130.352 299.805 111.627
163.515 293.094 113.992
89.491 291.497 103.489
125.035 283.255 105.751
160.764 274.603 108.003
84.3402 275.378 97.6759
119.925 266.743 99.8855
156.918 257.154 102.173
79.2818 258.284 91.779
114.065 249.67 94.0083
150.533 240.073 96.2461
74.3922 242.041 85.8774
107.804 234.026 88.1115
142.271 225.438 90.4094
68.9763 224.981 79.8916
100.554 217.832 82.2024
132.753 210.447 84.5183
63.5421 209.248 73.9949
93.371 202.71 76.2789
123.476 195.971 78.5462
57.5858 192.874 68.1795
85.5992 186.8 70.3672
113.656 180.556 72.4801
51.9091 177.575 62.4098
78.2251 171.861 64.4798
104.429 165.996 66.4926
45.9592 161.443 56.694
70.4798 156.118 58.6352
94.9056 150.866 60.5616
40.4904 146.196 50.9884
63.2438 141.258 52.8023
85.8434 136.438 54.6422
34.9563 129.938 45.308
55.6924 125.459 46.9762
76.3297 121.297 48.7108
30.0274 114.42 39.6069
48.6586 110.395 41.1151
67.121 106.631 42.6985
25.2052 97.7232 33.901
41.3455 94.2465 35.216
57.2508 90.9009 36.5351
21.0493 81.6634 28.1484
34.6312 78.8624 29.2955
48.0728 76.1968 30.5009
17.1265 64.2612 22.3573
27.7269 62.4399 23.3441
38.4645 60.895 24.4351
13.7066 46.3935 16.4968
20.7882 45.7064 17.2805
28.1866 45.3516 18.1903
10.8999 29.0329 10.5457
13.6581 29.1988 10.9603
16.2213 29.1749 11.3031
8.51088 8.66233 4.09371
4.91136 10.4791 4.16005
1.38701 12.3767 4.26291
0.0132332 0.0130444 0.00502729
3 0 1 2
3 0 2 3
3 1 4 5
3 1 5 2
3 2 5 3
3 3 5 6
3 4 7 8
3 4 8 5
3 5 8 6
3 6 8 9
3 7 10 11
3 7 11 8
3 8 11 9
3 9 11 12
3 10 13 14
3 10 14 11
3 11 14 12
3 12 14 15
3 13 16 17
3 13 17 14
3 14 17 15
3 15 17 18
3 16 19 20
3 16 20 17
3 17 20 18
3 18 20 21
3 19 22 23
3 19 23 20
3 20 23 21
3 21 23 24
3 22 25 26
3 22 26 23
3 23 26 24
3 24 26 27
3 25 28 29
3 25 29 26
3 26 29 27
3 27 29 30
3 28 31 32
3 28 32 29
3 29 32 30
3 30 32 33
3 31 34 35
3 31 35 32
3 32 35 33
3 33 35 36
3 34 37 38
3 34 38 35
3 35 38 36
3 36 38 39
3 37 40 41
3 37 41 38
3 38 41 39
3 39 41 42
3 40 43 44
3 40 44 41
3 41 44 42
3 42 44 45
3 43 46 47
3 43 47 44
3 44 47 45
3 45 47 48
3 46 49 50
3 46 50 47
3 47 50 48
3 48 50 51
3 49 52 53
3 49 53 50
3 50 53 51
3 51 53 54
3 52 55 56
3 52 56 53
3 53 56 54
3 54 56 57
3 55 58 59
3 55 59 56
3 56 59 57
3 57 59 60
3 58 61 62
3 58 62 59
3 59 62 60
3 60 62 63
3 61 64 65
3 61 65 62
3 62 65 63
3 63 65 66
3 64 67 68
3 64 68 65
3 65 68 66
3 66 68 69
3 70 68 67
3 70 69 68
3 71 72 73
3 71 73 74
3 72 75 76
3 72 76 73
3 73 76 74
3 74 76 77
3 75 78 79
3 75 79 76
3 76 79 77
3 77 79 80
3 78 81 82
3 78 82 79
3 79 82 80
3 80 82 83
3 81 84 85
3 81 85 82
3 82 85 83
3 83 85 86
3 84 87 88
3 84 88 85
3 85 88 86
3 86 88 89
3 87 90 91
3 87 91 88
3 88 91 89
3 89 91 92
3 90 93 94
3 90 94 91
3 91 94 92
3 92 94 95
3 93 96 97
3 93 97 94
3 94 97 95
3 95 97 98
3 96 99 100
3 96 100 97
3 97 100 98
3 98 100 101
3 99 102 103
3 99 103 100
3 100 103 101
3 101 103 104
3 102 105 106
3 102 106 103
3 103 106 104
3 104 106 107
3 105 108 109
3 105 109 106
3 106 109 107
3 107 109 110
3 108 111 112
3 108 112 109
3 109 112 110
3 110 112 113
3 111 114 115
3 111 115 112
3 112 115 113
3 113 115 116
3 114 117 118
3 114 118 115
3 115 118 116
3 116 118 119
3 117 120 121
3 117 121 118
3 118 121 119
3 119 121 122
3 120 123 124
3 120 124 121
3 121 124 122
3 122 124 125
3 123 126 127
3 123 127 124
3 124 127 125
3 125 127 128
3 126 129 130
3 126 130 127
3 127 130 128
3 128 130 131
3 129 132 133
3 129 133 130
3 130 133 131
3 131 133 134
3 132 135 136
3 132 136 133
3 133 136 134
3 134 136 137
3 135 138 139
3 135 139 136
3 136 139 137
3 137 139 140
3 141 139 138
3 141 140 139
3 142 143 144
3 142 144 145
3 143 146 147
3 143 147 144
3 144 147 145
3 145 147 148
3 146 149 150
3 146 150 147
3 147 150 148
3 148 150 151
3 149 152 153
3 149 153 150
3 150 153 151
3 151 153 154
3 152 155 156
3 152 156 153
3 153 156 154
3 154 156 157
3 155 158 159
3 155 159 156
3 156 159 157
3 157 159 160
3 158 161 162
3 158 162 159
3 159 162 160
3 160 162 163
3 161 164 165
3 161 165 162
3 162 165 163
3 163 165 166
3 164 167 168
3 164 168 165
3 165 168 166
3 166 168 169
3 167 170 171
3 167 171 168
3 168 171 169
3 169 171 172
3 170 173 174
3 170 174 171
3 171 174 172
3 172 174 175
3 173 176 177
3 173 177 174
3 174 177 175
3 175 177 178
3 176 179 180
3 176 180 177
3 177 180 178
3 178 180 181
3 179 182 183
3 179 183 180
3 180 183 181
3 181 183 184
3 182 185 186
3 182 186 183
3 183 186 184
3 184 186 187
3 185 188 189
3 185 189 186
3 186 189 187
3 187 189 190
3 188 191 192
3 188 192 189
3 189 192 190
3 190 192 193
3 191 194 195
3 191 195 192
3 192 195 193
3 193 195 196
3 194 197 198
3 194 198 195
3 195 198 196
3 196 198 199
3 197 200 201
3 197 201 198
3 198 201 199
3 199 201 202
3 200 203 204
3 200 204 201
3 201 204 202
3 202 204 205
3 203 206 207
3 203 207 204
3 204 207 205
3 205 207 208
3 206 209 210
3 206 210 207
3 207 210 208
3 208 210 211
3 212 210 209
3 212 211 210
3 213 214 215
3 213 215 216
3 214 217 218
3 214 218 215
3 215 218 216
3 216 218 219
3 217 220 221
3 217 221 218
3 218 221 219
3 219 221 222
3 220 223 224
3 220 224 221
3 221 224 222
3 222 224 225
3 223 226 227
3 223 227 224
3 224 227 225
3 225 227 228
3 226 229 230
3 226 230 227
3 227 230 228
3 228 230 231
3 229 232 233
3 229 233 230
3 230 233 231
3 231 233 234
3 232 235 236
3 232 236 233
3 233 236 234
3 234 236 237
3 235 238 239
3 235 239 236
3 236 239 237
3 237 239 240
3 238 241 242
3 238 242 239
3 239 242 240
3 240 242 243
3 241 244 245
3 241 245 242
3 242 245 243
3 243 245 246
3 244 247 248
3 244 248 245
3 245 248 246
3 246 248 249
3 247 250 251
3 247 251 248
3 248 251 249
3 249 251 252
3 250 253 254
3 250 254 251
3 251 254 252
3 252 254 255
3 253 256 257
3 253 257 254
3 254 257 255
3 255 257 258
3 256 259 260
3 256 260 257
3 257 260 258
3 258 260 261
3 259 262 263
3 259 263 260
3 260 263 261
3 261 263 264
3 262 265 266
3 262 266 263
3 263 266 264
3 264 266 267
3 265 268 269
3 265 269 266
3 266 269 267
3 267 269 270
3 268 271 272
3 268 272 269
3 269 272 270
3 270 272 273
3 271 274 275
3 271 275 272
3 272 275 273
3 273 275 276
3 274 277 278
3 274 278 275
3 275 278 276
3 276 278 279
3 277 280 281
3 277 281 278
3 278 281 279
3 279 281 282
3 283 281 280
3 283 282 281
3 284 285 286
3 284 286 287
3 285 288 289
3 285 289 286
3 286 289 287
3 287 289 290
3 288 291 292
3 288 292 289
3 289 292 290
3 290 292 293
3 291 294 295
3 291 295 292
3 292 295 293
3 293 295 296
3 294 297 298
3 294 298 295
3 295 298 296
3 296 298 299
3 297 300 301
3 297 301 298
3 298 301 299
3 299 301 302
3 300 303 304
3 300 304 301
3 301 304 302
3 302 304 305
3 303 306 307
3 303 307 304
3 304 307 305
3 305 307 308
3 306 309 310
3 306 310 307
3 307 310 308
3 308 310 311
3 309 312 313
3 309 313 310
3 310 313 311
3 311 313 314
3 312 315 316
3 312 316 313
3 313 316 314
3 314 316 317
3 315 318 319
3 315 319 316
3 316 319 317
3 317 319 320
3 318 321 322
3 318 322 319
3 319 322 320
3 320 322 323
3 321 324 325
3 321 325 322
3 322 325 323
3 323 325 326
3 324 327 328
3 324 328 325
3 325 328 326
3 326 328 329
3 327 330 331
3 327 331 328
3 328 331 329
3 329 331 332
3 330 333 334
3 330 334 331
3 331 334 332
3 332 334 335
3 333 336 337
3 333 337 334
3 334 337 335
3 335 337 338
3 336 339 340
3 336 340 337
3 337 340 338
3 338 340 341
3 339 342 343
3 339 343 340
3 340 343 341
3 341 343 344
3 342 345 346
3 342 346 343
3 343 346 344
3 344 346 347
3 345 348 349
3 345 349 346
3 346 349 347
3 347 349 350
3 348 351 352
3 348 352 349
3 349 352 350
3 350 352 353
3 354 352 351
3 354 353 352
3 355 356 357
3 355 357 358
3 356 359 360
3 356 360 357
3 357 360 358
3 358 360 361
3 359 362 363
3 359 363 360
3 360 363 361
3 361 363 364
3 362 365 366
3 362 366 363
3 363 366 364
3 364 366 367
3 365 368 369
3 365 369 366
3 366 369 367
3 367 369 370
3 368 371 372
3 368 372 369
3 369 372 370
3 370 372 373
3 371 374 375
3 371 375 372
3 372 375 373
3 373 375 376
3 374 377 378
3 374 378 375
3 375 378 376
3 376 378 379
3 377 380 381
3 377 381 378
3 378 381 379
3 379 381 382
3 380 383 384
3 380 384 381
3 381 384 382
3 382 384 385
3 383 386 387
3 383 387 384
3 384 387 385
3 385 387 388
3 386 389 390
3 386 390 387
3 387 390 388
3 388 390 391
3 389 392 393
3 389 393 390
3 390 393 391
3 391 393 394
3 392 395 396
3 392 396 393
3 393 396 394
3 394 396 397
3 395 398 399
3 395 399 396
3 396 399 397
3 397 399 400
3 398 401 402
3 398 402 399
3 399 402 400
3 400 402 403
3 401 404 405
3 401 405 402
3 402 405 403
3 403 405 406
3 404 407 408
3 404 408 405
3 405 408 406
3 406 408 409
3 407 410 411
3 407 411 408
3 408 411 409
3 409 411 412
3 410 413 414
3 410 414 411
3 411 414 412
3 412 414 415
3 413 416 417
3 413 417 414
3 414 417 415
3 415 417 418
3 416 419 420
3 416 420 417
3 417 420 418
3 418 420 421
3 419 422 423
3 419 423 420
3 420 423 421
3 421 423 424
3 425 423 422
3 425 424 423
