ply
format ascii 1.0
element vertex 310
property float x
property float y
property float z
element face 400
property list uchar int vertex_indices
end_header
-81.9781 125.281 96.2047
-89.2381 120.472 96.4276
-71.9788 128.073 96.0433
-50.132 140.382 96.5092
-94.2967 108.03 91.756
-58.3872 121.133 90.0412
-18.5092 141.419 91.5693
-94.5439 98.0578 86.6255
-50.9258 114.112 85.1931
-4.79801 136.276 86.4173
-93.1712 88.5253 81.5866
-46.061 105.871 80.232
-0.165507 128.426 81.3344
-91.0633 80.0933 76.5541
-42.9773 98.0832 75.2912
2.91147 120.933 76.3965
-88.1072 71.7053 71.8082
-40.1876 89.9057 70.3965
6.79355 112.752 71.4858
-84.4322 64.9238 67.0915
-37.6426 82.5978 65.4787
7.11741 105.728 66.6747
-79.3772 57.7822 62.289
-34.7989 74.9211 60.5527
7.48938 97.3898 61.5275
-74.1159 51.8047 57.4027
-32.0809 68.1515 55.6047
7.52253 89.649 56.3202
-67.562 45.5117 52.4708
-28.9255 60.9705 50.6477
8.09549 81.234 51.3169
-61.1834 40.2146 47.4903
-25.9542 54.7324 45.6813
7.68579 74.0155 46.4746
-53.9947 34.965 42.4704
-22.6445 48.1157 40.7089
7.33014 66.4204 41.6273
-45.8206 29.51 37.4185
-19.1102 41.1465 35.7111
6.36399 58.337 36.74
-38.1527 24.7113 32.3456
-15.9835 34.9555 30.6794
5.27 50.301 31.7262
-31.5436 20.8453 27.2631
-13.2252 29.4687 25.6352
4.23529 42.5848 26.5899
-24.4567 16.979 22.1572
-10.2725 23.3178 20.5782
2.8036 34.7114 21.6159
-16.5599 12.6899 17.043
-7.23072 16.656 15.5144
1.15504 24.658 16.6284
-10.3403 9.25027 11.8635
-4.74563 11.0293 10.4718
-0.279995 16.2641 11.5468
-3.68118 6.36008 7.22264
-2.07337 4.83826 5.37898
-1.87516 7.32307 7.04418
1.91257 1.26016 0.945837
-0.117265 -1.01077 0.210225
-3.30375 -2.11191 0.603326
0.199245 0.175161 -0.248863
104.716 111.632 98.7215
91.8352 120.783 97.6948
107.558 105.664 98.1744
117.603 95.9109 97.574
70.4703 124.493 91.9993
92.958 100.385 90.6984
118.419 80.6766 91.7647
53.7853 124.753 86.6755
83.6387 95.6058 85.491
115.559 71.4728 86.6191
41.0765 121.661 81.6594
74.8726 90.4822 80.4139
110.673 64.4391 81.5382
31.9393 117.129 76.7355
67.6491 85.5846 75.4466
105.414 59.2258 76.5802
24.8323 111.186 72.0246
60.6793 79.9876 70.5052
99.4756 53.7942 71.7655
19.4037 105.132 67.2067
54.8239 74.6079 65.5477
93.742 48.8067 66.6497
14.5013 97.7092 62.3491
49.0005 68.5397 60.5906
86.6247 43.5459 61.2875
11.0717 90.5405 57.4463
44.0913 62.8852 55.6273
80.4133 39.38 56.1658
8.08958 82.0464 52.525
39.1257 56.646 50.7007
73.027 34.9867 51.1212
6.13745 74.0473 47.5604
35.0887 51.0176 45.8252
66.5883 31.4559 46.162
4.74935 65.2984 42.5774
31.0796 44.9875 41.0906
59.8926 27.8898 41.2629
3.76106 55.5028 37.6076
26.8835 38.5715 36.3728
54.6367 25.6397 37.8312
3.20056 46.4065 32.6231
23.2013 32.81 31.5991
47.9747 22.7885 33.6051
2.96818 38.6851 27.6076
19.8556 27.5365 26.7036
41.044 20.0184 28.8363
3.03028 30.4987 22.5648
15.8287 21.6785 21.6623
32.705 16.622 23.7151
3.0983 21.3461 17.509
11.2853 15.4185 16.4735
22.6421 12.4702 18.3285
3.1292 14.03 12.3096
7.53132 10.071 11.2322
14.3957 9.10956 12.7573
4.00499 6.62209 7.80482
3.3956 4.29701 5.90113
5.57947 5.24658 7.70627
1.55561 -1.51053 0.991112
-0.892711 -0.263392 0.174523
-2.88371 2.99143 0.697243
0.230664 -0.184705 -0.277768
139.519 -57.4557 97.0754
141.519 -50.9196 96.7834
136.396 -61.1454 97.0068
135.182 -69.8385 97.6413
137.804 -30.7948 91.1822
127.863 -50.2719 90.427
122.63 -72.3551 91.4946
135.084 -10.4283 86.8468
120.562 -42.1207 85.4126
112.751 -74.5107 86.3334
128.513 5.52047 81.919
112.461 -35.0091 80.4097
102.836 -75.5759 81.4341
120.64 14.9803 76.9361
104.78 -29.5409 75.432
94.6702 -75.4336 76.7057
111.365 22.1155 71.7919
96.4735 -24.4726 70.4402
86.4186 -73.4586 71.7713
102.685 27.0196 66.7949
89.0102 -20.3065 65.4435
79.5351 -70.1865 66.6318
93.2895 30.481 61.7111
81.1275 -16.2112 60.4267
72.9436 -65.3477 61.6822
84.5231 32.0216 56.6108
74.255 -12.7975 55.4266
67.6829 -60.1814 56.6782
75.3857 32.3694 51.617
67.0065 -9.41126 50.4628
62.4134 -53.5341 51.6192
67.0542 31.8481 46.6186
60.7865 -6.70215 45.5187
57.8658 -47.1674 46.729
59.3812 30.3698 41.8104
54.2661 -4.12058 40.6859
53.0947 -39.9253 41.4348
52.9748 28.7726 38.1896
47.3497 -1.83538 35.9175
47.9994 -32.5279 36.3888
45.9581 25.7947 33.8297
40.9675 -0.490736 31.1268
42.3213 -26.3173 31.2567
39.3576 22.2202 28.9828
34.8622 -0.111355 26.2333
36.5533 -21.5607 26.4901
31.8212 17.3791 23.7954
27.6896 -0.0781656 21.229
29.1565 -18.2031 21.4956
22.9091 11.4373 18.3561
19.7535 -0.191145 16.1082
20.8584 -12.6806 16.6215
15.5388 6.48896 12.7766
12.9293 -0.578872 10.9402
14.3312 -7.64241 11.6345
8.13 0.118758 7.64829
5.49293 -0.939201 5.67996
7.2492 -2.28356 7.36859
-0.78744 -1.93952 0.983308
-0.624636 0.575079 0.182031
1.69002 3.85032 0.636217
-0.0848513 -0.287474 -0.269269
-22.4242 -150.163 97.2357
-16.4461 -150.787 97.5888
-25.3391 -147.615 96.9674
-33.0898 -147.279 96.8986
-6.29735 -141.911 91.4673
-23.1359 -135.979 90.2874
-41.5783 -135.253 91.1937
4.28571 -135.696 86.729
-22.4754 -126.649 85.2916
-51.0389 -124.787 86.4515
13.3187 -127.639 81.6726
-21.9604 -116.508 80.2972
-58.8868 -113.406 81.5825
20.1445 -119.677 76.8379
-21.5272 -106.793 75.2899
-65.0763 -101.988 76.6614
25.1684 -110.698 71.7453
-20.8325 -96.2319 70.2599
-70.8097 -87.8969 71.3261
28.8136 -102.455 66.5642
-19.7554 -86.6042 65.2236
-74.0625 -75.8641 66.2438
32.5973 -92.8626 61.4142
-18.0155 -76.5035 60.2295
-74.1285 -64.8802 61.2938
35.3992 -84.071 56.4759
-15.8493 -67.6378 55.2476
-72.4318 -56.7901 56.7045
38.7129 -73.7855 51.4248
-12.9978 -58.2862 50.2606
-69.0419 -48.5104 51.9013
41.6204 -63.5843 46.4233
-10.2719 -50.1409 45.2845
-64.6006 -41.2805 46.6053
43.4595 -53.0324 41.5745
-7.42237 -41.609 40.3363
-59.4407 -34.2034 41.2837
44.5726 -41.7026 36.8848
-4.73777 -33.0445 35.4507
-53.9777 -26.9238 36.1923
42.5063 -31.9091 31.9848
-3.03244 -26.2135 30.6536
-48.0581 -20.3868 31.3675
36.5692 -26.4366 26.9368
-2.18825 -21.1278 25.8675
-42.3463 -15.8189 27.2964
28.8392 -23.4132 22.3045
-1.57197 -16.4415 21.0854
-33.7459 -12.1104 22.6554
19.2098 -17.6199 17.4811
-0.978429 -11.9144 16.1983
-22.7059 -8.70528 17.7411
11.1305 -12.1086 12.3582
-0.710013 -8.32889 11.1909
-13.3224 -6.43368 12.4682
0.983588 -6.15955 7.9653
-0.487831 -4.29444 6.08812
-2.28825 -5.20957 7.85838
-2.07013 0.317197 1.02157
0.542991 0.557343 0.165685
3.86537 -0.429656 0.713697
-0.273174 -0.0140101 -0.282619
-151.994 10.7302 98.0441
-151.729 -8.78458 97.8572
-149.456 15.3384 97.6383
-148.727 28.9992 97.2964
-142.125 -23.0789 92.1433
-135.813 12.4877 90.5859
-135.055 44.699 91.3835
-133.59 -29.1733 86.8477
-125.06 15.3346 85.4228
-121.122 59.6231 86.23
-125.186 -30.3296 81.816
-114.525 18.1356 80.3698
-106.524 71.0798 81.3452
-117.947 -29.5599 76.7425
-105.575 19.7571 75.3932
-96.4296 74.2675 76.6893
-110.043 -28.1458 71.7109
-96.7405 20.2641 70.4472
-87.5055 72.5843 71.865
-102.577 -26.2232 66.6517
-89.1189 19.8439 65.4817
-80.7814 69.3385 66.9783
-94.3526 -24.0013 61.4236
-81.183 18.7976 60.5101
-73.0375 65.2013 62.0661
-87.0137 -21.8126 56.3793
-74.1572 17.4592 55.5522
-66.3854 60.8018 57.1237
-79.3919 -19.7279 51.5424
-66.5894 15.6914 50.6158
-58.971 55.2703 52.1691
-72.2808 -18.1492 46.8749
-59.8822 13.8088 45.6771
-52.6087 49.8204 47.1917
-64.6438 -16.4045 41.882
-52.6128 11.4855 40.7318
-45.9895 43.6565 42.1979
-56.4754 -15.4675 36.9174
-44.891 8.73969 35.7779
-38.8089 36.5082 37.1921
-48.2751 -15.299 31.8697
-37.9955 6.14094 30.8302
-32.3955 29.7128 32.1749
-40.8794 -15.2529 27.3704
-31.7841 3.92043 25.8916
-27.213 23.889 27.1466
-32.5885 -13.2349 22.5235
-24.8914 1.85183 20.9273
-21.815 17.7224 22.0969
-22.9894 -9.8502 17.5029
-17.5486 0.158149 15.9011
-15.7139 10.8008 17.0484
-15.2665 -6.30795 12.265
-11.4198 -0.775917 10.8307
-11.0224 5.62415 11.884
-7.13914 -2.46209 7.57778
-4.72128 -1.64758 5.68248
-6.35916 -0.456122 7.38126
0.142363 1.96728 0.984049
0.711794 -0.493055 0.188672
-0.372405 -4.34643 0.650047
-0.0100911 0.34517 -0.271455
3 0 1 2
3 0 2 3
3 1 4 5
3 1 5 2
3 2 5 3
3 3 5 6
3 4 7 8
3 4 8 5
3 5 8 6
3 6 8 9
3 7 10 11
3 7 11 8
3 8 11 9
3 9 11 12
3 10 13 14
3 10 14 11
3 11 14 12
3 12 14 15
3 13 16 17
3 13 17 14
3 14 17 15
3 15 17 18
3 16 19 20
3 16 20 17
3 17 20 18
3 18 20 21
3 19 22 23
3 19 23 20
3 20 23 21
3 21 23 24
3 22 25 26
3 22 26 23
3 23 26 24
3 24 26 27
3 25 28 29
3 25 29 26
3 26 29 27
3 27 29 30
3 28 31 32
3 28 32 29
3 29 32 30
3 30 32 33
3 31 34 35
3 31 35 32
3 32 35 33
3 33 35 36
3 34 37 38
3 34 38 35
3 35 38 36
3 36 38 39
3 37 40 41
3 37 41 38
3 38 41 39
3 39 41 42
3 40 43 44
3 40 44 41
3 41 44 42
3 42 44 45
3 43 46 47
3 43 47 44
3 44 47 45
3 45 47 48
3 46 49 50
3 46 50 47
3 47 50 48
3 48 50 51
3 49 52 53
3 49 53 50
3 50 53 51
3 51 53 54
3 52 55 56
3 52 56 53
3 53 56 54
3 54 56 57
3 55 58 59
3 55 59 56
3 56 59 57
3 57 59 60
3 61 59 58
3 61 60 59
3 62 63 64
3 62 64 65
3 63 66 67
3 63 67 64
3 64 67 65
3 65 67 68
3 66 69 70
3 66 70 67
3 67 70 68
3 68 70 71
3 69 72 73
3 69 73 70
3 70 73 71
3 71 73 74
3 72 75 76
3 72 76 73
3 73 76 74
3 74 76 77
3 75 78 79
3 75 79 76
3 76 79 77
3 77 79 80
3 78 81 82
3 78 82 79
3 79 82 80
3 80 82 83
3 81 84 85
3 81 85 82
3 82 85 83
3 83 85 86
3 84 87 88
3 84 88 85
3 85 88 86
3 86 88 89
3 87 90 91
3 87 91 88
3 88 91 89
3 89 91 92
3 90 93 94
3 90 94 91
3 91 94 92
3 92 94 95
3 93 96 97
3 93 97 94
3 94 97 95
3 95 97 98
3 96 99 100
3 96 100 97
3 97 100 98
3 98 100 101
3 99 102 103
3 99 103 100
3 100 103 101
3 101 103 104
3 102 105 106
3 102 106 103
3 103 106 104
3 104 106 107
3 105 108 109
3 105 109 106
3 106 109 107
3 107 109 110
3 108 111 112
3 108 112 109
3 109 112 110
3 110 112 113
3 111 114 115
3 111 115 112
3 112 115 113
3 113 115 116
3 114 117 118
3 114 118 115
3 115 118 116
3 116 118 119
3 117 120 121
3 117 121 118
3 118 121 119
3 119 121 122
3 123 121 120
3 123 122 121
3 124 125 126
3 124 126 127
3 125 128 129
3 125 129 126
3 126 129 127
3 127 129 130
3 128 131 132
3 128 132 129
3 129 132 130
3 130 132 133
3 131 134 135
3 131 135 132
3 132 135 133
3 133 135 136
3 134 137 138
3 134 138 135
3 135 138 136
3 136 138 139
3 137 140 141
3 137 141 138
3 138 141 139
3 139 141 142
3 140 143 144
3 140 144 141
3 141 144 142
3 142 144 145
3 143 146 147
3 143 147 144
3 144 147 145
3 145 147 148
3 146 149 150
3 146 150 147
3 147 150 148
3 148 150 151
3 149 152 153
3 149 153 150
3 150 153 151
3 151 153 154
3 152 155 156
3 152 156 153
3 153 156 154
3 154 156 157
3 155 158 159
3 155 159 156
3 156 159 157
3 157 159 160
3 158 161 162
3 158 162 159
3 159 162 160
3 160 162 163
3 161 164 165
3 161 165 162
3 162 165 163
3 163 165 166
3 164 167 168
3 164 168 165
3 165 168 166
3 166 168 169
3 167 170 171
3 167 171 168
3 168 171 169
3 169 171 172
3 170 173 174
3 170 174 171
3 171 174 172
3 172 174 175
3 173 176 177
3 173 177 174
3 174 177 175
3 175 177 178
3 176 179 180
3 176 180 177
3 177 180 178
3 178 180 181
3 179 182 183
3 179 183 180
3 180 183 181
3 181 183 184
3 185 183 182
3 185 184 183
3 186 187 188
3 186 188 189
3 187 190 191
3 187 191 188
3 188 191 189
3 189 191 192
3 190 193 194
3 190 194 191
3 191 194 192
3 192 194 195
3 193 196 197
3 193 197 194
3 194 197 195
3 195 197 198
3 196 199 200
3 196 200 197
3 197 200 198
3 198 200 201
3 199 202 203
3 199 203 200
3 200 203 201
3 201 203 204
3 202 205 206
3 202 206 203
3 203 206 204
3 204 206 207
3 205 208 209
3 205 209 206
3 206 209 207
3 207 209 210
3 208 211 212
3 208 212 209
3 209 212 210
3 210 212 213
3 211 214 215
3 211 215 212
3 212 215 213
3 213 215 216
3 214 217 218
3 214 218 215
3 215 218 216
3 216 218 219
3 217 220 221
3 217 221 218
3 218 221 219
3 219 221 222
3 220 223 224
3 220 224 221
3 221 224 222
3 222 224 225
3 223 226 227
3 223 227 224
3 224 227 225
3 225 227 228
3 226 229 230
3 226 230 227
3 227 230 228
3 228 230 231
3 229 232 233
3 229 233 230
3 230 233 231
3 231 233 234
3 232 235 236
3 232 236 233
3 233 236 234
3 234 236 237
3 235 238 239
3 235 239 236
3 236 239 237
3 237 239 240
3 238 241 242
3 238 242 239
3 239 242 240
3 240 242 243
3 241 244 245
3 241 245 242
3 242 245 243
3 243 245 246
3 247 245 244
3 247 246 245
3 248 249 250
3 248 250 251
3 249 252 253
3 249 253 250
3 250 253 251
3 251 253 254
3 252 255 256
3 252 256 253
3 253 256 254
3 254 256 257
3 255 258 259
3 255 259 256
3 256 259 257
3 257 259 260
3 258 261 262
3 258 262 259
3 259 262 260
3 260 262 263
3 261 264 265
3 261 265 262
3 262 265 263
3 263 265 266
3 264 267 268
3 264 268 265
3 265 268 266
3 266 268 269
3 267 270 271
3 267 271 268
3 268 271 269
3 269 271 272
3 270 273 274
3 270 274 271
3 271 274 272
3 272 274 275
3 273 276 277
3 273 277 274
3 274 277 275
3 275 277 278
3 276 279 280
3 276 280 277
3 277 280 278
3 278 280 281
3 279 282 283
3 279 283 280
3 280 283 281
3 281 283 284
3 282 285 286
3 282 286 283
3 283 286 284
3 284 286 287
3 285 288 289
3 285 289 286
3 286 289 287
3 287 289 290
3 288 291 292
3 288 292 289
3 289 292 290
3 290 292 293
3 291 294 295
3 291 295 292
3 292 295 293
3 293 295 296
3 294 297 298
3 294 298 295
3 295 298 296
3 296 298 299
3 297 300 301
3 297 301 298
3 298 301 299
3 299 301 302
3 300 303 304
3 300 304 301
3 301 304 302
3 302 304 305
3 303 306 307
3 303 307 304
3 304 307 305
3 305 307 308
3 309 307 306
3 309 308 307
