ply
format ascii 1.0
element vertex 665
property float x
property float y
property float z
element face 860
property list uchar int vertex_indices
end_header
-81.9781 125.281 96.2047
-89.2381 120.472 96.4276
-71.9788 128.073 96.0433
-50.132 140.382 96.5092
-94.2967 108.03 91.756
-58.3872 121.133 90.0412
-18.5092 141.419 91.5693
-94.5439 98.0578 86.6255
-50.9258 114.112 85.1931
-4.79801 136.276 86.4173
-93.1712 88.5253 81.5866
-46.061 105.871 80.232
-0.165507 128.426 81.3344
-91.0633 80.0933 76.5541
-42.9773 98.0832 75.2912
2.91147 120.933 76.3965
-88.1072 71.7053 71.8082
-40.1876 89.9057 70.3965
6.79355 112.752 71.4858
-84.4322 64.9238 67.0915
-37.6426 82.5978 65.4787
7.11741 105.728 66.6747
-79.3772 57.7822 62.289
-34.7989 74.9211 60.5527
7.48938 97.3898 61.5275
-74.1159 51.8047 57.4027
-32.0809 68.1515 55.6047
7.52253 89.649 56.3202
-67.562 45.5117 52.4708
-28.9255 60.9705 50.6477
8.09549 81.234 51.3169
-61.1834 40.2146 47.4903
-25.9542 54.7324 45.6813
7.68579 74.0155 46.4746
-53.9947 34.965 42.4704
-22.6445 48.1157 40.7089
7.33014 66.4204 41.6273
-45.8206 29.51 37.4185
-19.1102 41.1465 35.7111
6.36399 58.337 36.74
-38.1527 24.7113 32.3456
-15.9835 34.9555 30.6794
5.27 50.301 31.7262
-31.5436 20.8453 27.2631
-13.2252 29.4687 25.6352
4.23529 42.5848 26.5899
-24.4567 16.979 22.1572
-10.2725 23.3178 20.5782
2.8036 34.7114 21.6159
-16.5599 12.6899 17.043
-7.23072 16.656 15.5144
1.15504 24.658 16.6284
-10.3403 9.25027 11.8635
-4.74563 11.0293 10.4718
-0.279995 16.2641 11.5468
-3.68118 6.36008 7.22264
-2.07337 4.83826 5.37898
-1.87516 7.32307 7.04418
1.91257 1.26016 0.945837
-0.117265 -1.01077 0.210225
-3.30375 -2.11191 0.603326
0.199245 0.175161 -0.248863
104.716 111.632 98.7215
91.8352 120.783 97.6948
107.558 105.664 98.1744
117.603 95.9109 97.574
70.4703 124.493 91.9993
92.958 100.385 90.6984
118.419 80.6766 91.7647
53.7853 124.753 86.6755
83.6387 95.6058 85.491
115.559 71.4728 86.6191
41.0765 121.661 81.6594
74.8726 90.4822 80.4139
110.673 64.4391 81.5382
31.9393 117.129 76.7355
67.6491 85.5846 75.4466
105.414 59.2258 76.5802
24.8323 111.186 72.0246
60.6793 79.9876 70.5052
99.4756 53.7942 71.7655
19.4037 105.132 67.2067
54.8239 74.6079 65.5477
93.742 48.8067 66.6497
14.5013 97.7092 62.3491
49.0005 68.5397 60.5906
86.6247 43.5459 61.2875
11.0717 90.5405 57.4463
44.0913 62.8852 55.6273
80.4133 39.38 56.1658
8.08958 82.0464 52.525
39.1257 56.646 50.7007
73.027 34.9867 51.1212
6.13745 74.0473 47.5604
35.0887 51.0176 45.8252
66.5883 31.4559 46.162
4.74935 65.2984 42.5774
31.0796 44.9875 41.0906
59.8926 27.8898 41.2629
3.76106 55.5028 37.6076
26.8835 38.5715 36.3728
54.6367 25.6397 37.8312
3.20056 46.4065 32.6231
23.2013 32.81 31.5991
47.9747 22.7885 33.6051
2.96818 38.6851 27.6076
19.8556 27.5365 26.7036
41.044 20.0184 28.8363
3.03028 30.4987 22.5648
15.8287 21.6785 21.6623
32.705 16.622 23.7151
3.0983 21.3461 17.509
11.2853 15.4185 16.4735
22.6421 12.4702 18.3285
3.1292 14.03 12.3096
7.53132 10.071 11.2322
14.3957 9.10956 12.7573
4.00499 6.62209 7.80482
3.3956 4.29701 5.90113
5.57947 5.24658 7.70627
1.55561 -1.51053 0.991112
-0.892711 -0.263392 0.174523
-2.88371 2.99143 0.697243
0.230664 -0.184705 -0.277768
139.519 -57.4557 97.0754
141.519 -50.9196 96.7834
136.396 -61.1454 97.0068
135.182 -69.8385 97.6413
137.804 -30.7948 91.1822
127.863 -50.2719 90.427
122.63 -72.3551 91.4946
135.084 -10.4283 86.8468
120.562 -42.1207 85.4126
112.751 -74.5107 86.3334
128.513 5.52047 81.919
112.461 -35.0091 80.4097
102.836 -75.5759 81.4341
120.64 14.9803 76.9361
104.78 -29.5409 75.432
94.6702 -75.4336 76.7057
111.365 22.1155 71.7919
96.4735 -24.4726 70.4402
86.4186 -73.4586 71.7713
102.685 27.0196 66.7949
89.0102 -20.3065 65.4435
79.5351 -70.1865 66.6318
93.2895 30.481 61.7111
81.1275 -16.2112 60.4267
72.9436 -65.3477 61.6822
84.5231 32.0216 56.6108
74.255 -12.7975 55.4266
67.6829 -60.1814 56.6782
75.3857 32.3694 51.617
67.0065 -9.41126 50.4628
62.4134 -53.5341 51.6192
67.0542 31.8481 46.6186
60.7865 -6.70215 45.5187
57.8658 -47.1674 46.729
59.3812 30.3698 41.8104
54.2661 -4.12058 40.6859
53.0947 -39.9253 41.4348
52.9748 28.7726 38.1896
47.3497 -1.83538 35.9175
47.9994 -32.5279 36.3888
45.9581 25.7947 33.8297
40.9675 -0.490736 31.1268
42.3213 -26.3173 31.2567
39.3576 22.2202 28.9828
34.8622 -0.111355 26.2333
36.5533 -21.5607 26.4901
31.8212 17.3791 23.7954
27.6896 -0.0781656 21.229
29.1565 -18.2031 21.4956
22.9091 11.4373 18.3561
19.7535 -0.191145 16.1082
20.8584 -12.6806 16.6215
15.5388 6.48896 12.7766
12.9293 -0.578872 10.9402
14.3312 -7.64241 11.6345
8.13 0.118758 7.64829
5.49293 -0.939201 5.67996
7.2492 -2.28356 7.36859
-0.78744 -1.93952 0.983308
-0.624636 0.575079 0.182031
1.69002 3.85032 0.636217
-0.0848513 -0.287474 -0.269269
-22.4242 -150.163 97.2357
-16.4461 -150.787 97.5888
-25.3391 -147.615 96.9674
-33.0898 -147.279 96.8986
-6.29735 -141.911 91.4673
-23.1359 -135.979 90.2874
-41.5783 -135.253 91.1937
4.28571 -135.696 86.729
-22.4754 -126.649 85.2916
-51.0389 -124.787 86.4515
13.3187 -127.639 81.6726
-21.9604 -116.508 80.2972
-58.8868 -113.406 81.5825
20.1445 -119.677 76.8379
-21.5272 -106.793 75.2899
-65.0763 -101.988 76.6614
25.1684 -110.698 71.7453
-20.8325 -96.2319 70.2599
-70.8097 -87.8969 71.3261
28.8136 -102.455 66.5642
-19.7554 -86.6042 65.2236
-74.0625 -75.8641 66.2438
32.5973 -92.8626 61.4142
-18.0155 -76.5035 60.2295
-74.1285 -64.8802 61.2938
35.3992 -84.071 56.4759
-15.8493 -67.6378 55.2476
-72.4318 -56.7901 56.7045
38.7129 -73.7855 51.4248
-12.9978 -58.2862 50.2606
-69.0419 -48.5104 51.9013
41.6204 -63.5843 46.4233
-10.2719 -50.1409 45.2845
-64.6006 -41.2805 46.6053
43.4595 -53.0324 41.5745
-7.42237 -41.609 40.3363
-59.4407 -34.2034 41.2837
44.5726 -41.7026 36.8848
-4.73777 -33.0445 35.4507
-53.9777 -26.9238 36.1923
42.5063 -31.9091 31.9848
-3.03244 -26.2135 30.6536
-48.0581 -20.3868 31.3675
36.5692 -26.4366 26.9368
-2.18825 -21.1278 25.8675
-42.3463 -15.8189 27.2964
28.8392 -23.4132 22.3045
-1.57197 -16.4415 21.0854
-33.7459 -12.1104 22.6554
19.2098 -17.6199 17.4811
-0.978429 -11.9144 16.1983
-22.7059 -8.70528 17.7411
11.1305 -12.1086 12.3582
-0.710013 -8.32889 11.1909
-13.3224 -6.43368 12.4682
0.983588 -6.15955 7.9653
-0.487831 -4.29444 6.08812
-2.28825 -5.20957 7.85838
-2.07013 0.317197 1.02157
0.542991 0.557343 0.165685
3.86537 -0.429656 0.713697
-0.273174 -0.0140101 -0.282619
-151.994 10.7302 98.0441
-151.729 -8.78458 97.8572
-149.456 15.3384 97.6383
-148.727 28.9992 97.2964
-142.125 -23.0789 92.1433
-135.813 12.4877 90.5859
-135.055 44.699 91.3835
-133.59 -29.1733 86.8477
-125.06 15.3346 85.4228
-121.122 59.6231 86.23
-125.186 -30.3296 81.816
-114.525 18.1356 80.3698
-106.524 71.0798 81.3452
-117.947 -29.5599 76.7425
-105.575 19.7571 75.3932
-96.4296 74.2675 76.6893
-110.043 -28.1458 71.7109
-96.7405 20.2641 70.4472
-87.5055 72.5843 71.865
-102.577 -26.2232 66.6517
-89.1189 19.8439 65.4817
-80.7814 69.3385 66.9783
-94.3526 -24.0013 61.4236
-81.183 18.7976 60.5101
-73.0375 65.2013 62.0661
-87.0137 -21.8126 56.3793
-74.1572 17.4592 55.5522
-66.3854 60.8018 57.1237
-79.3919 -19.7279 51.5424
-66.5894 15.6914 50.6158
-58.971 55.2703 52.1691
-72.2808 -18.1492 46.8749
-59.8822 13.8088 45.6771
-52.6087 49.8204 47.1917
-64.6438 -16.4045 41.882
-52.6128 11.4855 40.7318
-45.9895 43.6565 42.1979
-56.4754 -15.4675 36.9174
-44.891 8.73969 35.7779
-38.8089 36.5082 37.1921
-48.2751 -15.299 31.8697
-37.9955 6.14094 30.8302
-32.3955 29.7128 32.1749
-40.8794 -15.2529 27.3704
-31.7841 3.92043 25.8916
-27.213 23.889 27.1466
-32.5885 -13.2349 22.5235
-24.8914 1.85183 20.9273
-21.815 17.7224 22.0969
-22.9894 -9.8502 17.5029
-17.5486 0.158149 15.9011
-15.7139 10.8008 17.0484
-15.2665 -6.30795 12.265
-11.4198 -0.775917 10.8307
-11.0224 5.62415 11.884
-7.13914 -2.46209 7.57778
-4.72128 -1.64758 5.68248
-6.35916 -0.456122 7.38126
0.142363 1.96728 0.984049
0.711794 -0.493055 0.188672
-0.372405 -4.34643 0.650047
-0.0100911 0.34517 -0.271455
32.7085 289.123 112
16.931 286.427 111
30.7865 285.735 111
47.2102 282.427 111
-0.57684 273.718 106
32.3826 269.805 106
66.5051 264.966 106
-16.3232 260.274 101
32.0071 254.711 101
79.6697 248.163 101
-27.6098 245.811 96
30.8663 238.856 96
88.5083 231.297 96
-35.689 232.024 91
29.4758 224.396 90.9999
93.93 216.69 91
-41.5444 218.258 86
27.8458 210.062 85.9999
96.5013 201.939 86
-46.6402 204.823 81
26.0006 195.751 80.9998
96.5 187.044 81
-50.2379 191.001 76
24.1536 181.401 75.9997
96.1889 172.23 76
-53.0478 176.783 71
22.5097 166.983 70.9997
95.8436 157.543 71
-54.7352 163.235 66
21.2097 153.598 65.9996
95.1916 143.183 66
-55.185 148.989 61
20.0283 139.169 60.9996
94.4167 127.725 61
-54.8763 135.033 56
18.9276 124.989 55.9995
92.9236 112.518 56
-53.7284 121.335 50.9999
17.7094 111.222 50.9993
88.5748 98.8352 51
-51.8896 108.928 45.9997
16.4791 98.9584 45.9991
84.0376 86.9444 45.9997
-48.9974 95.7233 40.9994
15.1321 86.1393 40.9988
78.4278 74.7886 40.9993
-45.4488 83.7275 35.999
13.9124 74.7079 35.9983
72.5067 64.1799 35.9987
-40.6038 70.9141 30.9983
12.6141 62.7142 30.9976
65.1794 53.2819 30.9979
-35.1823 59.2357 25.9974
11.4415 51.9886 25.9968
57.5233 43.7436 25.997
-28.831 47.6913 20.9963
10.2847 41.5717 20.9958
48.9793 34.6904 20.9959
-20.8578 35.2935 15.9948
9.01508 30.5714 15.9945
38.6105 25.3549 15.9946
-12.4867 23.9286 10.9933
7.83131 20.6809 10.9931
27.9932 17.1589 10.9932
-3.12881 12.6155 5.99169
6.60869 10.9943 5.99164
16.3259 9.33685 5.9916
7.24058 1.11732 0.990162
5.29253 1.41224 0.990064
3.07302 1.43257 0.990121
-0.000630493 -0.00111135 8.6694e-007
283.254 28.6129 109.461
280.062 44.2743 109.604
280.126 30.0538 108.702
282.984 16.3908 109.332
267.035 55.5484 105.691
268.282 25.7638 105.058
272.906 -3.36747 105.636
251.418 68.971 101.029
254.083 20.7772 100.67
258.869 -28.3313 101.036
233.887 81.1351 96.0491
237.249 15.2 95.91
241.175 -55.1864 96.0583
217.069 90.3197 91.0178
220.938 10.9144 90.9755
224.119 -74.0061 91.0209
200.247 96.6185 86.0018
204.502 8.27064 85.9917
207.436 -83.322 86.0021
183.75 101.998 80.9987
188.224 7.10649 80.9957
191.739 -87.8376 80.9985
166.913 105.889 75.9992
172.144 6.70649 75.9974
175.912 -90.7985 75.9991
150.068 107.704 70.9998
156.277 6.49431 70.9984
159.889 -92.0476 70.9998
135.13 107.242 66
141.953 6.21271 65.9989
145.159 -92.2292 66
120.083 105.425 61
127.044 5.66934 60.9991
130.066 -91.9249 61
105.989 102.302 55.9997
112.84 4.94605 55.999
115.842 -90.6015 55.9996
92.7645 97.8866 50.9994
99.3683 4.09597 50.9987
102.359 -88.1747 50.9991
81.3411 92.6231 45.9989
87.5988 3.22759 45.9983
90.5749 -84.8894 45.9985
69.7495 85.6869 40.9983
75.5304 2.22277 40.9977
78.4356 -80.1938 40.9978
59.7274 78.1247 35.9976
64.9934 1.26556 35.997
67.7639 -74.7342 35.9971
49.5316 68.7355 30.9968
54.1501 0.22637 30.9963
56.6977 -67.6076 30.9962
40.702 58.9405 25.996
44.667 -0.721107 25.9955
46.9272 -59.854 25.9954
32.4041 48.0831 20.995
35.6506 -1.64232 20.9946
37.5672 -50.9755 20.9945
23.9272 35.1761 15.9938
26.3048 -2.57584 15.9935
27.8053 -40.0806 15.9935
16.5473 22.1856 10.9926
18.0891 -3.37564 10.9924
19.1375 -28.8033 10.9924
9.54188 8.19733 5.99131
10.1809 -4.08896 5.99125
10.7628 -16.3593 5.99119
2.36868 -6.41563 0.990115
2.39393 -4.65893 0.990037
1.90933 -2.95575 0.990088
-0.00179727 0.000557676 3.79291e-007
120.928 -259.597 110.307
132.004 -252.701 110.069
120.537 -256.44 109.468
102.337 -264.304 109.888
134.694 -238.345 105.794
107.193 -248.034 105.372
73.7854 -261.825 105.758
139.505 -220.518 101.02
97.5831 -236.782 100.78
51.2803 -255.097 101.024
143.324 -201.431 96.0327
89.7997 -223.035 95.9399
34.7975 -245.037 96.0388
144.282 -185.177 91.0119
83.9012 -209.647 90.9836
23.2555 -234.064 91.014
143.86 -170.136 86.0012
78.6073 -196.02 85.9944
13.1927 -222.178 86.0014
142.191 -155.326 80.9991
73.6807 -182.198 80.9971
5.17014 -209.907 80.9989
139.966 -139.209 75.9995
69.057 -168.113 75.9982
-1.0148 -197.064 75.9994
137.107 -122.925 70.9999
64.5959 -153.831 70.9989
-6.23513 -183.85 70.9999
134.034 -107.902 66
60.4592 -140.614 65.9992
-11.0135 -171.258 66
129.878 -92.2751 61
55.7762 -126.532 60.9994
-16.1305 -157.815 61
124.405 -78.2241 55.9999
50.8591 -112.856 55.9994
-20.9525 -144.001 56
117.652 -65.6157 50.9997
45.7392 -99.7185 50.9992
-24.9133 -130.106 50.9999
110.284 -55.2447 45.9994
40.8987 -88.1657 45.9989
-27.4991 -117.566 45.9996
101.1 -45.3027 40.9989
35.5882 -76.3123 40.9984
-29.1381 -104.199 40.999
91.5419 -37.2327 35.9982
30.6646 -65.9539 35.9978
-29.5717 -91.9819 35.9983
80.0463 -29.6025 30.9974
25.3355 -55.3021 30.997
-28.8663 -78.7954 30.9973
68.4008 -23.5285 25.9965
20.4353 -45.9696 25.9961
-27.1263 -66.6288 25.9963
55.7728 -18.355 20.9954
15.5645 -37.0789 20.9951
-24.3416 -54.4519 20.9953
41.0226 -13.6473 15.9941
10.3474 -27.8343 15.9939
-20.1347 -41.1502 15.994
26.4329 -10.083 10.9928
5.58966 -19.6537 10.9927
-15.148 -28.7444 10.9927
10.9269 -7.20704 5.99138
0.907045 -11.7253 5.99137
-9.09776 -16.1777 5.99137
-5.3586 -4.51465 0.99011
-3.66212 -3.8748 0.990028
-1.90346 -2.84161 0.990103
0.000453561 0.00200188 3.08847e-007
-217.006 -193.205 112
-197.476 -207.533 111
-212.226 -193.058 111
-222 -180.537 111
-173.491 -211.495 106
-200.003 -183.058 106
-224.328 -155.738 106
-154.5 -210.293 101
-189.783 -171.789 101
-224.013 -133.502 101
-137.799 -206.021 96
-179.185 -159.482 96
-220.961 -111.897 96
-122.514 -200.288 91
-169.085 -148.41 90.9999
-215.529 -95.7228 91
-109.06 -193.591 86
-158.655 -137.857 85.9998
-207.352 -81.8352 86
-97.0363 -185.627 81
-148.078 -127.684 80.9998
-198.271 -69.6204 81
-85.8291 -177.731 76
-137.462 -117.783 75.9997
-188.693 -59.1537 76
-74.6785 -168.73 71
-126.779 -107.949 70.9997
-177.941 -48.0103 71
-64.2695 -159.297 66
-116.875 -98.8135 65.9997
-167.472 -37.8617 66
-54.0574 -148.913 61
-106.31 -89.0399 60.9997
-156.428 -27.8687 61
-44.9998 -138.083 56
-96.0089 -79.5844 55.9996
-144.477 -20.3207 56
-36.9622 -126.985 51
-86.0358 -70.4628 50.9995
-132.877 -13.1512 50.9999
-30.3458 -116.418 45.9998
-77.1597 -62.3002 45.9993
-122.016 -7.43792 45.9996
-24.0512 -104.566 40.9994
-67.8577 -53.7413 40.9989
-109.984 -2.25669 40.9991
-19.0637 -93.1897 35.9989
-59.5377 -46.0926 35.9983
-98.5677 1.57229 35.9984
-14.546 -80.3393 30.9981
-50.7586 -38.0682 30.9975
-85.7778 4.66524 30.9975
-11.2023 -67.9541 25.9971
-42.8695 -30.8945 25.9966
-73.5534 6.53409 25.9965
-8.64968 -55.0468 20.996
-35.1628 -23.9373 20.9955
-60.9059 7.44672 20.9954
-6.76573 -40.4099 15.9946
-26.9573 -16.6228 15.9942
-46.6393 7.33812 15.9942
-5.83539 -26.274 10.9931
-19.5302 -10.0724 10.9929
-32.9371 6.22329 10.9929
-5.66727 -11.5089 5.99156
-12.1929 -3.69816 5.9915
-18.6866 4.12665 5.99145
-6.02153 4.06402 0.990136
-4.83631 2.53406 0.990044
-3.28384 1.01424 0.990111
0.00104242 0.000413272 5.09322e-007
-245.637 139.701 109.461
-251.305 129.402 109.604
-243.873 137.436 108.702
-238.202 150.299 109.332
-246.219 117.385 105.691
-232.606 136.295 105.058
-220.667 159.669 105.637
-240.865 100.109 101.029
-220.33 132.09 100.67
-200.993 166.28 101.036
-233.644 82.176 96.0491
-206.429 125.924 95.91
-180.875 169.781 96.0583
-225.021 67.3467 91.0178
-193.069 119.637 90.9755
-162.196 171.838 91.0209
-215.217 54.9289 86.0018
-179.369 113.159 85.9917
-142.95 171.703 86.0021
-204.964 44.1458 80.9987
-165.663 106.438 80.9957
-125.883 168.96 80.9984
-194.115 34.5411 75.9992
-152.155 99.4324 75.9974
-109.934 164.337 75.9991
-182.667 25.0804 70.9998
-138.816 92.1883 70.9985
-94.534 158.694 70.9998
-171.074 17.1691 66
-126.636 85.3689 65.999
-80.4567 152.071 66
-158.299 9.97794 61
-113.769 78.0307 60.9994
-66.9634 144.155 61
-145.825 3.96173 56
-101.394 70.8522 55.9995
-54.8843 135.84 56
-133.025 -0.993792 51
-89.5423 63.8819 50.9994
-44.1238 126.977 50.9998
-121.013 -4.58654 45.9998
-79.0626 57.6428 45.9992
-35.3631 118.278 45.9995
-107.778 -7.40383 40.9994
-68.1872 51.086 40.9988
-27.0703 108.206 40.9991
-95.3337 -9.01223 35.9988
-58.5705 45.195 35.9982
-20.488 98.239 35.9985
-81.5903 -9.67692 30.9981
-48.5669 38.9536 30.9975
-14.4512 86.6375 30.9976
-68.6441 -9.30019 25.9972
-39.7105 33.3073 25.9966
-9.87967 75.1508 25.9967
-55.4427 -7.97074 20.9961
-31.1963 27.7534 20.9956
-6.2532 62.8973 20.9956
-40.8248 -5.46621 15.9947
-22.3026 21.791 15.9943
-3.32213 48.6729 15.9943
-27.0183 -2.1851 10.9932
-14.4059 16.3357 10.993
-1.53615 34.6488 10.9929
-12.8943 2.01819 5.99163
-6.76411 10.8894 5.99155
-0.602643 19.7321 5.99148
1.73496 7.03117 0.990154
0.717085 5.37797 0.990059
0.0200794 3.48033 0.990112
0.000977853 -0.000875781 7.26061e-007
3 0 1 2
3 0 2 3
3 1 4 5
3 1 5 2
3 2 5 3
3 3 5 6
3 4 7 8
3 4 8 5
3 5 8 6
3 6 8 9
3 7 10 11
3 7 11 8
3 8 11 9
3 9 11 12
3 10 13 14
3 10 14 11
3 11 14 12
3 12 14 15
3 13 16 17
3 13 17 14
3 14 17 15
3 15 17 18
3 16 19 20
3 16 20 17
3 17 20 18
3 18 20 21
3 19 22 23
3 19 23 20
3 20 23 21
3 21 23 24
3 22 25 26
3 22 26 23
3 23 26 24
3 24 26 27
3 25 28 29
3 25 29 26
3 26 29 27
3 27 29 30
3 28 31 32
3 28 32 29
3 29 32 30
3 30 32 33
3 31 34 35
3 31 35 32
3 32 35 33
3 33 35 36
3 34 37 38
3 34 38 35
3 35 38 36
3 36 38 39
3 37 40 41
3 37 41 38
3 38 41 39
3 39 41 42
3 40 43 44
3 40 44 41
3 41 44 42
3 42 44 45
3 43 46 47
3 43 47 44
3 44 47 45
3 45 47 48
3 46 49 50
3 46 50 47
3 47 50 48
3 48 50 51
3 49 52 53
3 49 53 50
3 50 53 51
3 51 53 54
3 52 55 56
3 52 56 53
3 53 56 54
3 54 56 57
3 55 58 59
3 55 59 56
3 56 59 57
3 57 59 60
3 61 59 58
3 61 60 59
3 62 63 64
3 62 64 65
3 63 66 67
3 63 67 64
3 64 67 65
3 65 67 68
3 66 69 70
3 66 70 67
3 67 70 68
3 68 70 71
3 69 72 73
3 69 73 70
3 70 73 71
3 71 73 74
3 72 75 76
3 72 76 73
3 73 76 74
3 74 76 77
3 75 78 79
3 75 79 76
3 76 79 77
3 77 79 80
3 78 81 82
3 78 82 79
3 79 82 80
3 80 82 83
3 81 84 85
3 81 85 82
3 82 85 83
3 83 85 86
3 84 87 88
3 84 88 85
3 85 88 86
3 86 88 89
3 87 90 91
3 87 91 88
3 88 91 89
3 89 91 92
3 90 93 94
3 90 94 91
3 91 94 92
3 92 94 95
3 93 96 97
3 93 97 94
3 94 97 95
3 95 97 98
3 96 99 100
3 96 100 97
3 97 100 98
3 98 100 101
3 99 102 103
3 99 103 100
3 100 103 101
3 101 103 104
3 102 105 106
3 102 106 103
3 103 106 104
3 104 106 107
3 105 108 109
3 105 109 106
3 106 109 107
3 107 109 110
3 108 111 112
3 108 112 109
3 109 112 110
3 110 112 113
3 111 114 115
3 111 115 112
3 112 115 113
3 113 115 116
3 114 117 118
3 114 118 115
3 115 118 116
3 116 118 119
3 117 120 121
3 117 121 118
3 118 121 119
3 119 121 122
3 123 121 120
3 123 122 121
3 124 125 126
3 124 126 127
3 125 128 129
3 125 129 126
3 126 129 127
3 127 129 130
3 128 131 132
3 128 132 129
3 129 132 130
3 130 132 133
3 131 134 135
3 131 135 132
3 132 135 133
3 133 135 136
3 134 137 138
3 134 138 135
3 135 138 136
3 136 138 139
3 137 140 141
3 137 141 138
3 138 141 139
3 139 141 142
3 140 143 144
3 140 144 141
3 141 144 142
3 142 144 145
3 143 146 147
3 143 147 144
3 144 147 145
3 145 147 148
3 146 149 150
3 146 150 147
3 147 150 148
3 148 150 151
3 149 152 153
3 149 153 150
3 150 153 151
3 151 153 154
3 152 155 156
3 152 156 153
3 153 156 154
3 154 156 157
3 155 158 159
3 155 159 156
3 156 159 157
3 157 159 160
3 158 161 162
3 158 162 159
3 159 162 160
3 160 162 163
3 161 164 165
3 161 165 162
3 162 165 163
3 163 165 166
3 164 167 168
3 164 168 165
3 165 168 166
3 166 168 169
3 167 170 171
3 167 171 168
3 168 171 169
3 169 171 172
3 170 173 174
3 170 174 171
3 171 174 172
3 172 174 175
3 173 176 177
3 173 177 174
3 174 177 175
3 175 177 178
3 176 179 180
3 176 180 177
3 177 180 178
3 178 180 181
3 179 182 183
3 179 183 180
3 180 183 181
3 181 183 184
3 185 183 182
3 185 184 183
3 186 187 188
3 186 188 189
3 187 190 191
3 187 191 188
3 188 191 189
3 189 191 192
3 190 193 194
3 190 194 191
3 191 194 192
3 192 194 195
3 193 196 197
3 193 197 194
3 194 197 195
3 195 197 198
3 196 199 200
3 196 200 197
3 197 200 198
3 198 200 201
3 199 202 203
3 199 203 200
3 200 203 201
3 201 203 204
3 202 205 206
3 202 206 203
3 203 206 204
3 204 206 207
3 205 208 209
3 205 209 206
3 206 209 207
3 207 209 210
3 208 211 212
3 208 212 209
3 209 212 210
3 210 212 213
3 211 214 215
3 211 215 212
3 212 215 213
3 213 215 216
3 214 217 218
3 214 218 215
3 215 218 216
3 216 218 219
3 217 220 221
3 217 221 218
3 218 221 219
3 219 221 222
3 220 223 224
3 220 224 221
3 221 224 222
3 222 224 225
3 223 226 227
3 223 227 224
3 224 227 225
3 225 227 228
3 226 229 230
3 226 230 227
3 227 230 228
3 228 230 231
3 229 232 233
3 229 233 230
3 230 233 231
3 231 233 234
3 232 235 236
3 232 236 233
3 233 236 234
3 234 236 237
3 235 238 239
3 235 239 236
3 236 239 237
3 237 239 240
3 238 241 242
3 238 242 239
3 239 242 240
3 240 242 243
3 241 244 245
3 241 245 242
3 242 245 243
3 243 245 246
3 247 245 244
3 247 246 245
3 248 249 250
3 248 250 251
3 249 252 253
3 249 253 250
3 250 253 251
3 251 253 254
3 252 255 256
3 252 256 253
3 253 256 254
3 254 256 257
3 255 258 259
3 255 259 256
3 256 259 257
3 257 259 260
3 258 261 262
3 258 262 259
3 259 262 260
3 260 262 263
3 261 264 265
3 261 265 262
3 262 265 263
3 263 265 266
3 264 267 268
3 264 268 265
3 265 268 266
3 266 268 269
3 267 270 271
3 267 271 268
3 268 271 269
3 269 271 272
3 270 273 274
3 270 274 271
3 271 274 272
3 272 274 275
3 273 276 277
3 273 277 274
3 274 277 275
3 275 277 278
3 276 279 280
3 276 280 277
3 277 280 278
3 278 280 281
3 279 282 283
3 279 283 280
3 280 283 281
3 281 283 284
3 282 285 286
3 282 286 283
3 283 286 284
3 284 286 287
3 285 288 289
3 285 289 286
3 286 289 287
3 287 289 290
3 288 291 292
3 288 292 289
3 289 292 290
3 290 292 293
3 291 294 295
3 291 295 292
3 292 295 293
3 293 295 296
3 294 297 298
3 294 298 295
3 295 298 296
3 296 298 299
3 297 300 301
3 297 301 298
3 298 301 299
3 299 301 302
3 300 303 304
3 300 304 301
3 301 304 302
3 302 304 305
3 303 306 307
3 303 307 304
3 304 307 305
3 305 307 308
3 309 307 306
3 309 308 307
3 312 310 311
3 313 310 312
3 315 311 314
3 312 311 315
3 313 312 315
3 316 313 315
3 318 314 317
3 315 314 318
3 316 315 318
3 319 316 318
3 321 317 320
3 318 317 321
3 319 318 321
3 322 319 321
3 324 320 323
3 321 320 324
3 322 321 324
3 325 322 324
3 327 323 326
3 324 323 327
3 325 324 327
3 328 325 327
3 330 326 329
3 327 326 330
3 328 327 330
3 331 328 330
3 333 329 332
3 330 329 333
3 331 330 333
3 334 331 333
3 336 332 335
3 333 332 336
3 334 333 336
3 337 334 336
3 339 335 338
3 336 335 339
3 337 336 339
3 340 337 339
3 342 338 341
3 339 338 342
3 340 339 342
3 343 340 342
3 345 341 344
3 342 341 345
3 343 342 345
3 346 343 345
3 348 344 347
3 345 344 348
3 346 345 348
3 349 346 348
3 351 347 350
3 348 347 351
3 349 348 351
3 352 349 351
3 354 350 353
3 351 350 354
3 352 351 354
3 355 352 354
3 357 353 356
3 354 353 357
3 355 354 357
3 358 355 357
3 360 356 359
3 357 356 360
3 358 357 360
3 361 358 360
3 363 359 362
3 360 359 363
3 361 360 363
3 364 361 363
3 366 362 365
3 363 362 366
3 364 363 366
3 367 364 366
3 369 365 368
3 366 365 369
3 367 366 369
3 370 367 369
3 372 368 371
3 369 368 372
3 370 369 372
3 373 370 372
3 375 371 374
3 372 371 375
3 373 372 375
3 376 373 375
3 378 374 377
3 375 374 378
3 376 375 378
3 379 376 378
3 377 380 378
3 378 380 379
3 383 381 382
3 384 381 383
3 386 382 385
3 383 382 386
3 384 383 386
3 387 384 386
3 389 385 388
3 386 385 389
3 387 386 389
3 390 387 389
3 392 388 391
3 389 388 392
3 390 389 392
3 393 390 392
3 395 391 394
3 392 391 395
3 393 392 395
3 396 393 395
3 398 394 397
3 395 394 398
3 396 395 398
3 399 396 398
3 401 397 400
3 398 397 401
3 399 398 401
3 402 399 401
3 404 400 403
3 401 400 404
3 402 401 404
3 405 402 404
3 407 403 406
3 404 403 407
3 405 404 407
3 408 405 407
3 410 406 409
3 407 406 410
3 408 407 410
3 411 408 410
3 413 409 412
3 410 409 413
3 411 410 413
3 414 411 413
3 416 412 415
3 413 412 416
3 414 413 416
3 417 414 416
3 419 415 418
3 416 415 419
3 417 416 419
3 420 417 419
3 422 418 421
3 419 418 422
3 420 419 422
3 423 420 422
3 425 421 424
3 422 421 425
3 423 422 425
3 426 423 425
3 428 424 427
3 425 424 428
3 426 425 428
3 429 426 428
3 431 427 430
3 428 427 431
3 429 428 431
3 432 429 431
3 434 430 433
3 431 430 434
3 432 431 434
3 435 432 434
3 437 433 436
3 434 433 437
3 435 434 437
3 438 435 437
3 440 436 439
3 437 436 440
3 438 437 440
3 441 438 440
3 443 439 442
3 440 439 443
3 441 440 443
3 444 441 443
3 446 442 445
3 443 442 446
3 444 443 446
3 447 444 446
3 449 445 448
3 446 445 449
3 447 446 449
3 450 447 449
3 448 451 449
3 449 451 450
3 454 452 453
3 455 452 454
3 457 453 456
3 454 453 457
3 455 454 457
3 458 455 457
3 460 456 459
3 457 456 460
3 458 457 460
3 461 458 460
3 463 459 462
3 460 459 463
3 461 460 463
3 464 461 463
3 466 462 465
3 463 462 466
3 464 463 466
3 467 464 466
3 469 465 468
3 466 465 469
3 467 466 469
3 470 467 469
3 472 468 471
3 469 468 472
3 470 469 472
3 473 470 472
3 475 471 474
3 472 471 475
3 473 472 475
3 476 473 475
3 478 474 477
3 475 474 478
3 476 475 478
3 479 476 478
3 481 477 480
3 478 477 481
3 479 478 481
3 482 479 481
3 484 480 483
3 481 480 484
3 482 481 484
3 485 482 484
3 487 483 486
3 484 483 487
3 485 484 487
3 488 485 487
3 490 486 489
3 487 486 490
3 488 487 490
3 491 488 490
3 493 489 492
3 490 489 493
3 491 490 493
3 494 491 493
3 496 492 495
3 493 492 496
3 494 493 496
3 497 494 496
3 499 495 498
3 496 495 499
3 497 496 499
3 500 497 499
3 502 498 501
3 499 498 502
3 500 499 502
3 503 500 502
3 505 501 504
3 502 501 505
3 503 502 505
3 506 503 505
3 508 504 507
3 505 504 508
3 506 505 508
3 509 506 508
3 511 507 510
3 508 507 511
3 509 508 511
3 512 509 511
3 514 510 513
3 511 510 514
3 512 511 514
3 515 512 514
3 517 513 516
3 514 513 517
3 515 514 517
3 518 515 517
3 520 516 519
3 517 516 520
3 518 517 520
3 521 518 520
3 519 522 520
3 520 522 521
3 525 523 524
3 526 523 525
3 528 524 527
3 525 524 528
3 526 525 528
3 529 526 528
3 531 527 530
3 528 527 531
3 529 528 531
3 532 529 531
3 534 530 533
3 531 530 534
3 532 531 534
3 535 532 534
3 537 533 536
3 534 533 537
3 535 534 537
3 538 535 537
3 540 536 539
3 537 536 540
3 538 537 540
3 541 538 540
3 543 539 542
3 540 539 543
3 541 540 543
3 544 541 543
3 546 542 545
3 543 542 546
3 544 543 546
3 547 544 546
3 549 545 548
3 546 545 549
3 547 546 549
3 550 547 549
3 552 548 551
3 549 548 552
3 550 549 552
3 553 550 552
3 555 551 554
3 552 551 555
3 553 552 555
3 556 553 555
3 558 554 557
3 555 554 558
3 556 555 558
3 559 556 558
3 561 557 560
3 558 557 561
3 559 558 561
3 562 559 561
3 564 560 563
3 561 560 564
3 562 561 564
3 565 562 564
3 567 563 566
3 564 563 567
3 565 564 567
3 568 565 567
3 570 566 569
3 567 566 570
3 568 567 570
3 571 568 570
3 573 569 572
3 570 569 573
3 571 570 573
3 574 571 573
3 576 572 575
3 573 572 576
3 574 573 576
3 577 574 576
3 579 575 578
3 576 575 579
3 577 576 579
3 580 577 579
3 582 578 581
3 579 578 582
3 580 579 582
3 583 580 582
3 585 581 584
3 582 581 585
3 583 582 585
3 586 583 585
3 588 584 587
3 585 584 588
3 586 585 588
3 589 586 588
3 591 587 590
3 588 587 591
3 589 588 591
3 592 589 591
3 590 593 591
3 591 593 592
3 596 594 595
3 597 594 596
3 599 595 598
3 596 595 599
3 597 596 599
3 600 597 599
3 602 598 601
3 599 598 602
3 600 599 602
3 603 600 602
3 605 601 604
3 602 601 605
3 603 602 605
3 606 603 605
3 608 604 607
3 605 604 608
3 606 605 608
3 609 606 608
3 611 607 610
3 608 607 611
3 609 608 611
3 612 609 611
3 614 610 613
3 611 610 614
3 612 611 614
3 615 612 614
3 617 613 616
3 614 613 617
3 615 614 617
3 618 615 617
3 620 616 619
3 617 616 620
3 618 617 620
3 621 618 620
3 623 619 622
3 620 619 623
3 621 620 623
3 624 621 623
3 626 622 625
3 623 622 626
3 624 623 626
3 627 624 626
3 629 625 628
3 626 625 629
3 627 626 629
3 630 627 629
3 632 628 631
3 629 628 632
3 630 629 632
3 633 630 632
3 635 631 634
3 632 631 635
3 633 632 635
3 636 633 635
3 638 634 637
3 635 634 638
3 636 635 638
3 639 636 638
3 641 637 640
3 638 637 641
3 639 638 641
3 642 639 641
3 644 640 643
3 641 640 644
3 642 641 644
3 645 642 644
3 647 643 646
3 644 643 647
3 645 644 647
3 648 645 647
3 650 646 649
3 647 646 650
3 648 647 650
3 651 648 650
3 653 649 652
3 650 649 653
3 651 650 653
3 654 651 653
3 656 652 655
3 653 652 656
3 654 653 656
3 657 654 656
3 659 655 658
3 656 655 659
3 657 656 659
3 660 657 659
3 662 658 661
3 659 658 662
3 660 659 662
3 663 660 662
3 661 664 662
3 662 664 663
